  0
SECTION
  2
HEADER
  9
$ACADVER
  1
AC1032
  9
$ACADMAINTVER
 90
4
  9
$DWGCODEPAGE
  3
ANSI_1252
  9
$LASTSAVEDBY
  1
ezdxf
  9
$REQUIREDVERSIONS
160
0
  9
$INSBASE
 10
0.0
 20
0.0
 30
0.0
  9
$EXTMIN
 10
1e+20
 20
1e+20
 30
1e+20
  9
$EXTMAX
 10
-1e+20
 20
-1e+20
 30
-1e+20
  9
$LIMMIN
 10
0.0
 20
0.0
  9
$LIMMAX
 10
420.0
 20
297.0
  9
$ORTHOMODE
 70
0
  9
$REGENMODE
 70
1
  9
$FILLMODE
 70
1
  9
$QTEXTMODE
 70
0
  9
$MIRRTEXT
 70
1
  9
$LTSCALE
 40
1.0
  9
$ATTMODE
 70
1
  9
$TEXTSIZE
 40
2.5
  9
$TRACEWID
 40
1.0
  9
$TEXTSTYLE
  7
OpenSans
  9
$CLAYER
  8
0
  9
$CELTYPE
  6
ByLayer
  9
$CECOLOR
 62
256
  9
$CELTSCALE
 40
1.0
  9
$DISPSILH
 70
0
  9
$DIMSCALE
 40
1.0
  9
$DIMASZ
 40
0.175
  9
$DIMEXO
 40
0.125
  9
$DIMDLI
 40
3.75
  9
$DIMRND
 40
0.0
  9
$DIMDLE
 40
0.0
  9
$DIMEXE
 40
0.375
  9
$DIMTP
 40
0.0
  9
$DIMTM
 40
0.0
  9
$DIMTXT
 40
0.25
  9
$DIMCEN
 40
2.5
  9
$DIMTSZ
 40
0.0
  9
$DIMTOL
 70
0
  9
$DIMLIM
 70
0
  9
$DIMTIH
 70
0
  9
$DIMTOH
 70
0
  9
$DIMSE1
 70
0
  9
$DIMSE2
 70
0
  9
$DIMTAD
 70
1
  9
$DIMZIN
 70
12
  9
$DIMBLK
  1
ARCHTICK
  9
$DIMASO
 70
1
  9
$DIMSHO
 70
1
  9
$DIMPOST
  1

  9
$DIMAPOST
  1

  9
$DIMALT
 70
0
  9
$DIMALTD
 70
3
  9
$DIMALTF
 40
0.03937007874
  9
$DIMLFAC
 40
100.0
  9
$DIMTOFL
 70
1
  9
$DIMTVP
 40
0.0
  9
$DIMTIX
 70
0
  9
$DIMSOXD
 70
0
  9
$DIMSAH
 70
0
  9
$DIMBLK1
  1

  9
$DIMBLK2
  1

  9
$DIMSTYLE
  2
EZDXF
  9
$DIMCLRD
 70
0
  9
$DIMCLRE
 70
0
  9
$DIMCLRT
 70
0
  9
$DIMTFAC
 40
0.5
  9
$DIMGAP
 40
0.1
  9
$DIMJUST
 70
0
  9
$DIMSD1
 70
0
  9
$DIMSD2
 70
0
  9
$DIMTOLJ
 70
0
  9
$DIMTZIN
 70
8
  9
$DIMALTZ
 70
0
  9
$DIMALTTZ
 70
0
  9
$DIMUPT
 70
1
  9
$DIMDEC
 70
2
  9
$DIMTDEC
 70
2
  9
$DIMALTU
 70
2
  9
$DIMALTTD
 70
3
  9
$DIMTXSTY
  7
OpenSansCondensed-Light
  9
$DIMAUNIT
 70
0
  9
$DIMADEC
 70
2
  9
$DIMALTRND
 40
0.0
  9
$DIMAZIN
 70
3
  9
$DIMDSEP
 70
46
  9
$DIMATFIT
 70
3
  9
$DIMFRAC
 70
0
  9
$DIMLDRBLK
  1

  9
$DIMLUNIT
 70
2
  9
$DIMLWD
 70
-2
  9
$DIMLWE
 70
-2
  9
$DIMTMOVE
 70
2
  9
$DIMFXL
 40
1.0
  9
$DIMFXLON
 70
0
  9
$DIMJOGANG
 40
0.785398163397
  9
$DIMTFILL
 70
0
  9
$DIMTFILLCLR
 70
0
  9
$DIMARCSYM
 70
0
  9
$DIMLTYPE
  6

  9
$DIMLTEX1
  6

  9
$DIMLTEX2
  6

  9
$DIMTXTDIRECTION
 70
0
  9
$LUNITS
 70
2
  9
$LUPREC
 70
4
  9
$SKETCHINC
 40
1.0
  9
$FILLETRAD
 40
10.0
  9
$AUNITS
 70
0
  9
$AUPREC
 70
2
  9
$MENU
  1
.
  9
$ELEVATION
 40
0.0
  9
$PELEVATION
 40
0.0
  9
$THICKNESS
 40
0.0
  9
$LIMCHECK
 70
0
  9
$CHAMFERA
 40
0.0
  9
$CHAMFERB
 40
0.0
  9
$CHAMFERC
 40
0.0
  9
$CHAMFERD
 40
0.0
  9
$SKPOLY
 70
0
  9
$TDCREATE
 40
2461313.820347222
  9
$TDUCREATE
 40
2458532.153996898
  9
$TDUPDATE
 40
2461313.820347222
  9
$TDUUPDATE
 40
2458532.1544311
  9
$TDINDWG
 40
0.0
  9
$TDUSRTIMER
 40
0.0
  9
$USRTIMER
 70
1
  9
$ANGBASE
 50
0.0
  9
$ANGDIR
 70
0
  9
$PDMODE
 70
0
  9
$PDSIZE
 40
0.0
  9
$PLINEWID
 40
0.0
  9
$SPLFRAME
 70
0
  9
$SPLINETYPE
 70
6
  9
$SPLINESEGS
 70
8
  9
$HANDSEED
  5
3A8
  9
$SURFTAB1
 70
6
  9
$SURFTAB2
 70
6
  9
$SURFTYPE
 70
6
  9
$SURFU
 70
6
  9
$SURFV
 70
6
  9
$UCSBASE
  2

  9
$UCSNAME
  2

  9
$UCSORG
 10
0.0
 20
0.0
 30
0.0
  9
$UCSXDIR
 10
1.0
 20
0.0
 30
0.0
  9
$UCSYDIR
 10
0.0
 20
1.0
 30
0.0
  9
$UCSORTHOREF
  2

  9
$UCSORTHOVIEW
 70
0
  9
$UCSORGTOP
 10
0.0
 20
0.0
 30
0.0
  9
$UCSORGBOTTOM
 10
0.0
 20
0.0
 30
0.0
  9
$UCSORGLEFT
 10
0.0
 20
0.0
 30
0.0
  9
$UCSORGRIGHT
 10
0.0
 20
0.0
 30
0.0
  9
$UCSORGFRONT
 10
0.0
 20
0.0
 30
0.0
  9
$UCSORGBACK
 10
0.0
 20
0.0
 30
0.0
  9
$PUCSBASE
  2

  9
$PUCSNAME
  2

  9
$PUCSORG
 10
0.0
 20
0.0
 30
0.0
  9
$PUCSXDIR
 10
1.0
 20
0.0
 30
0.0
  9
$PUCSYDIR
 10
0.0
 20
1.0
 30
0.0
  9
$PUCSORTHOREF
  2

  9
$PUCSORTHOVIEW
 70
0
  9
$PUCSORGTOP
 10
0.0
 20
0.0
 30
0.0
  9
$PUCSORGBOTTOM
 10
0.0
 20
0.0
 30
0.0
  9
$PUCSORGLEFT
 10
0.0
 20
0.0
 30
0.0
  9
$PUCSORGRIGHT
 10
0.0
 20
0.0
 30
0.0
  9
$PUCSORGFRONT
 10
0.0
 20
0.0
 30
0.0
  9
$PUCSORGBACK
 10
0.0
 20
0.0
 30
0.0
  9
$USERI1
 70
0
  9
$USERI2
 70
0
  9
$USERI3
 70
0
  9
$USERI4
 70
0
  9
$USERI5
 70
0
  9
$USERR1
 40
0.0
  9
$USERR2
 40
0.0
  9
$USERR3
 40
0.0
  9
$USERR4
 40
0.0
  9
$USERR5
 40
0.0
  9
$WORLDVIEW
 70
1
  9
$SHADEDGE
 70
3
  9
$SHADEDIF
 70
70
  9
$TILEMODE
 70
0
  9
$MAXACTVP
 70
64
  9
$PINSBASE
 10
0.0
 20
0.0
 30
0.0
  9
$PLIMCHECK
 70
0
  9
$PEXTMIN
 10
1e+20
 20
1e+20
 30
1e+20
  9
$PEXTMAX
 10
-1e+20
 20
-1e+20
 30
-1e+20
  9
$PLIMMIN
 10
-0.0
 20
-0.0
  9
$PLIMMAX
 10
420.0
 20
297.0
  9
$UNITMODE
 70
0
  9
$VISRETAIN
 70
1
  9
$PLINEGEN
 70
0
  9
$PSLTSCALE
 70
1
  9
$TREEDEPTH
 70
3020
  9
$CMLSTYLE
  2
Standard
  9
$CMLJUST
 70
0
  9
$CMLSCALE
 40
20.0
  9
$PROXYGRAPHICS
 70
1
  9
$MEASUREMENT
 70
1
  9
$CELWEIGHT
370
-1
  9
$ENDCAPS
280
0
  9
$JOINSTYLE
280
0
  9
$LWDISPLAY
290
0
  9
$INSUNITS
 70
4
  9
$HYPERLINKBASE
  1

  9
$STYLESHEET
  1

  9
$XEDIT
290
1
  9
$CEPSNTYPE
380
0
  9
$PSTYLEMODE
290
1
  9
$FINGERPRINTGUID
  2
{F9B1146C-0182-4DB5-A054-912D0FDB3E39}
  9
$VERSIONGUID
  2
{7F0A053B-333D-44EE-813F-27A2BB0FC0AD}
  9
$EXTNAMES
290
1
  9
$PSVPSCALE
 40
0.0
  9
$OLESTARTUP
290
0
  9
$SORTENTS
280
127
  9
$INDEXCTL
280
0
  9
$HIDETEXT
280
1
  9
$XCLIPFRAME
280
1
  9
$HALOGAP
280
0
  9
$OBSCOLOR
 70
257
  9
$OBSLTYPE
280
0
  9
$INTERSECTIONDISPLAY
280
0
  9
$INTERSECTIONCOLOR
 70
257
  9
$DIMASSOC
280
2
  9
$PROJECTNAME
  1

  9
$CAMERADISPLAY
290
0
  9
$LENSLENGTH
 40
50.0
  9
$CAMERAHEIGHT
 40
0.0
  9
$STEPSPERSEC
 40
24.0
  9
$STEPSIZE
 40
100.0
  9
$3DDWFPREC
 40
2.0
  9
$PSOLWIDTH
 40
0.005
  9
$PSOLHEIGHT
 40
0.08
  9
$LOFTANG1
 40
1.570796326795
  9
$LOFTANG2
 40
1.570796326795
  9
$LOFTMAG1
 40
0.0
  9
$LOFTMAG2
 40
0.0
  9
$LOFTPARAM
 70
7
  9
$LOFTNORMALS
280
1
  9
$LATITUDE
 40
37.795
  9
$LONGITUDE
 40
-122.394
  9
$NORTHDIRECTION
 40
0.0
  9
$TIMEZONE
 70
-8000
  9
$LIGHTGLYPHDISPLAY
280
1
  9
$TILEMODELIGHTSYNCH
280
1
  9
$CMATERIAL
347
20
  9
$SOLIDHIST
280
0
  9
$SHOWHIST
280
1
  9
$DWFFRAME
280
2
  9
$DGNFRAME
280
2
  9
$REALWORLDSCALE
290
1
  9
$INTERFERECOLOR
 62
256
  9
$CSHADOW
280
0
  9
$SHADOWPLANELOCATION
 40
0.0
  0
ENDSEC
  0
SECTION
  2
CLASSES
  0
CLASS
  1
ACDBDICTIONARYWDFLT
  2
AcDbDictionaryWithDefault
  3
ObjectDBX Classes
 90
0
 91
0
280
0
281
0
  0
CLASS
  1
SUN
  2
AcDbSun
  3
SCENEOE
 90
1153
 91
0
280
0
281
0
  0
CLASS
  1
VISUALSTYLE
  2
AcDbVisualStyle
  3
ObjectDBX Classes
 90
4095
 91
0
280
0
281
0
  0
CLASS
  1
MATERIAL
  2
AcDbMaterial
  3
ObjectDBX Classes
 90
1153
 91
0
280
0
281
0
  0
CLASS
  1
SCALE
  2
AcDbScale
  3
ObjectDBX Classes
 90
1153
 91
0
280
0
281
0
  0
CLASS
  1
TABLESTYLE
  2
AcDbTableStyle
  3
ObjectDBX Classes
 90
4095
 91
0
280
0
281
0
  0
CLASS
  1
MLEADERSTYLE
  2
AcDbMLeaderStyle
  3
ACDB_MLEADERSTYLE_CLASS
 90
4095
 91
0
280
0
281
0
  0
CLASS
  1
DICTIONARYVAR
  2
AcDbDictionaryVar
  3
ObjectDBX Classes
 90
0
 91
0
280
0
281
0
  0
CLASS
  1
CELLSTYLEMAP
  2
AcDbCellStyleMap
  3
ObjectDBX Classes
 90
1152
 91
0
280
0
281
0
  0
CLASS
  1
MENTALRAYRENDERSETTINGS
  2
AcDbMentalRayRenderSettings
  3
SCENEOE
 90
1024
 91
0
280
0
281
0
  0
CLASS
  1
ACDBDETAILVIEWSTYLE
  2
AcDbDetailViewStyle
  3
ObjectDBX Classes
 90
1025
 91
0
280
0
281
0
  0
CLASS
  1
ACDBSECTIONVIEWSTYLE
  2
AcDbSectionViewStyle
  3
ObjectDBX Classes
 90
1025
 91
0
280
0
281
0
  0
CLASS
  1
RASTERVARIABLES
  2
AcDbRasterVariables
  3
ISM
 90
0
 91
0
280
0
281
0
  0
CLASS
  1
LAYOUT
  2
AcDbLayout
  3
ObjectDBX Classes
 90
0
 91
0
280
0
281
0
  0
CLASS
  1
ACDBPLACEHOLDER
  2
AcDbPlaceHolder
  3
ObjectDBX Classes
 90
0
 91
0
280
0
281
0
  0
ENDSEC
  0
SECTION
  2
TABLES
  0
TABLE
  2
VPORT
  5
8
330
0
100
AcDbSymbolTable
 70
1
  0
VPORT
  5
23
330
8
100
AcDbSymbolTableRecord
100
AcDbViewportTableRecord
  2
*Active
 70
0
 10
0.0
 20
0.0
 11
1.0
 21
1.0
 12
0.0
 22
0.0
 13
0.0
 23
0.0
 14
0.5
 24
0.5
 15
0.5
 25
0.5
 16
0.0
 26
0.0
 36
1.0
 17
0.0
 27
0.0
 37
0.0
 40
1000.0
 41
1.34
 42
50.0
 43
0.0
 44
0.0
 50
0.0
 51
0.0
 71
0
 72
1000
 73
1
 74
3
 75
0
 76
0
 77
0
 78
0
281
0
 65
0
146
0.0
  0
ENDTAB
  0
TABLE
  2
LTYPE
  5
2
330
0
100
AcDbSymbolTable
 70
21
  0
LTYPE
  5
24
330
2
100
AcDbSymbolTableRecord
100
AcDbLinetypeTableRecord
  2
ByBlock
 70
0
  3

 72
65
 73
0
 40
0.0
  0
LTYPE
  5
25
330
2
100
AcDbSymbolTableRecord
100
AcDbLinetypeTableRecord
  2
ByLayer
 70
0
  3

 72
65
 73
0
 40
0.0
  0
LTYPE
  5
26
330
2
100
AcDbSymbolTableRecord
100
AcDbLinetypeTableRecord
  2
Continuous
 70
0
  3

 72
65
 73
0
 40
0.0
  0
LTYPE
  5
2F
330
2
100
AcDbSymbolTableRecord
100
AcDbLinetypeTableRecord
  2
CENTER
 70
0
  3
Center ____ _ ____ _ ____ _ ____ _ ____ _ ____
 72
65
 73
4
 40
5.08
 49
3.175
 74
0
 49
-0.635
 74
0
 49
0.635
 74
0
 49
-0.635
 74
0
  0
LTYPE
  5
30
330
2
100
AcDbSymbolTableRecord
100
AcDbLinetypeTableRecord
  2
CENTERX2
 70
0
  3
Center (2x) ________  __  ________  __  ________
 72
65
 73
4
 40
8.89
 49
6.35
 74
0
 49
-0.635
 74
0
 49
1.27
 74
0
 49
-0.635
 74
0
  0
LTYPE
  5
31
330
2
100
AcDbSymbolTableRecord
100
AcDbLinetypeTableRecord
  2
CENTER2
 70
0
  3
Center (.5x) ____ _ ____ _ ____ _ ____ _ ____
 72
65
 73
4
 40
2.54
 49
1.587
 74
0
 49
-0.318
 74
0
 49
0.318
 74
0
 49
-0.318
 74
0
  0
LTYPE
  5
32
330
2
100
AcDbSymbolTableRecord
100
AcDbLinetypeTableRecord
  2
DASHED
 70
0
  3
Dashed __ __ __ __ __ __ __ __ __ __ __ __ __ _
 72
65
 73
2
 40
1.524
 49
1.27
 74
0
 49
-0.254
 74
0
  0
LTYPE
  5
33
330
2
100
AcDbSymbolTableRecord
100
AcDbLinetypeTableRecord
  2
DASHEDX2
 70
0
  3
Dashed (2x) ____  ____  ____  ____  ____  ____
 72
65
 73
2
 40
3.048
 49
2.54
 74
0
 49
-0.508
 74
0
  0
LTYPE
  5
34
330
2
100
AcDbSymbolTableRecord
100
AcDbLinetypeTableRecord
  2
DASHED2
 70
0
  3
Dashed (.5x) _ _ _ _ _ _ _ _ _ _ _ _ _ _
 72
65
 73
2
 40
0.762
 49
0.635
 74
0
 49
-0.127
 74
0
  0
LTYPE
  5
35
330
2
100
AcDbSymbolTableRecord
100
AcDbLinetypeTableRecord
  2
PHANTOM
 70
0
  3
Phantom ______  __  __  ______  __  __  ______
 72
65
 73
6
 40
6.35
 49
3.175
 74
0
 49
-0.635
 74
0
 49
0.635
 74
0
 49
-0.635
 74
0
 49
0.635
 74
0
 49
-0.635
 74
0
  0
LTYPE
  5
36
330
2
100
AcDbSymbolTableRecord
100
AcDbLinetypeTableRecord
  2
PHANTOMX2
 70
0
  3
Phantom (2x)____________    ____    ____    ____________
 72
65
 73
6
 40
10.795
 49
6.35
 74
0
 49
-0.635
 74
0
 49
1.27
 74
0
 49
-0.635
 74
0
 49
1.27
 74
0
 49
-0.635
 74
0
  0
LTYPE
  5
37
330
2
100
AcDbSymbolTableRecord
100
AcDbLinetypeTableRecord
  2
PHANTOM2
 70
0
  3
Phantom (.5x) ___ _ _ ___ _ _ ___ _ _ ___ _ _ ___
 72
65
 73
6
 40
3.175
 49
1.587
 74
0
 49
-0.318
 74
0
 49
0.318
 74
0
 49
-0.318
 74
0
 49
0.318
 74
0
 49
-0.318
 74
0
  0
LTYPE
  5
38
330
2
100
AcDbSymbolTableRecord
100
AcDbLinetypeTableRecord
  2
DASHDOT
 70
0
  3
Dash dot __ . __ . __ . __ . __ . __ . __ . __
 72
65
 73
4
 40
3.556
 49
2.54
 74
0
 49
-0.508
 74
0
 49
0.0
 74
0
 49
-0.508
 74
0
  0
LTYPE
  5
39
330
2
100
AcDbSymbolTableRecord
100
AcDbLinetypeTableRecord
  2
DASHDOTX2
 70
0
  3
Dash dot (2x) ____  .  ____  .  ____  .  ____
 72
65
 73
4
 40
6.096
 49
5.08
 74
0
 49
-0.508
 74
0
 49
0.0
 74
0
 49
-0.508
 74
0
  0
LTYPE
  5
3A
330
2
100
AcDbSymbolTableRecord
100
AcDbLinetypeTableRecord
  2
DASHDOT2
 70
0
  3
Dash dot (.5x) _ . _ . _ . _ . _ . _ . _ . _
 72
65
 73
4
 40
1.778
 49
1.27
 74
0
 49
-0.254
 74
0
 49
0.0
 74
0
 49
-0.254
 74
0
  0
LTYPE
  5
3B
330
2
100
AcDbSymbolTableRecord
100
AcDbLinetypeTableRecord
  2
DOT
 70
0
  3
Dot .  .  .  .  .  .  .  .  .  .  .  .  .  .  .  .
 72
65
 73
2
 40
0.508
 49
0.0
 74
0
 49
-0.508
 74
0
  0
LTYPE
  5
3C
330
2
100
AcDbSymbolTableRecord
100
AcDbLinetypeTableRecord
  2
DOTX2
 70
0
  3
Dot (2x) .    .    .    .    .    .    .    . 
 72
65
 73
2
 40
1.016
 49
0.0
 74
0
 49
-1.016
 74
0
  0
LTYPE
  5
3D
330
2
100
AcDbSymbolTableRecord
100
AcDbLinetypeTableRecord
  2
DOT2
 70
0
  3
Dot (.5) . . . . . . . . . . . . . . . . . . . 
 72
65
 73
2
 40
0.254
 49
0.0
 74
0
 49
-0.254
 74
0
  0
LTYPE
  5
3E
330
2
100
AcDbSymbolTableRecord
100
AcDbLinetypeTableRecord
  2
DIVIDE
 70
0
  3
Divide __ . . __ . . __ . . __ . . __ . . __
 72
65
 73
6
 40
4.064
 49
2.54
 74
0
 49
-0.508
 74
0
 49
0.0
 74
0
 49
-0.508
 74
0
 49
0.0
 74
0
 49
-0.508
 74
0
  0
LTYPE
  5
3F
330
2
100
AcDbSymbolTableRecord
100
AcDbLinetypeTableRecord
  2
DIVIDEX2
 70
0
  3
Divide (2x) ____  . .  ____  . .  ____  . .  ____
 72
65
 73
6
 40
6.604
 49
5.08
 74
0
 49
-0.508
 74
0
 49
0.0
 74
0
 49
-0.508
 74
0
 49
0.0
 74
0
 49
-0.508
 74
0
  0
LTYPE
  5
40
330
2
100
AcDbSymbolTableRecord
100
AcDbLinetypeTableRecord
  2
DIVIDE2
 70
0
  3
Divide(.5x) _ . _ . _ . _ . _ . _ . _ . _
 72
65
 73
6
 40
2.032
 49
1.27
 74
0
 49
-0.254
 74
0
 49
0.0
 74
0
 49
-0.254
 74
0
 49
0.0
 74
0
 49
-0.254
 74
0
  0
ENDTAB
  0
TABLE
  2
LAYER
  5
1
330
0
100
AcDbSymbolTable
 70
14
  0
LAYER
  5
27
330
1
100
AcDbSymbolTableRecord
100
AcDbLayerTableRecord
  2
0
 70
0
 62
7
  6
Continuous
370
-3
390
13
347
21
  0
LAYER
  5
28
330
1
100
AcDbSymbolTableRecord
100
AcDbLayerTableRecord
  2
Defpoints
 70
0
 62
7
  6
Continuous
290
0
370
-3
390
13
347
21
  0
LAYER
  5
8B
330
1
100
AcDbSymbolTableRecord
100
AcDbLayerTableRecord
  2
NET-12V
 70
0
 62
1
  6
Continuous
370
35
390
13
347
21
  0
LAYER
  5
8C
330
1
100
AcDbSymbolTableRecord
100
AcDbLayerTableRecord
  2
NET-12V-MOTOR
 70
0
 62
6
  6
Continuous
370
35
390
13
347
21
  0
LAYER
  5
8D
330
1
100
AcDbSymbolTableRecord
100
AcDbLayerTableRecord
  2
NET-5V
 70
0
 62
30
  6
Continuous
370
35
390
13
347
21
  0
LAYER
  5
8E
330
1
100
AcDbSymbolTableRecord
100
AcDbLayerTableRecord
  2
NET-3V3
 70
0
 62
40
  6
Continuous
370
35
390
13
347
21
  0
LAYER
  5
8F
330
1
100
AcDbSymbolTableRecord
100
AcDbLayerTableRecord
  2
NET-GND
 70
0
 62
8
  6
Continuous
370
35
390
13
347
21
  0
LAYER
  5
90
330
1
100
AcDbSymbolTableRecord
100
AcDbLayerTableRecord
  2
NET-SIGNAL
 70
0
 62
5
  6
Continuous
370
35
390
13
347
21
  0
LAYER
  5
91
330
1
100
AcDbSymbolTableRecord
100
AcDbLayerTableRecord
  2
NET-USB
 70
0
 62
3
  6
Continuous
370
35
390
13
347
21
  0
LAYER
  5
92
330
1
100
AcDbSymbolTableRecord
100
AcDbLayerTableRecord
  2
NET-MOTOR
 70
0
 62
6
  6
Continuous
370
35
390
13
347
21
  0
LAYER
  5
93
330
1
100
AcDbSymbolTableRecord
100
AcDbLayerTableRecord
  2
SYMBOLS
 70
0
 62
7
  6
Continuous
370
35
390
13
347
21
  0
LAYER
  5
94
330
1
100
AcDbSymbolTableRecord
100
AcDbLayerTableRecord
  2
TEXT
 70
0
 62
7
  6
Continuous
370
18
390
13
347
21
  0
LAYER
  5
95
330
1
100
AcDbSymbolTableRecord
100
AcDbLayerTableRecord
  2
TITLEBLOCK
 70
0
 62
7
  6
Continuous
370
50
390
13
347
21
  0
LAYER
  5
96
330
1
100
AcDbSymbolTableRecord
100
AcDbLayerTableRecord
  2
WIRE-COLOURS
 70
0
 62
7
  6
Continuous
370
35
390
13
347
21
  0
ENDTAB
  0
TABLE
  2
STYLE
  5
5
330
0
100
AcDbSymbolTable
 70
27
  0
STYLE
  5
29
330
5
100
AcDbSymbolTableRecord
100
AcDbTextStyleTableRecord
  2
Standard
 70
0
 40
0.0
 41
1.0
 50
0.0
 71
0
 42
2.5
  3
txt
  4

  0
STYLE
  5
41
330
5
100
AcDbSymbolTableRecord
100
AcDbTextStyleTableRecord
  2
OpenSans-Light
 70
0
 40
0.0
 41
1.0
 50
0.0
 71
0
 42
2.5
  3
OpenSans-Light.ttf
  4

  0
STYLE
  5
42
330
5
100
AcDbSymbolTableRecord
100
AcDbTextStyleTableRecord
  2
OpenSans-Light-Italic
 70
0
 40
0.0
 41
1.0
 50
0.0
 71
0
 42
2.5
  3
OpenSans-LightItalic.ttf
  4

  0
STYLE
  5
43
330
5
100
AcDbSymbolTableRecord
100
AcDbTextStyleTableRecord
  2
OpenSans
 70
0
 40
0.0
 41
1.0
 50
0.0
 71
0
 42
2.5
  3
OpenSans-Regular.ttf
  4

  0
STYLE
  5
44
330
5
100
AcDbSymbolTableRecord
100
AcDbTextStyleTableRecord
  2
OpenSans-Italic
 70
0
 40
0.0
 41
1.0
 50
0.0
 71
0
 42
2.5
  3
OpenSans-Italic.ttf
  4

  0
STYLE
  5
45
330
5
100
AcDbSymbolTableRecord
100
AcDbTextStyleTableRecord
  2
OpenSans-SemiBold
 70
0
 40
0.0
 41
1.0
 50
0.0
 71
0
 42
2.5
  3
OpenSans-SemiBold.ttf
  4

  0
STYLE
  5
46
330
5
100
AcDbSymbolTableRecord
100
AcDbTextStyleTableRecord
  2
OpenSans-SemiBoldItalic
 70
0
 40
0.0
 41
1.0
 50
0.0
 71
0
 42
2.5
  3
OpenSans-SemiBoldItalic.ttf
  4

  0
STYLE
  5
47
330
5
100
AcDbSymbolTableRecord
100
AcDbTextStyleTableRecord
  2
OpenSans-Bold
 70
0
 40
0.0
 41
1.0
 50
0.0
 71
0
 42
2.5
  3
OpenSans-Bold.ttf
  4

  0
STYLE
  5
48
330
5
100
AcDbSymbolTableRecord
100
AcDbTextStyleTableRecord
  2
OpenSans-BoldItalic
 70
0
 40
0.0
 41
1.0
 50
0.0
 71
0
 42
2.5
  3
OpenSans-BoldItalic.ttf
  4

  0
STYLE
  5
49
330
5
100
AcDbSymbolTableRecord
100
AcDbTextStyleTableRecord
  2
OpenSans-ExtraBold
 70
0
 40
0.0
 41
1.0
 50
0.0
 71
0
 42
2.5
  3
OpenSans-ExtraBold.ttf
  4

  0
STYLE
  5
4A
330
5
100
AcDbSymbolTableRecord
100
AcDbTextStyleTableRecord
  2
OpenSans-ExtraBoldItalic
 70
0
 40
0.0
 41
1.0
 50
0.0
 71
0
 42
2.5
  3
OpenSans-ExtraBoldItalic.ttf
  4

  0
STYLE
  5
4B
330
5
100
AcDbSymbolTableRecord
100
AcDbTextStyleTableRecord
  2
OpenSansCondensed-Bold
 70
0
 40
0.0
 41
1.0
 50
0.0
 71
0
 42
2.5
  3
OpenSansCondensed-Bold.ttf
  4

  0
STYLE
  5
4C
330
5
100
AcDbSymbolTableRecord
100
AcDbTextStyleTableRecord
  2
OpenSansCondensed-Light
 70
0
 40
0.0
 41
1.0
 50
0.0
 71
0
 42
2.5
  3
OpenSansCondensed-Light.ttf
  4

  0
STYLE
  5
4D
330
5
100
AcDbSymbolTableRecord
100
AcDbTextStyleTableRecord
  2
OpenSansCondensed-Italic
 70
0
 40
0.0
 41
1.0
 50
0.0
 71
0
 42
2.5
  3
OpenSansCondensed-LightItalic.ttf
  4

  0
STYLE
  5
4E
330
5
100
AcDbSymbolTableRecord
100
AcDbTextStyleTableRecord
  2
LiberationSans
 70
0
 40
0.0
 41
1.0
 50
0.0
 71
0
 42
2.5
  3
LiberationSans-Regular.ttf
  4

  0
STYLE
  5
4F
330
5
100
AcDbSymbolTableRecord
100
AcDbTextStyleTableRecord
  2
LiberationSans-Bold
 70
0
 40
0.0
 41
1.0
 50
0.0
 71
0
 42
2.5
  3
LiberationSans-Bold.ttf
  4

  0
STYLE
  5
50
330
5
100
AcDbSymbolTableRecord
100
AcDbTextStyleTableRecord
  2
LiberationSans-BoldItalic
 70
0
 40
0.0
 41
1.0
 50
0.0
 71
0
 42
2.5
  3
LiberationSans-BoldItalic.ttf
  4

  0
STYLE
  5
51
330
5
100
AcDbSymbolTableRecord
100
AcDbTextStyleTableRecord
  2
LiberationSans-Italic
 70
0
 40
0.0
 41
1.0
 50
0.0
 71
0
 42
2.5
  3
LiberationSans-Italic.ttf
  4

  0
STYLE
  5
52
330
5
100
AcDbSymbolTableRecord
100
AcDbTextStyleTableRecord
  2
LiberationSerif
 70
0
 40
0.0
 41
1.0
 50
0.0
 71
0
 42
2.5
  3
LiberationSerif-Regular.ttf
  4

  0
STYLE
  5
53
330
5
100
AcDbSymbolTableRecord
100
AcDbTextStyleTableRecord
  2
LiberationSerif-Bold
 70
0
 40
0.0
 41
1.0
 50
0.0
 71
0
 42
2.5
  3
LiberationSerif-Bold.ttf
  4

  0
STYLE
  5
54
330
5
100
AcDbSymbolTableRecord
100
AcDbTextStyleTableRecord
  2
LiberationSerif-BoldItalic
 70
0
 40
0.0
 41
1.0
 50
0.0
 71
0
 42
2.5
  3
LiberationSerif-BoldItalic.ttf
  4

  0
STYLE
  5
55
330
5
100
AcDbSymbolTableRecord
100
AcDbTextStyleTableRecord
  2
LiberationSerif-Italic
 70
0
 40
0.0
 41
1.0
 50
0.0
 71
0
 42
2.5
  3
LiberationSerif-Italic.ttf
  4

  0
STYLE
  5
56
330
5
100
AcDbSymbolTableRecord
100
AcDbTextStyleTableRecord
  2
LiberationMono
 70
0
 40
0.0
 41
1.0
 50
0.0
 71
0
 42
2.5
  3
LiberationMono-Regular.ttf
  4

  0
STYLE
  5
57
330
5
100
AcDbSymbolTableRecord
100
AcDbTextStyleTableRecord
  2
LiberationMono-Bold
 70
0
 40
0.0
 41
1.0
 50
0.0
 71
0
 42
2.5
  3
LiberationMono-Bold.ttf
  4

  0
STYLE
  5
58
330
5
100
AcDbSymbolTableRecord
100
AcDbTextStyleTableRecord
  2
LiberationMono-BoldItalic
 70
0
 40
0.0
 41
1.0
 50
0.0
 71
0
 42
2.5
  3
LiberationMono-BoldItalic.ttf
  4

  0
STYLE
  5
59
330
5
100
AcDbSymbolTableRecord
100
AcDbTextStyleTableRecord
  2
LiberationMono-Italic
 70
0
 40
0.0
 41
1.0
 50
0.0
 71
0
 42
2.5
  3
LiberationMono-Italic.ttf
  4

  0
STYLE
  5
8A
330
5
100
AcDbSymbolTableRecord
100
AcDbTextStyleTableRecord
  2
ISO
 70
0
 40
0.0
 41
1.0
 50
0.0
 71
0
 42
2.5
  3
isocpeur.ttf
  4

  0
ENDTAB
  0
TABLE
  2
VIEW
  5
7
330
0
100
AcDbSymbolTable
 70
0
  0
ENDTAB
  0
TABLE
  2
UCS
  5
6
330
0
100
AcDbSymbolTable
 70
0
  0
ENDTAB
  0
TABLE
  2
APPID
  5
3
330
0
100
AcDbSymbolTable
 70
3
  0
APPID
  5
2A
330
3
100
AcDbSymbolTableRecord
100
AcDbRegAppTableRecord
  2
ACAD
 70
0
  0
APPID
  5
3A5
330
3
100
AcDbSymbolTableRecord
100
AcDbRegAppTableRecord
  2
HATCHBACKGROUNDCOLOR
 70
0
  0
APPID
  5
3A6
330
3
100
AcDbSymbolTableRecord
100
AcDbRegAppTableRecord
  2
EZDXF
 70
0
  0
ENDTAB
  0
TABLE
  2
DIMSTYLE
  5
4
330
0
100
AcDbSymbolTable
 70
12
100
AcDbDimStyleTable
  0
DIMSTYLE
105
2B
330
4
100
AcDbSymbolTableRecord
100
AcDbDimStyleTableRecord
  2
Standard
 70
0
 40
1.0
 41
2.5
 42
0.625
 43
3.75
 44
1.25
 45
0.0
 46
0.0
 47
0.0
 48
0.0
 49
2.5
140
2.5
141
2.5
142
0.0
143
0.03937007874
144
1.0
145
0.0
146
1.0
147
0.625
148
0.0
 69
0
 70
0
 71
0
 72
0
 73
0
 74
0
 75
0
 76
0
 77
1
 78
8
 79
3
170
0
171
3
172
1
173
0
174
0
175
0
176
0
177
0
178
0
179
2
271
2
272
2
273
2
274
3
275
0
276
0
277
2
278
44
279
0
280
0
281
0
282
0
283
0
284
8
285
0
286
0
288
0
289
3
290
0
371
-2
372
-2
  0
DIMSTYLE
105
73
330
4
100
AcDbSymbolTableRecord
100
AcDbDimStyleTableRecord
  2
EZDXF
 70
0
 40
1.0
 41
0.175
 42
0.125
 43
3.75
 44
0.375
 45
0.0
 46
0.0
 47
0.0
 48
0.0
 49
2.5
140
0.25
141
2.5
142
0.0
143
0.03937007874
144
100.0
145
0.0
146
0.5
147
0.1
148
0.0
 69
0
 70
0
 71
0
 72
0
 73
0
 74
0
 75
0
 76
0
 77
1
 78
12
 79
3
170
0
171
3
172
1
173
0
174
0
175
0
176
0
177
0
178
0
179
2
271
2
272
2
273
2
274
3
275
0
276
0
277
2
278
46
279
2
280
0
281
0
282
0
283
0
284
8
285
0
286
0
288
1
289
3
290
0
340
4C
342
74
371
-2
372
-2
  0
DIMSTYLE
105
7C
330
4
100
AcDbSymbolTableRecord
100
AcDbDimStyleTableRecord
  2
EZ_M_100_H25_CM
 70
0
 40
1.0
 41
0.25
 42
0.125
 43
3.75
 44
0.375
 45
0.0
 46
0.0
 47
0.0
 48
0.0
 49
2.5
140
0.25
141
2.5
142
0.125
143
0.03937007874
144
100.0
145
0.0
146
0.5
147
0.1
148
0.0
 69
0
 70
0
 71
0
 72
0
 73
0
 74
0
 75
0
 76
0
 77
1
 78
12
 79
3
170
0
171
3
172
1
173
0
174
0
175
0
176
0
177
0
178
0
179
2
271
2
272
2
273
2
274
3
275
0
276
0
277
2
278
46
279
2
280
0
281
0
282
0
283
0
284
8
285
0
286
0
288
1
289
3
290
0
340
4C
371
-2
372
-2
  0
DIMSTYLE
105
7D
330
4
100
AcDbSymbolTableRecord
100
AcDbDimStyleTableRecord
  2
EZ_M_50_H25_CM
 70
0
 40
1.0
 41
0.125
 42
0.0625
 43
3.75
 44
0.1875
 45
0.0
 46
0.0
 47
0.0
 48
0.0
 49
2.5
140
0.125
141
2.5
142
0.0625
143
0.03937007874
144
100.0
145
0.0
146
0.5
147
0.05
148
0.0
 69
0
 70
0
 71
0
 72
0
 73
0
 74
0
 75
0
 76
0
 77
1
 78
12
 79
3
170
0
171
3
172
1
173
0
174
0
175
0
176
0
177
0
178
0
179
2
271
2
272
2
273
2
274
3
275
0
276
0
277
2
278
46
279
2
280
0
281
0
282
0
283
0
284
8
285
0
286
0
288
1
289
3
290
0
340
4C
371
-2
372
-2
  0
DIMSTYLE
105
7E
330
4
100
AcDbSymbolTableRecord
100
AcDbDimStyleTableRecord
  2
EZ_M_25_H25_CM
 70
0
 40
1.0
 41
0.0625
 42
0.03125
 43
3.75
 44
0.09375
 45
0.0
 46
0.0
 47
0.0
 48
0.0
 49
2.5
140
0.0625
141
2.5
142
0.03125
143
0.03937007874
144
100.0
145
0.0
146
0.5
147
0.025
148
0.0
 69
0
 70
0
 71
0
 72
0
 73
0
 74
0
 75
0
 76
0
 77
1
 78
12
 79
3
170
0
171
3
172
1
173
0
174
0
175
0
176
0
177
0
178
0
179
2
271
2
272
2
273
2
274
3
275
0
276
0
277
2
278
46
279
2
280
0
281
0
282
0
283
0
284
8
285
0
286
0
288
1
289
3
290
0
340
4C
371
-2
372
-2
  0
DIMSTYLE
105
7F
330
4
100
AcDbSymbolTableRecord
100
AcDbDimStyleTableRecord
  2
EZ_M_20_H25_CM
 70
0
 40
1.0
 41
0.05
 42
0.025
 43
3.75
 44
0.07500000000000001
 45
0.0
 46
0.0
 47
0.0
 48
0.0
 49
2.5
140
0.05
141
2.5
142
0.025
143
0.03937007874
144
100.0
145
0.0
146
0.5
147
0.020000000000000004
148
0.0
 69
0
 70
0
 71
0
 72
0
 73
0
 74
0
 75
0
 76
0
 77
1
 78
12
 79
3
170
0
171
3
172
1
173
0
174
0
175
0
176
0
177
0
178
0
179
2
271
2
272
2
273
2
274
3
275
0
276
0
277
2
278
46
279
2
280
0
281
0
282
0
283
0
284
8
285
0
286
0
288
1
289
3
290
0
340
4C
371
-2
372
-2
  0
DIMSTYLE
105
80
330
4
100
AcDbSymbolTableRecord
100
AcDbDimStyleTableRecord
  2
EZ_M_10_H25_CM
 70
0
 40
1.0
 41
0.025
 42
0.0125
 43
3.75
 44
0.037500000000000006
 45
0.0
 46
0.0
 47
0.0
 48
0.0
 49
2.5
140
0.025
141
2.5
142
0.0125
143
0.03937007874
144
100.0
145
0.0
146
0.5
147
0.010000000000000002
148
0.0
 69
0
 70
0
 71
0
 72
0
 73
0
 74
0
 75
0
 76
0
 77
1
 78
12
 79
3
170
0
171
3
172
1
173
0
174
0
175
0
176
0
177
0
178
0
179
2
271
2
272
2
273
2
274
3
275
0
276
0
277
2
278
46
279
2
280
0
281
0
282
0
283
0
284
8
285
0
286
0
288
1
289
3
290
0
340
4C
371
-2
372
-2
  0
DIMSTYLE
105
81
330
4
100
AcDbSymbolTableRecord
100
AcDbDimStyleTableRecord
  2
EZ_M_5_H25_CM
 70
0
 40
1.0
 41
0.0125
 42
0.00625
 43
3.75
 44
0.018750000000000003
 45
0.0
 46
0.0
 47
0.0
 48
0.0
 49
2.5
140
0.0125
141
2.5
142
0.00625
143
0.03937007874
144
100.0
145
0.0
146
0.5
147
0.005000000000000001
148
0.0
 69
0
 70
0
 71
0
 72
0
 73
0
 74
0
 75
0
 76
0
 77
1
 78
12
 79
3
170
0
171
3
172
1
173
0
174
0
175
0
176
0
177
0
178
0
179
2
271
2
272
2
273
2
274
3
275
0
276
0
277
2
278
46
279
2
280
0
281
0
282
0
283
0
284
8
285
0
286
0
288
1
289
3
290
0
340
4C
371
-2
372
-2
  0
DIMSTYLE
105
82
330
4
100
AcDbSymbolTableRecord
100
AcDbDimStyleTableRecord
  2
EZ_M_1_H25_CM
 70
0
 40
1.0
 41
0.0025
 42
0.00125
 43
3.75
 44
0.00375
 45
0.0
 46
0.0
 47
0.0
 48
0.0
 49
2.5
140
0.0025
141
2.5
142
0.00125
143
0.03937007874
144
100.0
145
0.0
146
0.5
147
0.001
148
0.0
 69
0
 70
0
 71
0
 72
0
 73
0
 74
0
 75
0
 76
0
 77
1
 78
12
 79
3
170
0
171
3
172
1
173
0
174
0
175
0
176
0
177
0
178
0
179
2
271
2
272
2
273
2
274
3
275
0
276
0
277
2
278
46
279
2
280
0
281
0
282
0
283
0
284
8
285
0
286
0
288
1
289
3
290
0
340
4C
371
-2
372
-2
  0
DIMSTYLE
105
83
330
4
100
AcDbSymbolTableRecord
100
AcDbDimStyleTableRecord
  2
EZ_RADIUS
 70
0
 40
1.0
 41
0.25
 42
0.125
 43
3.75
 44
0.375
 45
0.0
 46
0.0
 47
0.0
 48
0.0
 49
2.5
140
0.25
141
0.0
142
0.0
143
0.03937007874
144
100.0
145
0.0
146
0.5
147
0.1
148
0.0
 69
0
 70
0
 71
0
 72
0
 73
0
 74
0
 75
0
 76
0
 77
1
 78
12
 79
3
170
0
171
3
172
0
173
0
174
0
175
0
176
0
177
0
178
0
179
2
271
2
272
2
273
2
274
3
275
0
276
0
277
2
278
46
279
1
280
0
281
0
282
0
283
0
284
8
285
0
286
0
288
1
289
3
290
0
340
4C
342
84
371
-2
372
-2
  0
DIMSTYLE
105
88
330
4
100
AcDbSymbolTableRecord
100
AcDbDimStyleTableRecord
  2
EZ_RADIUS_INSIDE
 70
0
 40
1.0
 41
0.25
 42
0.125
 43
3.75
 44
0.375
 45
0.0
 46
0.0
 47
0.0
 48
0.0
 49
2.5
140
0.25
141
0.0
142
0.0
143
0.03937007874
144
100.0
145
0.0
146
0.5
147
0.1
148
0.0
 69
0
 70
0
 71
0
 72
0
 73
0
 74
0
 75
0
 76
0
 77
0
 78
12
 79
3
170
0
171
3
172
0
173
0
174
1
175
0
176
0
177
0
178
0
179
2
271
2
272
2
273
2
274
3
275
0
276
0
277
2
278
46
279
0
280
0
281
0
282
0
283
0
284
8
285
0
286
0
288
1
289
0
290
0
340
4C
342
84
371
-2
372
-2
  0
DIMSTYLE
105
89
330
4
100
AcDbSymbolTableRecord
100
AcDbDimStyleTableRecord
  2
EZ_CURVED
 70
0
 40
1.0
 41
0.25
 42
0.125
 43
3.75
 44
0.375
 45
0.0
 46
0.0
 47
0.0
 48
0.0
 49
2.5
140
0.25
141
2.5
142
0.0
143
0.03937007874
144
100.0
145
0.0
146
0.5
147
0.1
148
0.0
 69
0
 70
0
 71
0
 72
0
 73
0
 74
0
 75
0
 76
0
 77
1
 78
12
 79
2
 90
2
170
0
171
3
172
1
173
0
174
0
175
0
176
0
177
0
178
0
179
2
271
2
272
2
273
2
274
3
275
0
276
0
277
2
278
46
279
2
280
0
281
0
282
0
283
0
284
8
285
0
286
0
288
1
289
3
290
0
340
4C
371
-2
372
-2
  0
ENDTAB
  0
TABLE
  2
BLOCK_RECORD
  5
9
330
0
100
AcDbSymbolTable
 70
7
  0
BLOCK_RECORD
  5
17
330
9
100
AcDbSymbolTableRecord
100
AcDbBlockTableRecord
  2
*Model_Space
340
1A
 70
0
280
1
281
0
  0
BLOCK_RECORD
  5
74
330
9
100
AcDbSymbolTableRecord
100
AcDbBlockTableRecord
  2
_ARCHTICK
340
0
 70
0
280
1
281
0
  0
BLOCK_RECORD
  5
78
330
9
100
AcDbSymbolTableRecord
100
AcDbBlockTableRecord
  2
_CLOSEDFILLED
340
0
 70
0
280
1
281
0
  0
BLOCK_RECORD
  5
84
330
9
100
AcDbSymbolTableRecord
100
AcDbBlockTableRecord
  2
_CLOSEDBLANK
340
0
 70
0
280
1
281
0
  0
BLOCK_RECORD
  5
12C
330
9
100
AcDbSymbolTableRecord
100
AcDbBlockTableRecord
  2
*Paper_Space1
340
12F
 70
0
280
1
281
0
  0
BLOCK_RECORD
  5
1F6
330
9
100
AcDbSymbolTableRecord
100
AcDbBlockTableRecord
  2
*Paper_Space2
340
1F9
 70
0
280
1
281
0
  0
BLOCK_RECORD
  5
97
330
9
100
AcDbSymbolTableRecord
100
AcDbBlockTableRecord
  2
*Paper_Space
340
9A
 70
0
280
1
281
0
  0
ENDTAB
  0
ENDSEC
  0
SECTION
  2
BLOCKS
  0
BLOCK
  5
18
330
17
100
AcDbEntity
  8
0
100
AcDbBlockBegin
  2
*Model_Space
 70
0
 10
0.0
 20
0.0
 30
0.0
  3
*Model_Space
  1

  0
ENDBLK
  5
19
330
17
100
AcDbEntity
  8
0
100
AcDbBlockEnd
  0
BLOCK
  5
75
330
74
100
AcDbEntity
  8
0
100
AcDbBlockBegin
  2
_ARCHTICK
 70
0
 10
0.0
 20
0.0
 30
0.0
  3
_ARCHTICK
  1

  0
LWPOLYLINE
  5
77
330
74
100
AcDbEntity
  8
0
  6
BYBLOCK
 62
0
100
AcDbPolyline
 90
2
 70
0
 43
0.15
 10
-0.5
 20
-0.5
 10
0.5
 20
0.5
  0
ENDBLK
  5
76
330
74
100
AcDbEntity
  8
0
100
AcDbBlockEnd
  0
BLOCK
  5
79
330
78
100
AcDbEntity
  8
0
100
AcDbBlockBegin
  2
_CLOSEDFILLED
 70
0
 10
0.0
 20
0.0
 30
0.0
  3
_CLOSEDFILLED
  1

  0
SOLID
  5
7B
330
78
100
AcDbEntity
  8
0
  6
BYBLOCK
 62
0
100
AcDbTrace
 10
-1.0
 20
0.16439898372402537
 30
0.0
 11
0.0
 21
0.0
 31
0.0
 12
-1.0
 22
-0.16439898372402537
 32
0.0
 13
-1.0
 23
-0.16439898372402537
 33
0.0
  0
ENDBLK
  5
7A
330
78
100
AcDbEntity
  8
0
100
AcDbBlockEnd
  0
BLOCK
  5
85
330
84
100
AcDbEntity
  8
0
100
AcDbBlockBegin
  2
_CLOSEDBLANK
 70
0
 10
0.0
 20
0.0
 30
0.0
  3
_CLOSEDBLANK
  1

  0
LWPOLYLINE
  5
87
330
84
100
AcDbEntity
  8
0
  6
BYBLOCK
 62
0
100
AcDbPolyline
 90
3
 70
1
 10
-1.0
 20
0.16439898372402537
 10
0.0
 20
0.0
 10
-1.0
 20
-0.16439898372402537
  0
ENDBLK
  5
86
330
84
100
AcDbEntity
  8
0
100
AcDbBlockEnd
  0
BLOCK
  5
12D
330
12C
100
AcDbEntity
  8
0
100
AcDbBlockBegin
  2
*Paper_Space1
 70
0
 10
0.0
 20
0.0
 30
0.0
  3
*Paper_Space1
  1

  0
VIEWPORT
  5
130
330
12C
100
AcDbEntity
 67
1
  8
VIEWPORTS
100
AcDbViewport
 10
210.0
 20
148.5
 30
0.0
 40
462.00000000000006
 41
326.70000000000005
 68
1
 69
1
 12
210.0
 22
148.5
 13
0.0
 23
0.0
 14
10.0
 24
10.0
 15
10.0
 25
10.0
 16
0.0
 26
0.0
 36
1.0
 17
0.0
 27
0.0
 37
0.0
 42
50.0
 43
0.0
 44
0.0
 45
326.70000000000005
 50
0.0
 51
0.0
 72
100
 90
557088
  1

281
0
 71
0
 74
0
110
0.0
120
0.0
130
0.0
111
1.0
121
0.0
131
0.0
112
0.0
122
1.0
132
0.0
 79
0
146
0.0
282
0
  0
LWPOLYLINE
  5
131
330
12C
100
AcDbEntity
 67
1
  8
TITLEBLOCK
100
AcDbPolyline
 90
4
 70
1
 10
20.0
 20
10.0
 10
410.0
 20
10.0
 10
410.0
 20
287.0
 10
20.0
 20
287.0
  0
LWPOLYLINE
  5
132
330
12C
100
AcDbEntity
 67
1
  8
TITLEBLOCK
100
AcDbPolyline
 90
4
 70
1
 10
230.0
 20
10.0
 10
410.0
 20
10.0
 10
410.0
 20
62.0
 10
230.0
 20
62.0
  0
LWPOLYLINE
  5
133
330
12C
100
AcDbEntity
 67
1
  8
TITLEBLOCK
100
AcDbPolyline
 90
2
 70
0
 10
230.0
 20
22.0
 10
410.0
 20
22.0
  0
LWPOLYLINE
  5
134
330
12C
100
AcDbEntity
 67
1
  8
TITLEBLOCK
100
AcDbPolyline
 90
2
 70
0
 10
230.0
 20
34.0
 10
410.0
 20
34.0
  0
LWPOLYLINE
  5
135
330
12C
100
AcDbEntity
 67
1
  8
TITLEBLOCK
100
AcDbPolyline
 90
2
 70
0
 10
230.0
 20
48.0
 10
410.0
 20
48.0
  0
LWPOLYLINE
  5
136
330
12C
100
AcDbEntity
 67
1
  8
TITLEBLOCK
100
AcDbPolyline
 90
2
 70
0
 10
350.0
 20
34.0
 10
350.0
 20
48.0
  0
TEXT
  5
137
330
12C
100
AcDbEntity
 67
1
  8
TEXT
100
AcDbText
 10
231.2
 20
19.8
 30
0.0
 40
1.8
  1
SCALE
  7
ISO
 11
231.2
 21
19.8
 31
0.0
100
AcDbText
  0
TEXT
  5
138
330
12C
100
AcDbEntity
 67
1
  8
TEXT
100
AcDbText
 10
244.0
 20
13.5
 30
0.0
 40
2.8
  1
NTS
  7
ISO
 72
1
 11
244.0
 21
13.5
 31
0.0
100
AcDbText
 73
2
  0
LWPOLYLINE
  5
139
330
12C
100
AcDbEntity
 67
1
  8
TITLEBLOCK
100
AcDbPolyline
 90
2
 70
0
 10
258.0
 20
10.0
 10
258.0
 20
22.0
  0
TEXT
  5
13A
330
12C
100
AcDbEntity
 67
1
  8
TEXT
100
AcDbText
 10
259.2
 20
19.8
 30
0.0
 40
1.8
  1
SHEET
  7
ISO
 11
259.2
 21
19.8
 31
0.0
100
AcDbText
  0
TEXT
  5
13B
330
12C
100
AcDbEntity
 67
1
  8
TEXT
100
AcDbText
 10
272.0
 20
13.5
 30
0.0
 40
2.8
  1
2 / 3
  7
ISO
 72
1
 11
272.0
 21
13.5
 31
0.0
100
AcDbText
 73
2
  0
LWPOLYLINE
  5
13C
330
12C
100
AcDbEntity
 67
1
  8
TITLEBLOCK
100
AcDbPolyline
 90
2
 70
0
 10
286.0
 20
10.0
 10
286.0
 20
22.0
  0
TEXT
  5
13D
330
12C
100
AcDbEntity
 67
1
  8
TEXT
100
AcDbText
 10
287.2
 20
19.8
 30
0.0
 40
1.8
  1
UNITS
  7
ISO
 11
287.2
 21
19.8
 31
0.0
100
AcDbText
  0
TEXT
  5
13E
330
12C
100
AcDbEntity
 67
1
  8
TEXT
100
AcDbText
 10
298.0
 20
13.5
 30
0.0
 40
2.8
  1
-
  7
ISO
 72
1
 11
298.0
 21
13.5
 31
0.0
100
AcDbText
 73
2
  0
LWPOLYLINE
  5
13F
330
12C
100
AcDbEntity
 67
1
  8
TITLEBLOCK
100
AcDbPolyline
 90
2
 70
0
 10
310.0
 20
10.0
 10
310.0
 20
22.0
  0
TEXT
  5
140
330
12C
100
AcDbEntity
 67
1
  8
TEXT
100
AcDbText
 10
311.2
 20
19.8
 30
0.0
 40
1.8
  1
TYPE
  7
ISO
 11
311.2
 21
19.8
 31
0.0
100
AcDbText
  0
TEXT
  5
141
330
12C
100
AcDbEntity
 67
1
  8
TEXT
100
AcDbText
 10
328.0
 20
13.5
 30
0.0
 40
2.8
  1
SCHEMATIC
  7
ISO
 72
1
 11
328.0
 21
13.5
 31
0.0
100
AcDbText
 73
2
  0
LWPOLYLINE
  5
142
330
12C
100
AcDbEntity
 67
1
  8
TITLEBLOCK
100
AcDbPolyline
 90
2
 70
0
 10
346.0
 20
10.0
 10
346.0
 20
22.0
  0
TEXT
  5
143
330
12C
100
AcDbEntity
 67
1
  8
TEXT
100
AcDbText
 10
347.2
 20
19.8
 30
0.0
 40
1.8
  1
DATE
  7
ISO
 11
347.2
 21
19.8
 31
0.0
100
AcDbText
  0
TEXT
  5
144
330
12C
100
AcDbEntity
 67
1
  8
TEXT
100
AcDbText
 10
361.0
 20
13.5
 30
0.0
 40
2.8
  1
29/09/2026
  7
ISO
 72
1
 11
361.0
 21
13.5
 31
0.0
100
AcDbText
 73
2
  0
LWPOLYLINE
  5
145
330
12C
100
AcDbEntity
 67
1
  8
TITLEBLOCK
100
AcDbPolyline
 90
2
 70
0
 10
376.0
 20
10.0
 10
376.0
 20
22.0
  0
TEXT
  5
146
330
12C
100
AcDbEntity
 67
1
  8
TEXT
100
AcDbText
 10
377.2
 20
19.8
 30
0.0
 40
1.8
  1
DRAWN
  7
ISO
 11
377.2
 21
19.8
 31
0.0
100
AcDbText
  0
TEXT
  5
147
330
12C
100
AcDbEntity
 67
1
  8
TEXT
100
AcDbText
 10
393.0
 20
13.5
 30
0.0
 40
2.8
  1

  7
ISO
 72
1
 11
393.0
 21
13.5
 31
0.0
100
AcDbText
 73
2
  0
TEXT
  5
148
330
12C
100
AcDbEntity
 67
1
  8
TEXT
100
AcDbText
 10
231.2
 20
59.5
 30
0.0
 40
1.8
  1
PROJECT
  7
ISO
 11
231.2
 21
59.5
 31
0.0
100
AcDbText
  0
TEXT
  5
149
330
12C
100
AcDbEntity
 67
1
  8
TEXT
100
AcDbText
 10
320.0
 20
53.5
 30
0.0
 40
4.2
  1
AUTONOMOUS CARGO ROBOT - DESIGN v2
  7
ISO
 72
1
 11
320.0
 21
53.5
 31
0.0
100
AcDbText
 73
2
  0
TEXT
  5
14A
330
12C
100
AcDbEntity
 67
1
  8
TEXT
100
AcDbText
 10
231.2
 20
45.6
 30
0.0
 40
1.8
  1
TITLE
  7
ISO
 11
231.2
 21
45.6
 31
0.0
100
AcDbText
  0
TEXT
  5
14B
330
12C
100
AcDbEntity
 67
1
  8
TEXT
100
AcDbText
 10
290.0
 20
39.5
 30
0.0
 40
3.8
  1
POWER DISTRIBUTION
  7
ISO
 72
1
 11
290.0
 21
39.5
 31
0.0
100
AcDbText
 73
2
  0
TEXT
  5
14C
330
12C
100
AcDbEntity
 67
1
  8
TEXT
100
AcDbText
 10
351.2
 20
45.6
 30
0.0
 40
1.8
  1
DWG No.
  7
ISO
 11
351.2
 21
45.6
 31
0.0
100
AcDbText
  0
TEXT
  5
14D
330
12C
100
AcDbEntity
 67
1
  8
TEXT
100
AcDbText
 10
380.0
 20
39.5
 30
0.0
 40
3.5
  1
CR-V2-E02
  7
ISO
 72
1
 11
380.0
 21
39.5
 31
0.0
100
AcDbText
 73
2
  0
TEXT
  5
14E
330
12C
100
AcDbEntity
 67
1
  8
TEXT
100
AcDbText
 10
320.0
 20
28.0
 30
0.0
 40
2.0
  1
ARAB ACADEMY FOR SCIENCE, TECHNOLOGY & MARITIME TRANSPORT - GRADUATION PROJECT II
  7
ISO
 72
1
 11
320.0
 21
28.0
 31
0.0
100
AcDbText
 73
2
  0
LWPOLYLINE
  5
14F
330
12C
100
AcDbEntity
 67
1
  8
NET-12V
100
AcDbPolyline
 90
2
 70
0
 10
40.0
 20
235.0
 10
40.0
 20
217.0
  0
LWPOLYLINE
  5
150
330
12C
100
AcDbEntity
 67
1
  8
SYMBOLS
100
AcDbPolyline
 90
2
 70
0
 10
35.0
 20
217.0
 10
45.0
 20
217.0
  0
LWPOLYLINE
  5
151
330
12C
100
AcDbEntity
 67
1
  8
SYMBOLS
100
AcDbPolyline
 90
2
 70
0
 10
37.5
 20
214.0
 10
42.5
 20
214.0
  0
LWPOLYLINE
  5
152
330
12C
100
AcDbEntity
 67
1
  8
NET-GND
100
AcDbPolyline
 90
2
 70
0
 10
40.0
 20
214.0
 10
40.0
 20
195.0
  0
TEXT
  5
153
330
12C
100
AcDbEntity
 67
1
  8
TEXT
100
AcDbText
 10
33.5
 20
217.0
 30
0.0
 40
2.5
  1
+
  7
ISO
 72
1
 11
33.5
 21
217.0
 31
0.0
100
AcDbText
 73
2
  0
TEXT
  5
154
330
12C
100
AcDbEntity
 67
1
  8
TEXT
100
AcDbText
 10
47.0
 20
218.0
 30
0.0
 40
2.3
  1
BT1
  7
ISO
 11
47.0
 21
218.0
 31
0.0
100
AcDbText
  0
TEXT
  5
155
330
12C
100
AcDbEntity
 67
1
  8
TEXT
100
AcDbText
 10
47.0
 20
214.0
 30
0.0
 40
2.0
  1
3S LiPo 11.1 V 5000 mAh (XT60)
  7
ISO
 11
47.0
 21
214.0
 31
0.0
100
AcDbText
  0
LWPOLYLINE
  5
156
330
12C
100
AcDbEntity
 67
1
  8
NET-GND
100
AcDbPolyline
 90
2
 70
0
 10
40.0
 20
195.0
 10
40.0
 20
192.0
  0
LWPOLYLINE
  5
157
330
12C
100
AcDbEntity
 67
1
  8
NET-GND
100
AcDbPolyline
 90
2
 70
0
 10
38.0
 20
192.0
 10
42.0
 20
192.0
  0
LWPOLYLINE
  5
158
330
12C
100
AcDbEntity
 67
1
  8
NET-GND
100
AcDbPolyline
 90
2
 70
0
 10
38.7
 20
190.9
 10
41.3
 20
190.9
  0
LWPOLYLINE
  5
159
330
12C
100
AcDbEntity
 67
1
  8
NET-GND
100
AcDbPolyline
 90
2
 70
0
 10
39.4
 20
189.8
 10
40.6
 20
189.8
  0
LWPOLYLINE
  5
15A
330
12C
100
AcDbEntity
 67
1
  8
NET-12V
100
AcDbPolyline
 90
2
 70
0
 10
40.0
 20
235.0
 10
56.5
 20
235.0
  0
LWPOLYLINE
  5
15B
330
12C
100
AcDbEntity
 67
1
  8
SYMBOLS
100
AcDbPolyline
 90
4
 70
1
 10
56.5
 20
233.2
 10
68.5
 20
233.2
 10
68.5
 20
236.8
 10
56.5
 20
236.8
  0
LWPOLYLINE
  5
15C
330
12C
100
AcDbEntity
 67
1
  8
SYMBOLS
100
AcDbPolyline
 90
2
 70
0
 10
56.5
 20
235.0
 10
68.5
 20
235.0
  0
LWPOLYLINE
  5
15D
330
12C
100
AcDbEntity
 67
1
  8
NET-12V
100
AcDbPolyline
 90
2
 70
0
 10
68.5
 20
235.0
 10
85.0
 20
235.0
  0
TEXT
  5
15E
330
12C
100
AcDbEntity
 67
1
  8
TEXT
100
AcDbText
 10
62.5
 20
238.0
 30
0.0
 40
2.3
  1
F1
  7
ISO
 72
1
 11
62.5
 21
238.0
 31
0.0
100
AcDbText
 73
1
  0
TEXT
  5
15F
330
12C
100
AcDbEntity
 67
1
  8
TEXT
100
AcDbText
 10
62.5
 20
232.0
 30
0.0
 40
2.0
  1
10 A blade
  7
ISO
 72
1
 11
62.5
 21
232.0
 31
0.0
100
AcDbText
 73
3
  0
LWPOLYLINE
  5
160
330
12C
100
AcDbEntity
 67
1
  8
NET-12V
100
AcDbPolyline
 90
2
 70
0
 10
85.0
 20
235.0
 10
100.0
 20
235.0
  0
LWPOLYLINE
  5
161
330
12C
100
AcDbEntity
 67
1
  8
NET-12V
100
AcDbPolyline
 90
2
 70
0
 10
110.0
 20
235.0
 10
125.0
 20
235.0
  0
LWPOLYLINE
  5
162
330
12C
100
AcDbEntity
 67
1
  8
SYMBOLS
100
AcDbPolyline
 90
2
 70
1
 43
1.2
 10
99.4
 20
235.0
 42
1.0
 10
100.6
 20
235.0
 42
1.0
  0
LWPOLYLINE
  5
163
330
12C
100
AcDbEntity
 67
1
  8
SYMBOLS
100
AcDbPolyline
 90
2
 70
1
 43
1.2
 10
109.4
 20
235.0
 42
1.0
 10
110.6
 20
235.0
 42
1.0
  0
LWPOLYLINE
  5
164
330
12C
100
AcDbEntity
 67
1
  8
SYMBOLS
100
AcDbPolyline
 90
2
 70
0
 10
100.0
 20
235.0
 10
109.0
 20
239.0
  0
TEXT
  5
165
330
12C
100
AcDbEntity
 67
1
  8
TEXT
100
AcDbText
 10
105.0
 20
241.0
 30
0.0
 40
2.3
  1
SW1
  7
ISO
 72
1
 11
105.0
 21
241.0
 31
0.0
100
AcDbText
 73
1
  0
TEXT
  5
166
330
12C
100
AcDbEntity
 67
1
  8
TEXT
100
AcDbText
 10
105.0
 20
231.0
 30
0.0
 40
2.0
  1
master, 15 A DC
  7
ISO
 72
1
 11
105.0
 21
231.0
 31
0.0
100
AcDbText
 73
3
  0
LWPOLYLINE
  5
167
330
12C
100
AcDbEntity
 67
1
  8
NET-12V
100
AcDbPolyline
 90
2
 70
0
 10
125.0
 20
235.0
 10
240.0
 20
235.0
  0
TEXT
  5
168
330
12C
100
AcDbEntity
 67
1
  8
NET-12V
100
AcDbText
 10
170.0
 20
236.5
 30
0.0
 40
2.5
  1
+12V_MAIN
  7
ISO
 72
1
 11
170.0
 21
236.5
 31
0.0
100
AcDbText
 73
1
  0
TEXT
  5
169
330
12C
100
AcDbEntity
 67
1
  8
NET-12V
100
AcDbText
 10
44.0
 20
236.5
 30
0.0
 40
1.9
  1
P1
  7
ISO
 11
44.0
 21
236.5
 31
0.0
100
AcDbText
  0
TEXT
  5
16A
330
12C
100
AcDbEntity
 67
1
  8
NET-12V
100
AcDbText
 10
88.0
 20
236.5
 30
0.0
 40
1.9
  1
P2
  7
ISO
 11
88.0
 21
236.5
 31
0.0
100
AcDbText
  0
TEXT
  5
16B
330
12C
100
AcDbEntity
 67
1
  8
NET-12V
100
AcDbText
 10
135.0
 20
236.5
 30
0.0
 40
1.9
  1
P3
  7
ISO
 11
135.0
 21
236.5
 31
0.0
100
AcDbText
  0
LWPOLYLINE
  5
16C
330
12C
100
AcDbEntity
 67
1
  8
NET-12V
100
AcDbPolyline
 90
2
 70
1
 43
1.2
 10
149.4
 20
235.0
 42
1.0
 10
150.6
 20
235.0
 42
1.0
  0
LWPOLYLINE
  5
16D
330
12C
100
AcDbEntity
 67
1
  8
NET-12V
100
AcDbPolyline
 90
3
 70
0
 10
150.0
 20
235.0
 10
150.0
 20
205.0
 10
165.0
 20
205.0
  0
TEXT
  5
16E
330
12C
100
AcDbEntity
 67
1
  8
NET-12V
100
AcDbText
 10
151.5
 20
220.0
 30
0.0
 40
1.9
  1
P13
  7
ISO
 11
151.5
 21
220.0
 31
0.0
100
AcDbText
  0
LWPOLYLINE
  5
16F
330
12C
100
AcDbEntity
 67
1
  8
SYMBOLS
100
AcDbPolyline
 90
4
 70
1
 10
165.0
 20
180.0
 10
205.0
 20
180.0
 10
205.0
 20
212.0
 10
165.0
 20
212.0
  0
TEXT
  5
170
330
12C
100
AcDbEntity
 67
1
  8
TEXT
100
AcDbText
 10
185.0
 20
209.0
 30
0.0
 40
2.4
  1
U1 BUCK
  7
ISO
 72
1
 11
185.0
 21
209.0
 31
0.0
100
AcDbText
 73
3
  0
TEXT
  5
171
330
12C
100
AcDbEntity
 67
1
  8
TEXT
100
AcDbText
 10
185.0
 20
204.5
 30
0.0
 40
1.9
  1
XL4015
  7
ISO
 72
1
 11
185.0
 21
204.5
 31
0.0
100
AcDbText
 73
3
  0
TEXT
  5
172
330
12C
100
AcDbEntity
 67
1
  8
TEXT
100
AcDbText
 10
185.0
 20
200.5
 30
0.0
 40
1.9
  1
set 5.10 V
  7
ISO
 72
1
 11
185.0
 21
200.5
 31
0.0
100
AcDbText
 73
3
  0
TEXT
  5
173
330
12C
100
AcDbEntity
 67
1
  8
TEXT
100
AcDbText
 10
166.0
 20
205.0
 30
0.0
 40
1.8
  1
IN+
  7
ISO
 11
166.0
 21
205.0
 31
0.0
100
AcDbText
 73
2
  0
TEXT
  5
174
330
12C
100
AcDbEntity
 67
1
  8
TEXT
100
AcDbText
 10
166.0
 20
186.0
 30
0.0
 40
1.8
  1
IN-
  7
ISO
 11
166.0
 21
186.0
 31
0.0
100
AcDbText
 73
2
  0
TEXT
  5
175
330
12C
100
AcDbEntity
 67
1
  8
TEXT
100
AcDbText
 10
204.0
 20
205.0
 30
0.0
 40
1.8
  1
OUT+
  7
ISO
 72
2
 11
204.0
 21
205.0
 31
0.0
100
AcDbText
 73
2
  0
TEXT
  5
176
330
12C
100
AcDbEntity
 67
1
  8
TEXT
100
AcDbText
 10
204.0
 20
186.0
 30
0.0
 40
1.8
  1
OUT-
  7
ISO
 72
2
 11
204.0
 21
186.0
 31
0.0
100
AcDbText
 73
2
  0
LWPOLYLINE
  5
177
330
12C
100
AcDbEntity
 67
1
  8
NET-GND
100
AcDbPolyline
 90
2
 70
0
 10
165.0
 20
186.0
 10
155.0
 20
186.0
  0
LWPOLYLINE
  5
178
330
12C
100
AcDbEntity
 67
1
  8
NET-GND
100
AcDbPolyline
 90
2
 70
0
 10
155.0
 20
186.0
 10
155.0
 20
183.0
  0
LWPOLYLINE
  5
179
330
12C
100
AcDbEntity
 67
1
  8
NET-GND
100
AcDbPolyline
 90
2
 70
0
 10
153.0
 20
183.0
 10
157.0
 20
183.0
  0
LWPOLYLINE
  5
17A
330
12C
100
AcDbEntity
 67
1
  8
NET-GND
100
AcDbPolyline
 90
2
 70
0
 10
153.7
 20
181.9
 10
156.3
 20
181.9
  0
LWPOLYLINE
  5
17B
330
12C
100
AcDbEntity
 67
1
  8
NET-GND
100
AcDbPolyline
 90
2
 70
0
 10
154.4
 20
180.8
 10
155.6
 20
180.8
  0
TEXT
  5
17C
330
12C
100
AcDbEntity
 67
1
  8
NET-GND
100
AcDbText
 10
157.0
 20
188.0
 30
0.0
 40
1.9
  1
P14
  7
ISO
 11
157.0
 21
188.0
 31
0.0
100
AcDbText
  0
LWPOLYLINE
  5
17D
330
12C
100
AcDbEntity
 67
1
  8
NET-5V
100
AcDbPolyline
 90
2
 70
0
 10
205.0
 20
205.0
 10
225.0
 20
205.0
  0
LWPOLYLINE
  5
17E
330
12C
100
AcDbEntity
 67
1
  8
NET-GND
100
AcDbPolyline
 90
2
 70
0
 10
205.0
 20
186.0
 10
225.0
 20
186.0
  0
TEXT
  5
17F
330
12C
100
AcDbEntity
 67
1
  8
NET-5V
100
AcDbText
 10
212.0
 20
206.5
 30
0.0
 40
2.2
  1
+5V1
  7
ISO
 72
1
 11
212.0
 21
206.5
 31
0.0
100
AcDbText
 73
1
  0
LWPOLYLINE
  5
180
330
12C
100
AcDbEntity
 67
1
  8
SYMBOLS
100
AcDbPolyline
 90
4
 70
1
 10
225.0
 20
180.0
 10
262.0
 20
180.0
 10
262.0
 20
212.0
 10
225.0
 20
212.0
  0
TEXT
  5
181
330
12C
100
AcDbEntity
 67
1
  8
TEXT
100
AcDbText
 10
243.5
 20
209.0
 30
0.0
 40
2.2
  1
RASPBERRY PI 5
  7
ISO
 72
1
 11
243.5
 21
209.0
 31
0.0
100
AcDbText
 73
3
  0
TEXT
  5
182
330
12C
100
AcDbEntity
 67
1
  8
TEXT
100
AcDbText
 10
243.5
 20
204.5
 30
0.0
 40
1.8
  1
USB-C power in
  7
ISO
 72
1
 11
243.5
 21
204.5
 31
0.0
100
AcDbText
 73
3
  0
TEXT
  5
183
330
12C
100
AcDbEntity
 67
1
  8
TEXT
100
AcDbText
 10
243.5
 20
200.5
 30
0.0
 40
1.8
  1
(pigtail, P15)
  7
ISO
 72
1
 11
243.5
 21
200.5
 31
0.0
100
AcDbText
 73
3
  0
TEXT
  5
184
330
12C
100
AcDbEntity
 67
1
  8
TEXT
100
AcDbText
 10
226.0
 20
205.0
 30
0.0
 40
1.8
  1
5V
  7
ISO
 11
226.0
 21
205.0
 31
0.0
100
AcDbText
 73
2
  0
TEXT
  5
185
330
12C
100
AcDbEntity
 67
1
  8
TEXT
100
AcDbText
 10
226.0
 20
186.0
 30
0.0
 40
1.8
  1
GND
  7
ISO
 11
226.0
 21
186.0
 31
0.0
100
AcDbText
 73
2
  0
TEXT
  5
186
330
12C
100
AcDbEntity
 67
1
  8
TEXT
100
AcDbText
 10
225.0
 20
176.0
 30
0.0
 40
1.7
  1
GND is common with the logic GND of E03
  7
ISO
 11
225.0
 21
176.0
 31
0.0
100
AcDbText
  0
LWPOLYLINE
  5
187
330
12C
100
AcDbEntity
 67
1
  8
NET-12V
100
AcDbPolyline
 90
2
 70
0
 10
240.0
 20
235.0
 10
255.0
 20
235.0
  0
LWPOLYLINE
  5
188
330
12C
100
AcDbEntity
 67
1
  8
NET-12V
100
AcDbPolyline
 90
2
 70
0
 10
265.0
 20
235.0
 10
280.0
 20
235.0
  0
LWPOLYLINE
  5
189
330
12C
100
AcDbEntity
 67
1
  8
SYMBOLS
100
AcDbPolyline
 90
2
 70
1
 43
1.2
 10
254.4
 20
235.0
 42
1.0
 10
255.6
 20
235.0
 42
1.0
  0
LWPOLYLINE
  5
18A
330
12C
100
AcDbEntity
 67
1
  8
SYMBOLS
100
AcDbPolyline
 90
2
 70
1
 43
1.2
 10
264.4
 20
235.0
 42
1.0
 10
265.6
 20
235.0
 42
1.0
  0
LWPOLYLINE
  5
18B
330
12C
100
AcDbEntity
 67
1
  8
SYMBOLS
100
AcDbPolyline
 90
2
 70
0
 10
254.0
 20
233.5
 10
266.0
 20
233.5
  0
LWPOLYLINE
  5
18C
330
12C
100
AcDbEntity
 67
1
  8
SYMBOLS
100
AcDbPolyline
 90
2
 70
0
 10
260.0
 20
233.5
 10
260.0
 20
241.0
  0
LWPOLYLINE
  5
18D
330
12C
100
AcDbEntity
 67
1
  8
SYMBOLS
100
AcDbPolyline
 90
2
 70
0
 10
256.0
 20
241.0
 10
264.0
 20
241.0
  0
LWPOLYLINE
  5
18E
330
12C
100
AcDbEntity
 67
1
  8
SYMBOLS
100
AcDbPolyline
 90
4
 70
0
 10
256.0
 20
241.0
 10
257.0
 20
243.0
 10
263.0
 20
243.0
 10
264.0
 20
241.0
  0
TEXT
  5
18F
330
12C
100
AcDbEntity
 67
1
  8
TEXT
100
AcDbText
 10
260.0
 20
245.0
 30
0.0
 40
2.3
  1
S1 E-STOP
  7
ISO
 72
1
 11
260.0
 21
245.0
 31
0.0
100
AcDbText
 73
1
  0
TEXT
  5
190
330
12C
100
AcDbEntity
 67
1
  8
TEXT
100
AcDbText
 10
260.0
 20
231.0
 30
0.0
 40
2.0
  1
latching, NC, 10 A
  7
ISO
 72
1
 11
260.0
 21
231.0
 31
0.0
100
AcDbText
 73
3
  0
LWPOLYLINE
  5
191
330
12C
100
AcDbEntity
 67
1
  8
NET-12V-MOTOR
100
AcDbPolyline
 90
3
 70
0
 10
280.0
 20
235.0
 10
300.0
 20
235.0
 10
300.0
 20
118.0
  0
TEXT
  5
192
330
12C
100
AcDbEntity
 67
1
  8
NET-12V-MOTOR
100
AcDbText
 10
302.0
 20
226.0
 30
0.0
 40
2.5
  1
+12V_MOTOR
  7
ISO
 11
302.0
 21
226.0
 31
0.0
100
AcDbText
 73
2
  0
TEXT
  5
193
330
12C
100
AcDbEntity
 67
1
  8
NET-12V
100
AcDbText
 10
260.0
 20
225.0
 30
0.0
 40
1.9
  1
P5 / P6
  7
ISO
 11
260.0
 21
225.0
 31
0.0
100
AcDbText
  0
LWPOLYLINE
  5
194
330
12C
100
AcDbEntity
 67
1
  8
NET-12V-MOTOR
100
AcDbPolyline
 90
2
 70
1
 43
1.2
 10
299.4
 20
214.0
 42
1.0
 10
300.6
 20
214.0
 42
1.0
  0
LWPOLYLINE
  5
195
330
12C
100
AcDbEntity
 67
1
  8
NET-12V-MOTOR
100
AcDbPolyline
 90
2
 70
0
 10
300.0
 20
214.0
 10
320.0
 20
214.0
  0
TEXT
  5
196
330
12C
100
AcDbEntity
 67
1
  8
NET-12V-MOTOR
100
AcDbText
 10
305.0
 20
215.5
 30
0.0
 40
1.9
  1
P7
  7
ISO
 11
305.0
 21
215.5
 31
0.0
100
AcDbText
  0
LWPOLYLINE
  5
197
330
12C
100
AcDbEntity
 67
1
  8
SYMBOLS
100
AcDbPolyline
 90
4
 70
1
 10
320.0
 20
190.0
 10
360.0
 20
190.0
 10
360.0
 20
220.0
 10
320.0
 20
220.0
  0
TEXT
  5
198
330
12C
100
AcDbEntity
 67
1
  8
TEXT
100
AcDbText
 10
340.0
 20
217.5
 30
0.0
 40
2.2
  1
U2 BTS7960
  7
ISO
 72
1
 11
340.0
 21
217.5
 31
0.0
100
AcDbText
 73
3
  0
TEXT
  5
199
330
12C
100
AcDbEntity
 67
1
  8
TEXT
100
AcDbText
 10
340.0
 20
213.5
 30
0.0
 40
1.8
  1
(LEFT motor)
  7
ISO
 72
1
 11
340.0
 21
213.5
 31
0.0
100
AcDbText
 73
3
  0
TEXT
  5
19A
330
12C
100
AcDbEntity
 67
1
  8
TEXT
100
AcDbText
 10
321.0
 20
214.0
 30
0.0
 40
1.8
  1
B+
  7
ISO
 11
321.0
 21
214.0
 31
0.0
100
AcDbText
 73
2
  0
TEXT
  5
19B
330
12C
100
AcDbEntity
 67
1
  8
TEXT
100
AcDbText
 10
321.0
 20
195.0
 30
0.0
 40
1.8
  1
B-
  7
ISO
 11
321.0
 21
195.0
 31
0.0
100
AcDbText
 73
2
  0
TEXT
  5
19C
330
12C
100
AcDbEntity
 67
1
  8
TEXT
100
AcDbText
 10
359.0
 20
208.0
 30
0.0
 40
1.8
  1
M+
  7
ISO
 72
2
 11
359.0
 21
208.0
 31
0.0
100
AcDbText
 73
2
  0
TEXT
  5
19D
330
12C
100
AcDbEntity
 67
1
  8
TEXT
100
AcDbText
 10
359.0
 20
195.0
 30
0.0
 40
1.8
  1
M-
  7
ISO
 72
2
 11
359.0
 21
195.0
 31
0.0
100
AcDbText
 73
2
  0
TEXT
  5
19E
330
12C
100
AcDbEntity
 67
1
  8
TEXT
100
AcDbText
 10
340.0
 20
202.0
 30
0.0
 40
1.7
  1
logic: E03
  7
ISO
 72
1
 11
340.0
 21
202.0
 31
0.0
100
AcDbText
 73
2
  0
LWPOLYLINE
  5
19F
330
12C
100
AcDbEntity
 67
1
  8
NET-GND
100
AcDbPolyline
 90
2
 70
0
 10
320.0
 20
195.0
 10
312.0
 20
195.0
  0
LWPOLYLINE
  5
1A0
330
12C
100
AcDbEntity
 67
1
  8
NET-GND
100
AcDbPolyline
 90
2
 70
0
 10
312.0
 20
195.0
 10
312.0
 20
192.0
  0
LWPOLYLINE
  5
1A1
330
12C
100
AcDbEntity
 67
1
  8
NET-GND
100
AcDbPolyline
 90
2
 70
0
 10
310.0
 20
192.0
 10
314.0
 20
192.0
  0
LWPOLYLINE
  5
1A2
330
12C
100
AcDbEntity
 67
1
  8
NET-GND
100
AcDbPolyline
 90
2
 70
0
 10
310.7
 20
190.9
 10
313.3
 20
190.9
  0
LWPOLYLINE
  5
1A3
330
12C
100
AcDbEntity
 67
1
  8
NET-GND
100
AcDbPolyline
 90
2
 70
0
 10
311.4
 20
189.8
 10
312.6
 20
189.8
  0
TEXT
  5
1A4
330
12C
100
AcDbEntity
 67
1
  8
NET-GND
100
AcDbText
 10
313.0
 20
196.5
 30
0.0
 40
1.9
  1
P9
  7
ISO
 11
313.0
 21
196.5
 31
0.0
100
AcDbText
  0
LWPOLYLINE
  5
1A5
330
12C
100
AcDbEntity
 67
1
  8
NET-MOTOR
100
AcDbPolyline
 90
2
 70
0
 10
360.0
 20
208.0
 10
388.0
 20
208.0
  0
LWPOLYLINE
  5
1A6
330
12C
100
AcDbEntity
 67
1
  8
NET-MOTOR
100
AcDbPolyline
 90
3
 70
0
 10
360.0
 20
195.0
 10
388.0
 20
195.0
 10
388.0
 20
196.0
  0
CIRCLE
  5
1A7
330
12C
100
AcDbEntity
 67
1
  8
SYMBOLS
100
AcDbCircle
 10
388.0
 20
202.0
 30
0.0
 40
6.0
  0
TEXT
  5
1A8
330
12C
100
AcDbEntity
 67
1
  8
TEXT
100
AcDbText
 10
388.0
 20
202.0
 30
0.0
 40
4.0
  1
M
  7
ISO
 72
1
 11
388.0
 21
202.0
 31
0.0
100
AcDbText
 73
2
  0
TEXT
  5
1A9
330
12C
100
AcDbEntity
 67
1
  8
TEXT
100
AcDbText
 10
396.0
 20
204.0
 30
0.0
 40
2.3
  1
M1
  7
ISO
 11
396.0
 21
204.0
 31
0.0
100
AcDbText
  0
TEXT
  5
1AA
330
12C
100
AcDbEntity
 67
1
  8
NET-MOTOR
100
AcDbText
 10
366.0
 20
209.5
 30
0.0
 40
1.6
  1
red (M1)
  7
ISO
 11
366.0
 21
209.5
 31
0.0
100
AcDbText
  0
TEXT
  5
1AB
330
12C
100
AcDbEntity
 67
1
  8
NET-MOTOR
100
AcDbText
 10
366.0
 20
196.5
 30
0.0
 40
1.6
  1
white (M2)
  7
ISO
 11
366.0
 21
196.5
 31
0.0
100
AcDbText
  0
TEXT
  5
1AC
330
12C
100
AcDbEntity
 67
1
  8
NET-MOTOR
100
AcDbText
 10
366.0
 20
202.0
 30
0.0
 40
1.9
  1
P11
  7
ISO
 11
366.0
 21
202.0
 31
0.0
100
AcDbText
  0
LWPOLYLINE
  5
1AD
330
12C
100
AcDbEntity
 67
1
  8
NET-12V-MOTOR
100
AcDbPolyline
 90
2
 70
1
 43
1.2
 10
299.4
 20
154.0
 42
1.0
 10
300.6
 20
154.0
 42
1.0
  0
LWPOLYLINE
  5
1AE
330
12C
100
AcDbEntity
 67
1
  8
NET-12V-MOTOR
100
AcDbPolyline
 90
2
 70
0
 10
300.0
 20
154.0
 10
320.0
 20
154.0
  0
TEXT
  5
1AF
330
12C
100
AcDbEntity
 67
1
  8
NET-12V-MOTOR
100
AcDbText
 10
305.0
 20
155.5
 30
0.0
 40
1.9
  1
P8
  7
ISO
 11
305.0
 21
155.5
 31
0.0
100
AcDbText
  0
LWPOLYLINE
  5
1B0
330
12C
100
AcDbEntity
 67
1
  8
SYMBOLS
100
AcDbPolyline
 90
4
 70
1
 10
320.0
 20
130.0
 10
360.0
 20
130.0
 10
360.0
 20
160.0
 10
320.0
 20
160.0
  0
TEXT
  5
1B1
330
12C
100
AcDbEntity
 67
1
  8
TEXT
100
AcDbText
 10
340.0
 20
157.5
 30
0.0
 40
2.2
  1
U3 BTS7960
  7
ISO
 72
1
 11
340.0
 21
157.5
 31
0.0
100
AcDbText
 73
3
  0
TEXT
  5
1B2
330
12C
100
AcDbEntity
 67
1
  8
TEXT
100
AcDbText
 10
340.0
 20
153.5
 30
0.0
 40
1.8
  1
(RIGHT motor)
  7
ISO
 72
1
 11
340.0
 21
153.5
 31
0.0
100
AcDbText
 73
3
  0
TEXT
  5
1B3
330
12C
100
AcDbEntity
 67
1
  8
TEXT
100
AcDbText
 10
321.0
 20
154.0
 30
0.0
 40
1.8
  1
B+
  7
ISO
 11
321.0
 21
154.0
 31
0.0
100
AcDbText
 73
2
  0
TEXT
  5
1B4
330
12C
100
AcDbEntity
 67
1
  8
TEXT
100
AcDbText
 10
321.0
 20
135.0
 30
0.0
 40
1.8
  1
B-
  7
ISO
 11
321.0
 21
135.0
 31
0.0
100
AcDbText
 73
2
  0
TEXT
  5
1B5
330
12C
100
AcDbEntity
 67
1
  8
TEXT
100
AcDbText
 10
359.0
 20
148.0
 30
0.0
 40
1.8
  1
M+
  7
ISO
 72
2
 11
359.0
 21
148.0
 31
0.0
100
AcDbText
 73
2
  0
TEXT
  5
1B6
330
12C
100
AcDbEntity
 67
1
  8
TEXT
100
AcDbText
 10
359.0
 20
135.0
 30
0.0
 40
1.8
  1
M-
  7
ISO
 72
2
 11
359.0
 21
135.0
 31
0.0
100
AcDbText
 73
2
  0
TEXT
  5
1B7
330
12C
100
AcDbEntity
 67
1
  8
TEXT
100
AcDbText
 10
340.0
 20
142.0
 30
0.0
 40
1.7
  1
logic: E03
  7
ISO
 72
1
 11
340.0
 21
142.0
 31
0.0
100
AcDbText
 73
2
  0
LWPOLYLINE
  5
1B8
330
12C
100
AcDbEntity
 67
1
  8
NET-GND
100
AcDbPolyline
 90
2
 70
0
 10
320.0
 20
135.0
 10
312.0
 20
135.0
  0
LWPOLYLINE
  5
1B9
330
12C
100
AcDbEntity
 67
1
  8
NET-GND
100
AcDbPolyline
 90
2
 70
0
 10
312.0
 20
135.0
 10
312.0
 20
132.0
  0
LWPOLYLINE
  5
1BA
330
12C
100
AcDbEntity
 67
1
  8
NET-GND
100
AcDbPolyline
 90
2
 70
0
 10
310.0
 20
132.0
 10
314.0
 20
132.0
  0
LWPOLYLINE
  5
1BB
330
12C
100
AcDbEntity
 67
1
  8
NET-GND
100
AcDbPolyline
 90
2
 70
0
 10
310.7
 20
130.9
 10
313.3
 20
130.9
  0
LWPOLYLINE
  5
1BC
330
12C
100
AcDbEntity
 67
1
  8
NET-GND
100
AcDbPolyline
 90
2
 70
0
 10
311.4
 20
129.8
 10
312.6
 20
129.8
  0
TEXT
  5
1BD
330
12C
100
AcDbEntity
 67
1
  8
NET-GND
100
AcDbText
 10
313.0
 20
136.5
 30
0.0
 40
1.9
  1
P10
  7
ISO
 11
313.0
 21
136.5
 31
0.0
100
AcDbText
  0
LWPOLYLINE
  5
1BE
330
12C
100
AcDbEntity
 67
1
  8
NET-MOTOR
100
AcDbPolyline
 90
2
 70
0
 10
360.0
 20
148.0
 10
388.0
 20
148.0
  0
LWPOLYLINE
  5
1BF
330
12C
100
AcDbEntity
 67
1
  8
NET-MOTOR
100
AcDbPolyline
 90
3
 70
0
 10
360.0
 20
135.0
 10
388.0
 20
135.0
 10
388.0
 20
136.0
  0
CIRCLE
  5
1C0
330
12C
100
AcDbEntity
 67
1
  8
SYMBOLS
100
AcDbCircle
 10
388.0
 20
142.0
 30
0.0
 40
6.0
  0
TEXT
  5
1C1
330
12C
100
AcDbEntity
 67
1
  8
TEXT
100
AcDbText
 10
388.0
 20
142.0
 30
0.0
 40
4.0
  1
M
  7
ISO
 72
1
 11
388.0
 21
142.0
 31
0.0
100
AcDbText
 73
2
  0
TEXT
  5
1C2
330
12C
100
AcDbEntity
 67
1
  8
TEXT
100
AcDbText
 10
396.0
 20
144.0
 30
0.0
 40
2.3
  1
M2
  7
ISO
 11
396.0
 21
144.0
 31
0.0
100
AcDbText
  0
TEXT
  5
1C3
330
12C
100
AcDbEntity
 67
1
  8
NET-MOTOR
100
AcDbText
 10
366.0
 20
149.5
 30
0.0
 40
1.6
  1
red (M1)
  7
ISO
 11
366.0
 21
149.5
 31
0.0
100
AcDbText
  0
TEXT
  5
1C4
330
12C
100
AcDbEntity
 67
1
  8
NET-MOTOR
100
AcDbText
 10
366.0
 20
136.5
 30
0.0
 40
1.6
  1
white (M2)
  7
ISO
 11
366.0
 21
136.5
 31
0.0
100
AcDbText
  0
TEXT
  5
1C5
330
12C
100
AcDbEntity
 67
1
  8
NET-MOTOR
100
AcDbText
 10
366.0
 20
142.0
 30
0.0
 40
1.9
  1
P12
  7
ISO
 11
366.0
 21
142.0
 31
0.0
100
AcDbText
  0
TEXT
  5
1C6
330
12C
100
AcDbEntity
 67
1
  8
TEXT
100
AcDbText
 10
371.0
 20
120.0
 30
0.0
 40
1.7
  1
JGB37-520 12 V
  7
ISO
 11
371.0
 21
120.0
 31
0.0
100
AcDbText
  0
LWPOLYLINE
  5
1C7
330
12C
100
AcDbEntity
 67
1
  8
NET-12V-MOTOR
100
AcDbPolyline
 90
2
 70
1
 43
1.2
 10
299.4
 20
118.0
 42
1.0
 10
300.6
 20
118.0
 42
1.0
  0
LWPOLYLINE
  5
1C8
330
12C
100
AcDbEntity
 67
1
  8
NET-12V-MOTOR
100
AcDbPolyline
 90
2
 70
0
 10
300.0
 20
118.0
 10
270.0
 20
118.0
  0
LWPOLYLINE
  5
1C9
330
12C
100
AcDbEntity
 67
1
  8
NET-12V-MOTOR
100
AcDbPolyline
 90
2
 70
0
 10
270.0
 20
118.0
 10
270.0
 20
112.0
  0
LWPOLYLINE
  5
1CA
330
12C
100
AcDbEntity
 67
1
  8
SYMBOLS
100
AcDbPolyline
 90
4
 70
1
 10
268.4
 20
102.0
 10
271.6
 20
102.0
 10
271.6
 20
112.0
 10
268.4
 20
112.0
  0
LWPOLYLINE
  5
1CB
330
12C
100
AcDbEntity
 67
1
  8
NET-12V-MOTOR
100
AcDbPolyline
 90
2
 70
0
 10
270.0
 20
102.0
 10
270.0
 20
96.0
  0
TEXT
  5
1CC
330
12C
100
AcDbEntity
 67
1
  8
TEXT
100
AcDbText
 10
273.0
 20
107.0
 30
0.0
 40
2.2
  1
R1 10 k
  7
ISO
 11
273.0
 21
107.0
 31
0.0
100
AcDbText
 73
2
  0
LWPOLYLINE
  5
1CD
330
12C
100
AcDbEntity
 67
1
  8
NET-SIGNAL
100
AcDbPolyline
 90
2
 70
1
 43
1.2
 10
269.4
 20
96.0
 42
1.0
 10
270.6
 20
96.0
 42
1.0
  0
LWPOLYLINE
  5
1CE
330
12C
100
AcDbEntity
 67
1
  8
NET-SIGNAL
100
AcDbPolyline
 90
2
 70
0
 10
270.0
 20
96.0
 10
240.0
 20
96.0
  0
TEXT
  5
1CF
330
12C
100
AcDbEntity
 67
1
  8
NET-SIGNAL
100
AcDbText
 10
238.0
 20
96.0
 30
0.0
 40
2.2
  1
ESTOP_SENSE -> Pi GPIO26 (pin 37)
  7
ISO
 72
2
 11
238.0
 21
96.0
 31
0.0
100
AcDbText
 73
2
  0
TEXT
  5
1D0
330
12C
100
AcDbEntity
 67
1
  8
NET-SIGNAL
100
AcDbText
 10
238.0
 20
92.0
 30
0.0
 40
1.8
  1
~3.1 V = motor power ON, 0 V = E-stop pressed
  7
ISO
 72
2
 11
238.0
 21
92.0
 31
0.0
100
AcDbText
 73
2
  0
LWPOLYLINE
  5
1D1
330
12C
100
AcDbEntity
 67
1
  8
NET-GND
100
AcDbPolyline
 90
2
 70
0
 10
270.0
 20
96.0
 10
270.0
 20
91.0
  0
LWPOLYLINE
  5
1D2
330
12C
100
AcDbEntity
 67
1
  8
SYMBOLS
100
AcDbPolyline
 90
4
 70
1
 10
268.4
 20
81.0
 10
271.6
 20
81.0
 10
271.6
 20
91.0
 10
268.4
 20
91.0
  0
LWPOLYLINE
  5
1D3
330
12C
100
AcDbEntity
 67
1
  8
NET-GND
100
AcDbPolyline
 90
2
 70
0
 10
270.0
 20
81.0
 10
270.0
 20
76.0
  0
TEXT
  5
1D4
330
12C
100
AcDbEntity
 67
1
  8
TEXT
100
AcDbText
 10
273.0
 20
86.0
 30
0.0
 40
2.2
  1
R2 3.3 k
  7
ISO
 11
273.0
 21
86.0
 31
0.0
100
AcDbText
 73
2
  0
LWPOLYLINE
  5
1D5
330
12C
100
AcDbEntity
 67
1
  8
NET-GND
100
AcDbPolyline
 90
2
 70
0
 10
270.0
 20
76.0
 10
270.0
 20
73.0
  0
LWPOLYLINE
  5
1D6
330
12C
100
AcDbEntity
 67
1
  8
NET-GND
100
AcDbPolyline
 90
2
 70
0
 10
268.0
 20
73.0
 10
272.0
 20
73.0
  0
LWPOLYLINE
  5
1D7
330
12C
100
AcDbEntity
 67
1
  8
NET-GND
100
AcDbPolyline
 90
2
 70
0
 10
268.7
 20
71.9
 10
271.3
 20
71.9
  0
LWPOLYLINE
  5
1D8
330
12C
100
AcDbEntity
 67
1
  8
NET-GND
100
AcDbPolyline
 90
2
 70
0
 10
269.4
 20
70.8
 10
270.6
 20
70.8
  0
TEXT
  5
1D9
330
12C
100
AcDbEntity
 67
1
  8
NET-SIGNAL
100
AcDbText
 10
272.0
 20
99.0
 30
0.0
 40
1.9
  1
S28
  7
ISO
 11
272.0
 21
99.0
 31
0.0
100
AcDbText
  0
LWPOLYLINE
  5
1DA
330
12C
100
AcDbEntity
 67
1
  8
SYMBOLS
100
AcDbPolyline
 90
4
 70
1
 10
28.0
 20
150.0
 10
92.0
 20
150.0
 10
92.0
 20
168.0
 10
28.0
 20
168.0
  0
TEXT
  5
1DB
330
12C
100
AcDbEntity
 67
1
  8
TEXT
100
AcDbText
 10
60.0
 20
165.0
 30
0.0
 40
2.1
  1
LiPo voltage alarm
  7
ISO
 72
1
 11
60.0
 21
165.0
 31
0.0
100
AcDbText
 73
3
  0
TEXT
  5
1DC
330
12C
100
AcDbEntity
 67
1
  8
TEXT
100
AcDbText
 10
60.0
 20
161.0
 30
0.0
 40
1.8
  1
on the balance lead (P16)
  7
ISO
 72
1
 11
60.0
 21
161.0
 31
0.0
100
AcDbText
 73
3
  0
TEXT
  5
1DD
330
12C
100
AcDbEntity
 67
1
  8
TEXT
100
AcDbText
 10
60.0
 20
157.0
 30
0.0
 40
1.8
  1
set to 3.5 V / cell
  7
ISO
 72
1
 11
60.0
 21
157.0
 31
0.0
100
AcDbText
 73
3
  0
LWPOLYLINE
  5
1DE
330
12C
100
AcDbEntity
 67
1
  8
SYMBOLS
 62
8
100
AcDbPolyline
 90
2
 70
0
 10
52.0
 20
168.0
 10
48.0
 20
200.0
  0
TEXT
  5
1DF
330
12C
100
AcDbEntity
 67
1
  8
TEXT
100
AcDbText
 10
28.0
 20
138.0
 30
0.0
 40
2.8
  1
NOTES
  7
ISO
 11
28.0
 21
138.0
 31
0.0
100
AcDbText
  0
TEXT
  5
1E0
330
12C
100
AcDbEntity
 67
1
  8
TEXT
100
AcDbText
 10
28.0
 20
133.0
 30
0.0
 40
2.1
  1
1. Wire IDs P1..P16 = power wire list, BUILD_GUIDE.md week 2.
  7
ISO
 11
28.0
 21
133.0
 31
0.0
100
AcDbText
  0
TEXT
  5
1E1
330
12C
100
AcDbEntity
 67
1
  8
TEXT
100
AcDbText
 10
28.0
 20
128.7
 30
0.0
 40
2.1
  1
2. 16 AWG: P1-P10 (battery, fuse, switch, E-stop, drivers).
  7
ISO
 11
28.0
 21
128.7
 31
0.0
100
AcDbText
  0
TEXT
  5
1E2
330
12C
100
AcDbEntity
 67
1
  8
TEXT
100
AcDbText
 10
28.0
 20
124.4
 30
0.0
 40
2.1
  1
3. 20 AWG: P11-P15 (motors, buck in/out, USB-C pigtail).
  7
ISO
 11
28.0
 21
124.4
 31
0.0
100
AcDbText
  0
TEXT
  5
1E3
330
12C
100
AcDbEntity
 67
1
  8
TEXT
100
AcDbText
 10
28.0
 20
120.1
 30
0.0
 40
2.1
  1
4. Fuse F1 must be the first part after the battery +.
  7
ISO
 11
28.0
 21
120.1
 31
0.0
100
AcDbText
  0
TEXT
  5
1E4
330
12C
100
AcDbEntity
 67
1
  8
TEXT
100
AcDbText
 10
28.0
 20
115.8
 30
0.0
 40
2.1
  1
5. The E-stop cuts motor power only; the Pi stays on
  7
ISO
 11
28.0
 21
115.8
 31
0.0
100
AcDbText
  0
TEXT
  5
1E5
330
12C
100
AcDbEntity
 67
1
  8
TEXT
100
AcDbText
 10
28.0
 20
111.5
 30
0.0
 40
2.1
  1
   and reads the E-stop state on GPIO26 (divider R1/R2).
  7
ISO
 11
28.0
 21
111.5
 31
0.0
100
AcDbText
  0
TEXT
  5
1E6
330
12C
100
AcDbEntity
 67
1
  8
TEXT
100
AcDbText
 10
28.0
 20
107.2
 30
0.0
 40
2.1
  1
6. Set the buck to 5.10-5.20 V BEFORE connecting the Pi.
  7
ISO
 11
28.0
 21
107.2
 31
0.0
100
AcDbText
  0
TEXT
  5
1E7
330
12C
100
AcDbEntity
 67
1
  8
TEXT
100
AcDbText
 10
130.0
 20
150.0
 30
0.0
 40
2.4
  1
WIRE COLOURS IN THIS DRAWING
  7
ISO
 11
130.0
 21
150.0
 31
0.0
100
AcDbText
  0
LWPOLYLINE
  5
1E8
330
12C
100
AcDbEntity
 67
1
  8
NET-12V
100
AcDbPolyline
 90
2
 70
0
 10
130.0
 20
145.0
 10
140.0
 20
145.0
  0
TEXT
  5
1E9
330
12C
100
AcDbEntity
 67
1
  8
TEXT
100
AcDbText
 10
143.0
 20
145.0
 30
0.0
 40
2.1
  1
+12 V main (after fuse + switch)
  7
ISO
 11
143.0
 21
145.0
 31
0.0
100
AcDbText
 73
2
  0
LWPOLYLINE
  5
1EA
330
12C
100
AcDbEntity
 67
1
  8
NET-12V-MOTOR
100
AcDbPolyline
 90
2
 70
0
 10
130.0
 20
140.8
 10
140.0
 20
140.8
  0
TEXT
  5
1EB
330
12C
100
AcDbEntity
 67
1
  8
TEXT
100
AcDbText
 10
143.0
 20
140.8
 30
0.0
 40
2.1
  1
+12 V motor (after E-stop), motor leads
  7
ISO
 11
143.0
 21
140.8
 31
0.0
100
AcDbText
 73
2
  0
LWPOLYLINE
  5
1EC
330
12C
100
AcDbEntity
 67
1
  8
NET-5V
100
AcDbPolyline
 90
2
 70
0
 10
130.0
 20
136.6
 10
140.0
 20
136.6
  0
TEXT
  5
1ED
330
12C
100
AcDbEntity
 67
1
  8
TEXT
100
AcDbText
 10
143.0
 20
136.6
 30
0.0
 40
2.1
  1
+5.1 V (buck output)
  7
ISO
 11
143.0
 21
136.6
 31
0.0
100
AcDbText
 73
2
  0
LWPOLYLINE
  5
1EE
330
12C
100
AcDbEntity
 67
1
  8
NET-3V3
100
AcDbPolyline
 90
2
 70
0
 10
130.0
 20
132.4
 10
140.0
 20
132.4
  0
TEXT
  5
1EF
330
12C
100
AcDbEntity
 67
1
  8
TEXT
100
AcDbText
 10
143.0
 20
132.4
 30
0.0
 40
2.1
  1
+3.3 V logic (from Pi pins 1 / 17)
  7
ISO
 11
143.0
 21
132.4
 31
0.0
100
AcDbText
 73
2
  0
LWPOLYLINE
  5
1F0
330
12C
100
AcDbEntity
 67
1
  8
NET-GND
100
AcDbPolyline
 90
2
 70
0
 10
130.0
 20
128.2
 10
140.0
 20
128.2
  0
TEXT
  5
1F1
330
12C
100
AcDbEntity
 67
1
  8
TEXT
100
AcDbText
 10
143.0
 20
128.2
 30
0.0
 40
2.1
  1
ground
  7
ISO
 11
143.0
 21
128.2
 31
0.0
100
AcDbText
 73
2
  0
LWPOLYLINE
  5
1F2
330
12C
100
AcDbEntity
 67
1
  8
NET-SIGNAL
100
AcDbPolyline
 90
2
 70
0
 10
130.0
 20
124.0
 10
140.0
 20
124.0
  0
TEXT
  5
1F3
330
12C
100
AcDbEntity
 67
1
  8
TEXT
100
AcDbText
 10
143.0
 20
124.0
 30
0.0
 40
2.1
  1
GPIO signals
  7
ISO
 11
143.0
 21
124.0
 31
0.0
100
AcDbText
 73
2
  0
LWPOLYLINE
  5
1F4
330
12C
100
AcDbEntity
 67
1
  8
NET-USB
100
AcDbPolyline
 90
2
 70
0
 10
130.0
 20
119.8
 10
140.0
 20
119.8
  0
TEXT
  5
1F5
330
12C
100
AcDbEntity
 67
1
  8
TEXT
100
AcDbText
 10
143.0
 20
119.8
 30
0.0
 40
2.1
  1
USB
  7
ISO
 11
143.0
 21
119.8
 31
0.0
100
AcDbText
 73
2
  0
ENDBLK
  5
12E
330
12C
100
AcDbEntity
  8
0
100
AcDbBlockEnd
  0
BLOCK
  5
1F7
330
1F6
100
AcDbEntity
  8
0
100
AcDbBlockBegin
  2
*Paper_Space2
 70
0
 10
0.0
 20
0.0
 30
0.0
  3
*Paper_Space2
  1

  0
VIEWPORT
  5
1FA
330
1F6
100
AcDbEntity
 67
1
  8
VIEWPORTS
100
AcDbViewport
 10
210.0
 20
148.5
 30
0.0
 40
462.00000000000006
 41
326.70000000000005
 68
1
 69
1
 12
210.0
 22
148.5
 13
0.0
 23
0.0
 14
10.0
 24
10.0
 15
10.0
 25
10.0
 16
0.0
 26
0.0
 36
1.0
 17
0.0
 27
0.0
 37
0.0
 42
50.0
 43
0.0
 44
0.0
 45
326.70000000000005
 50
0.0
 51
0.0
 72
100
 90
557088
  1

281
0
 71
0
 74
0
110
0.0
120
0.0
130
0.0
111
1.0
121
0.0
131
0.0
112
0.0
122
1.0
132
0.0
 79
0
146
0.0
282
0
  0
LWPOLYLINE
  5
1FB
330
1F6
100
AcDbEntity
 67
1
  8
TITLEBLOCK
100
AcDbPolyline
 90
4
 70
1
 10
20.0
 20
10.0
 10
410.0
 20
10.0
 10
410.0
 20
287.0
 10
20.0
 20
287.0
  0
LWPOLYLINE
  5
1FC
330
1F6
100
AcDbEntity
 67
1
  8
TITLEBLOCK
100
AcDbPolyline
 90
4
 70
1
 10
230.0
 20
10.0
 10
410.0
 20
10.0
 10
410.0
 20
62.0
 10
230.0
 20
62.0
  0
LWPOLYLINE
  5
1FD
330
1F6
100
AcDbEntity
 67
1
  8
TITLEBLOCK
100
AcDbPolyline
 90
2
 70
0
 10
230.0
 20
22.0
 10
410.0
 20
22.0
  0
LWPOLYLINE
  5
1FE
330
1F6
100
AcDbEntity
 67
1
  8
TITLEBLOCK
100
AcDbPolyline
 90
2
 70
0
 10
230.0
 20
34.0
 10
410.0
 20
34.0
  0
LWPOLYLINE
  5
1FF
330
1F6
100
AcDbEntity
 67
1
  8
TITLEBLOCK
100
AcDbPolyline
 90
2
 70
0
 10
230.0
 20
48.0
 10
410.0
 20
48.0
  0
LWPOLYLINE
  5
200
330
1F6
100
AcDbEntity
 67
1
  8
TITLEBLOCK
100
AcDbPolyline
 90
2
 70
0
 10
350.0
 20
34.0
 10
350.0
 20
48.0
  0
TEXT
  5
201
330
1F6
100
AcDbEntity
 67
1
  8
TEXT
100
AcDbText
 10
231.2
 20
19.8
 30
0.0
 40
1.8
  1
SCALE
  7
ISO
 11
231.2
 21
19.8
 31
0.0
100
AcDbText
  0
TEXT
  5
202
330
1F6
100
AcDbEntity
 67
1
  8
TEXT
100
AcDbText
 10
244.0
 20
13.5
 30
0.0
 40
2.8
  1
NTS
  7
ISO
 72
1
 11
244.0
 21
13.5
 31
0.0
100
AcDbText
 73
2
  0
LWPOLYLINE
  5
203
330
1F6
100
AcDbEntity
 67
1
  8
TITLEBLOCK
100
AcDbPolyline
 90
2
 70
0
 10
258.0
 20
10.0
 10
258.0
 20
22.0
  0
TEXT
  5
204
330
1F6
100
AcDbEntity
 67
1
  8
TEXT
100
AcDbText
 10
259.2
 20
19.8
 30
0.0
 40
1.8
  1
SHEET
  7
ISO
 11
259.2
 21
19.8
 31
0.0
100
AcDbText
  0
TEXT
  5
205
330
1F6
100
AcDbEntity
 67
1
  8
TEXT
100
AcDbText
 10
272.0
 20
13.5
 30
0.0
 40
2.8
  1
3 / 3
  7
ISO
 72
1
 11
272.0
 21
13.5
 31
0.0
100
AcDbText
 73
2
  0
LWPOLYLINE
  5
206
330
1F6
100
AcDbEntity
 67
1
  8
TITLEBLOCK
100
AcDbPolyline
 90
2
 70
0
 10
286.0
 20
10.0
 10
286.0
 20
22.0
  0
TEXT
  5
207
330
1F6
100
AcDbEntity
 67
1
  8
TEXT
100
AcDbText
 10
287.2
 20
19.8
 30
0.0
 40
1.8
  1
UNITS
  7
ISO
 11
287.2
 21
19.8
 31
0.0
100
AcDbText
  0
TEXT
  5
208
330
1F6
100
AcDbEntity
 67
1
  8
TEXT
100
AcDbText
 10
298.0
 20
13.5
 30
0.0
 40
2.8
  1
-
  7
ISO
 72
1
 11
298.0
 21
13.5
 31
0.0
100
AcDbText
 73
2
  0
LWPOLYLINE
  5
209
330
1F6
100
AcDbEntity
 67
1
  8
TITLEBLOCK
100
AcDbPolyline
 90
2
 70
0
 10
310.0
 20
10.0
 10
310.0
 20
22.0
  0
TEXT
  5
20A
330
1F6
100
AcDbEntity
 67
1
  8
TEXT
100
AcDbText
 10
311.2
 20
19.8
 30
0.0
 40
1.8
  1
TYPE
  7
ISO
 11
311.2
 21
19.8
 31
0.0
100
AcDbText
  0
TEXT
  5
20B
330
1F6
100
AcDbEntity
 67
1
  8
TEXT
100
AcDbText
 10
328.0
 20
13.5
 30
0.0
 40
2.8
  1
SCHEMATIC
  7
ISO
 72
1
 11
328.0
 21
13.5
 31
0.0
100
AcDbText
 73
2
  0
LWPOLYLINE
  5
20C
330
1F6
100
AcDbEntity
 67
1
  8
TITLEBLOCK
100
AcDbPolyline
 90
2
 70
0
 10
346.0
 20
10.0
 10
346.0
 20
22.0
  0
TEXT
  5
20D
330
1F6
100
AcDbEntity
 67
1
  8
TEXT
100
AcDbText
 10
347.2
 20
19.8
 30
0.0
 40
1.8
  1
DATE
  7
ISO
 11
347.2
 21
19.8
 31
0.0
100
AcDbText
  0
TEXT
  5
20E
330
1F6
100
AcDbEntity
 67
1
  8
TEXT
100
AcDbText
 10
361.0
 20
13.5
 30
0.0
 40
2.8
  1
29/09/2026
  7
ISO
 72
1
 11
361.0
 21
13.5
 31
0.0
100
AcDbText
 73
2
  0
LWPOLYLINE
  5
20F
330
1F6
100
AcDbEntity
 67
1
  8
TITLEBLOCK
100
AcDbPolyline
 90
2
 70
0
 10
376.0
 20
10.0
 10
376.0
 20
22.0
  0
TEXT
  5
210
330
1F6
100
AcDbEntity
 67
1
  8
TEXT
100
AcDbText
 10
377.2
 20
19.8
 30
0.0
 40
1.8
  1
DRAWN
  7
ISO
 11
377.2
 21
19.8
 31
0.0
100
AcDbText
  0
TEXT
  5
211
330
1F6
100
AcDbEntity
 67
1
  8
TEXT
100
AcDbText
 10
393.0
 20
13.5
 30
0.0
 40
2.8
  1

  7
ISO
 72
1
 11
393.0
 21
13.5
 31
0.0
100
AcDbText
 73
2
  0
TEXT
  5
212
330
1F6
100
AcDbEntity
 67
1
  8
TEXT
100
AcDbText
 10
231.2
 20
59.5
 30
0.0
 40
1.8
  1
PROJECT
  7
ISO
 11
231.2
 21
59.5
 31
0.0
100
AcDbText
  0
TEXT
  5
213
330
1F6
100
AcDbEntity
 67
1
  8
TEXT
100
AcDbText
 10
320.0
 20
53.5
 30
0.0
 40
4.2
  1
AUTONOMOUS CARGO ROBOT - DESIGN v2
  7
ISO
 72
1
 11
320.0
 21
53.5
 31
0.0
100
AcDbText
 73
2
  0
TEXT
  5
214
330
1F6
100
AcDbEntity
 67
1
  8
TEXT
100
AcDbText
 10
231.2
 20
45.6
 30
0.0
 40
1.8
  1
TITLE
  7
ISO
 11
231.2
 21
45.6
 31
0.0
100
AcDbText
  0
TEXT
  5
215
330
1F6
100
AcDbEntity
 67
1
  8
TEXT
100
AcDbText
 10
290.0
 20
39.5
 30
0.0
 40
3.8
  1
CONTROL & SENSOR WIRING
  7
ISO
 72
1
 11
290.0
 21
39.5
 31
0.0
100
AcDbText
 73
2
  0
TEXT
  5
216
330
1F6
100
AcDbEntity
 67
1
  8
TEXT
100
AcDbText
 10
351.2
 20
45.6
 30
0.0
 40
1.8
  1
DWG No.
  7
ISO
 11
351.2
 21
45.6
 31
0.0
100
AcDbText
  0
TEXT
  5
217
330
1F6
100
AcDbEntity
 67
1
  8
TEXT
100
AcDbText
 10
380.0
 20
39.5
 30
0.0
 40
3.5
  1
CR-V2-E03
  7
ISO
 72
1
 11
380.0
 21
39.5
 31
0.0
100
AcDbText
 73
2
  0
TEXT
  5
218
330
1F6
100
AcDbEntity
 67
1
  8
TEXT
100
AcDbText
 10
320.0
 20
28.0
 30
0.0
 40
2.0
  1
ARAB ACADEMY FOR SCIENCE, TECHNOLOGY & MARITIME TRANSPORT - GRADUATION PROJECT II
  7
ISO
 72
1
 11
320.0
 21
28.0
 31
0.0
100
AcDbText
 73
2
  0
LWPOLYLINE
  5
219
330
1F6
100
AcDbEntity
 67
1
  8
SYMBOLS
100
AcDbPolyline
 90
4
 70
1
 10
186.0
 20
145.89999999999998
 10
204.0
 20
145.89999999999998
 10
204.0
 20
255.5
 10
186.0
 20
255.5
  0
TEXT
  5
21A
330
1F6
100
AcDbEntity
 67
1
  8
TEXT
100
AcDbText
 10
195.0
 20
261.0
 30
0.0
 40
2.5
  1
RASPBERRY PI 5 - 40-PIN HEADER
  7
ISO
 72
1
 11
195.0
 21
261.0
 31
0.0
100
AcDbText
 73
1
  0
TEXT
  5
21B
330
1F6
100
AcDbEntity
 67
1
  8
TEXT
100
AcDbText
 10
195.0
 20
257.0
 30
0.0
 40
1.7
  1
(via GPIO screw-terminal HAT)
  7
ISO
 72
1
 11
195.0
 21
257.0
 31
0.0
100
AcDbText
 73
1
  0
LWPOLYLINE
  5
21C
330
1F6
100
AcDbEntity
 67
1
  8
SYMBOLS
100
AcDbPolyline
 90
4
 70
1
 10
189.0
 20
250.0
 10
193.0
 20
250.0
 10
193.0
 20
254.0
 10
189.0
 20
254.0
  0
TEXT
  5
21D
330
1F6
100
AcDbEntity
 67
1
  8
TEXT
100
AcDbText
 10
191.0
 20
252.0
 30
0.0
 40
1.5
  1
1
  7
ISO
 72
1
 11
191.0
 21
252.0
 31
0.0
100
AcDbText
 73
2
  0
LWPOLYLINE
  5
21E
330
1F6
100
AcDbEntity
 67
1
  8
NET-3V3
100
AcDbPolyline
 90
2
 70
0
 10
186.0
 20
252.0
 10
150.0
 20
252.0
  0
TEXT
  5
21F
330
1F6
100
AcDbEntity
 67
1
  8
TEXT
 62
8
100
AcDbText
 10
184.0
 20
252.5
 30
0.0
 40
1.8
  1
3V3
  7
ISO
 72
2
 11
184.0
 21
252.5
 31
0.0
100
AcDbText
 73
1
  0
TEXT
  5
220
330
1F6
100
AcDbEntity
 67
1
  8
NET-3V3
100
AcDbText
 10
148.0
 20
252.0
 30
0.0
 40
2.3
  1
3V3_A
  7
ISO
 72
2
 11
148.0
 21
252.0
 31
0.0
100
AcDbText
 73
2
  0
LWPOLYLINE
  5
221
330
1F6
100
AcDbEntity
 67
1
  8
SYMBOLS
100
AcDbPolyline
 90
4
 70
1
 10
197.0
 20
250.0
 10
201.0
 20
250.0
 10
201.0
 20
254.0
 10
197.0
 20
254.0
  0
TEXT
  5
222
330
1F6
100
AcDbEntity
 67
1
  8
TEXT
100
AcDbText
 10
199.0
 20
252.0
 30
0.0
 40
1.5
  1
2
  7
ISO
 72
1
 11
199.0
 21
252.0
 31
0.0
100
AcDbText
 73
2
  0
TEXT
  5
223
330
1F6
100
AcDbEntity
 67
1
  8
TEXT
 62
8
100
AcDbText
 10
206.0
 20
252.0
 30
0.0
 40
1.8
  1
5V
  7
ISO
 11
206.0
 21
252.0
 31
0.0
100
AcDbText
 73
2
  0
LWPOLYLINE
  5
224
330
1F6
100
AcDbEntity
 67
1
  8
SYMBOLS
100
AcDbPolyline
 90
4
 70
1
 10
189.0
 20
244.6
 10
193.0
 20
244.6
 10
193.0
 20
248.6
 10
189.0
 20
248.6
  0
TEXT
  5
225
330
1F6
100
AcDbEntity
 67
1
  8
TEXT
100
AcDbText
 10
191.0
 20
246.6
 30
0.0
 40
1.5
  1
3
  7
ISO
 72
1
 11
191.0
 21
246.6
 31
0.0
100
AcDbText
 73
2
  0
TEXT
  5
226
330
1F6
100
AcDbEntity
 67
1
  8
TEXT
 62
8
100
AcDbText
 10
184.0
 20
246.6
 30
0.0
 40
1.8
  1
GPIO2
  7
ISO
 72
2
 11
184.0
 21
246.6
 31
0.0
100
AcDbText
 73
2
  0
LWPOLYLINE
  5
227
330
1F6
100
AcDbEntity
 67
1
  8
SYMBOLS
100
AcDbPolyline
 90
4
 70
1
 10
197.0
 20
244.6
 10
201.0
 20
244.6
 10
201.0
 20
248.6
 10
197.0
 20
248.6
  0
TEXT
  5
228
330
1F6
100
AcDbEntity
 67
1
  8
TEXT
100
AcDbText
 10
199.0
 20
246.6
 30
0.0
 40
1.5
  1
4
  7
ISO
 72
1
 11
199.0
 21
246.6
 31
0.0
100
AcDbText
 73
2
  0
TEXT
  5
229
330
1F6
100
AcDbEntity
 67
1
  8
TEXT
 62
8
100
AcDbText
 10
206.0
 20
246.6
 30
0.0
 40
1.8
  1
5V
  7
ISO
 11
206.0
 21
246.6
 31
0.0
100
AcDbText
 73
2
  0
LWPOLYLINE
  5
22A
330
1F6
100
AcDbEntity
 67
1
  8
SYMBOLS
100
AcDbPolyline
 90
4
 70
1
 10
189.0
 20
239.2
 10
193.0
 20
239.2
 10
193.0
 20
243.2
 10
189.0
 20
243.2
  0
TEXT
  5
22B
330
1F6
100
AcDbEntity
 67
1
  8
TEXT
100
AcDbText
 10
191.0
 20
241.2
 30
0.0
 40
1.5
  1
5
  7
ISO
 72
1
 11
191.0
 21
241.2
 31
0.0
100
AcDbText
 73
2
  0
TEXT
  5
22C
330
1F6
100
AcDbEntity
 67
1
  8
TEXT
 62
8
100
AcDbText
 10
184.0
 20
241.2
 30
0.0
 40
1.8
  1
GPIO3
  7
ISO
 72
2
 11
184.0
 21
241.2
 31
0.0
100
AcDbText
 73
2
  0
LWPOLYLINE
  5
22D
330
1F6
100
AcDbEntity
 67
1
  8
SYMBOLS
100
AcDbPolyline
 90
4
 70
1
 10
197.0
 20
239.2
 10
201.0
 20
239.2
 10
201.0
 20
243.2
 10
197.0
 20
243.2
  0
TEXT
  5
22E
330
1F6
100
AcDbEntity
 67
1
  8
TEXT
100
AcDbText
 10
199.0
 20
241.2
 30
0.0
 40
1.5
  1
6
  7
ISO
 72
1
 11
199.0
 21
241.2
 31
0.0
100
AcDbText
 73
2
  0
LWPOLYLINE
  5
22F
330
1F6
100
AcDbEntity
 67
1
  8
NET-GND
100
AcDbPolyline
 90
2
 70
0
 10
204.0
 20
241.2
 10
238.0
 20
241.2
  0
TEXT
  5
230
330
1F6
100
AcDbEntity
 67
1
  8
TEXT
 62
8
100
AcDbText
 10
206.0
 20
241.7
 30
0.0
 40
1.8
  1
GND
  7
ISO
 11
206.0
 21
241.7
 31
0.0
100
AcDbText
 73
1
  0
TEXT
  5
231
330
1F6
100
AcDbEntity
 67
1
  8
NET-GND
100
AcDbText
 10
240.0
 20
241.2
 30
0.0
 40
2.3
  1
GND
  7
ISO
 11
240.0
 21
241.2
 31
0.0
100
AcDbText
 73
2
  0
LWPOLYLINE
  5
232
330
1F6
100
AcDbEntity
 67
1
  8
SYMBOLS
100
AcDbPolyline
 90
4
 70
1
 10
189.0
 20
233.8
 10
193.0
 20
233.8
 10
193.0
 20
237.8
 10
189.0
 20
237.8
  0
TEXT
  5
233
330
1F6
100
AcDbEntity
 67
1
  8
TEXT
100
AcDbText
 10
191.0
 20
235.8
 30
0.0
 40
1.5
  1
7
  7
ISO
 72
1
 11
191.0
 21
235.8
 31
0.0
100
AcDbText
 73
2
  0
TEXT
  5
234
330
1F6
100
AcDbEntity
 67
1
  8
TEXT
 62
8
100
AcDbText
 10
184.0
 20
235.8
 30
0.0
 40
1.8
  1
GPIO4
  7
ISO
 72
2
 11
184.0
 21
235.8
 31
0.0
100
AcDbText
 73
2
  0
LWPOLYLINE
  5
235
330
1F6
100
AcDbEntity
 67
1
  8
SYMBOLS
100
AcDbPolyline
 90
4
 70
1
 10
197.0
 20
233.8
 10
201.0
 20
233.8
 10
201.0
 20
237.8
 10
197.0
 20
237.8
  0
TEXT
  5
236
330
1F6
100
AcDbEntity
 67
1
  8
TEXT
100
AcDbText
 10
199.0
 20
235.8
 30
0.0
 40
1.5
  1
8
  7
ISO
 72
1
 11
199.0
 21
235.8
 31
0.0
100
AcDbText
 73
2
  0
TEXT
  5
237
330
1F6
100
AcDbEntity
 67
1
  8
TEXT
 62
8
100
AcDbText
 10
206.0
 20
235.8
 30
0.0
 40
1.8
  1
GPIO14
  7
ISO
 11
206.0
 21
235.8
 31
0.0
100
AcDbText
 73
2
  0
LWPOLYLINE
  5
238
330
1F6
100
AcDbEntity
 67
1
  8
SYMBOLS
100
AcDbPolyline
 90
4
 70
1
 10
189.0
 20
228.4
 10
193.0
 20
228.4
 10
193.0
 20
232.4
 10
189.0
 20
232.4
  0
TEXT
  5
239
330
1F6
100
AcDbEntity
 67
1
  8
TEXT
100
AcDbText
 10
191.0
 20
230.4
 30
0.0
 40
1.5
  1
9
  7
ISO
 72
1
 11
191.0
 21
230.4
 31
0.0
100
AcDbText
 73
2
  0
LWPOLYLINE
  5
23A
330
1F6
100
AcDbEntity
 67
1
  8
NET-GND
100
AcDbPolyline
 90
2
 70
0
 10
186.0
 20
230.4
 10
150.0
 20
230.4
  0
TEXT
  5
23B
330
1F6
100
AcDbEntity
 67
1
  8
TEXT
 62
8
100
AcDbText
 10
184.0
 20
230.9
 30
0.0
 40
1.8
  1
GND
  7
ISO
 72
2
 11
184.0
 21
230.9
 31
0.0
100
AcDbText
 73
1
  0
TEXT
  5
23C
330
1F6
100
AcDbEntity
 67
1
  8
NET-GND
100
AcDbText
 10
148.0
 20
230.4
 30
0.0
 40
2.3
  1
GND
  7
ISO
 72
2
 11
148.0
 21
230.4
 31
0.0
100
AcDbText
 73
2
  0
LWPOLYLINE
  5
23D
330
1F6
100
AcDbEntity
 67
1
  8
SYMBOLS
100
AcDbPolyline
 90
4
 70
1
 10
197.0
 20
228.4
 10
201.0
 20
228.4
 10
201.0
 20
232.4
 10
197.0
 20
232.4
  0
TEXT
  5
23E
330
1F6
100
AcDbEntity
 67
1
  8
TEXT
100
AcDbText
 10
199.0
 20
230.4
 30
0.0
 40
1.5
  1
10
  7
ISO
 72
1
 11
199.0
 21
230.4
 31
0.0
100
AcDbText
 73
2
  0
TEXT
  5
23F
330
1F6
100
AcDbEntity
 67
1
  8
TEXT
 62
8
100
AcDbText
 10
206.0
 20
230.4
 30
0.0
 40
1.8
  1
GPIO15
  7
ISO
 11
206.0
 21
230.4
 31
0.0
100
AcDbText
 73
2
  0
LWPOLYLINE
  5
240
330
1F6
100
AcDbEntity
 67
1
  8
SYMBOLS
100
AcDbPolyline
 90
4
 70
1
 10
189.0
 20
223.0
 10
193.0
 20
223.0
 10
193.0
 20
227.0
 10
189.0
 20
227.0
  0
TEXT
  5
241
330
1F6
100
AcDbEntity
 67
1
  8
TEXT
100
AcDbText
 10
191.0
 20
225.0
 30
0.0
 40
1.5
  1
11
  7
ISO
 72
1
 11
191.0
 21
225.0
 31
0.0
100
AcDbText
 73
2
  0
LWPOLYLINE
  5
242
330
1F6
100
AcDbEntity
 67
1
  8
NET-SIGNAL
100
AcDbPolyline
 90
2
 70
0
 10
186.0
 20
225.0
 10
150.0
 20
225.0
  0
TEXT
  5
243
330
1F6
100
AcDbEntity
 67
1
  8
TEXT
 62
8
100
AcDbText
 10
184.0
 20
225.5
 30
0.0
 40
1.8
  1
GPIO17
  7
ISO
 72
2
 11
184.0
 21
225.5
 31
0.0
100
AcDbText
 73
1
  0
TEXT
  5
244
330
1F6
100
AcDbEntity
 67
1
  8
NET-SIGNAL
100
AcDbText
 10
148.0
 20
225.0
 30
0.0
 40
2.3
  1
ENC_L_A
  7
ISO
 72
2
 11
148.0
 21
225.0
 31
0.0
100
AcDbText
 73
2
  0
LWPOLYLINE
  5
245
330
1F6
100
AcDbEntity
 67
1
  8
SYMBOLS
100
AcDbPolyline
 90
4
 70
1
 10
197.0
 20
223.0
 10
201.0
 20
223.0
 10
201.0
 20
227.0
 10
197.0
 20
227.0
  0
TEXT
  5
246
330
1F6
100
AcDbEntity
 67
1
  8
TEXT
100
AcDbText
 10
199.0
 20
225.0
 30
0.0
 40
1.5
  1
12
  7
ISO
 72
1
 11
199.0
 21
225.0
 31
0.0
100
AcDbText
 73
2
  0
LWPOLYLINE
  5
247
330
1F6
100
AcDbEntity
 67
1
  8
NET-SIGNAL
100
AcDbPolyline
 90
2
 70
0
 10
204.0
 20
225.0
 10
238.0
 20
225.0
  0
TEXT
  5
248
330
1F6
100
AcDbEntity
 67
1
  8
TEXT
 62
8
100
AcDbText
 10
206.0
 20
225.5
 30
0.0
 40
1.8
  1
GPIO18
  7
ISO
 11
206.0
 21
225.5
 31
0.0
100
AcDbText
 73
1
  0
TEXT
  5
249
330
1F6
100
AcDbEntity
 67
1
  8
NET-SIGNAL
100
AcDbText
 10
240.0
 20
225.0
 30
0.0
 40
2.3
  1
R_RPWM
  7
ISO
 11
240.0
 21
225.0
 31
0.0
100
AcDbText
 73
2
  0
LWPOLYLINE
  5
24A
330
1F6
100
AcDbEntity
 67
1
  8
SYMBOLS
100
AcDbPolyline
 90
4
 70
1
 10
189.0
 20
217.6
 10
193.0
 20
217.6
 10
193.0
 20
221.6
 10
189.0
 20
221.6
  0
TEXT
  5
24B
330
1F6
100
AcDbEntity
 67
1
  8
TEXT
100
AcDbText
 10
191.0
 20
219.6
 30
0.0
 40
1.5
  1
13
  7
ISO
 72
1
 11
191.0
 21
219.6
 31
0.0
100
AcDbText
 73
2
  0
LWPOLYLINE
  5
24C
330
1F6
100
AcDbEntity
 67
1
  8
NET-SIGNAL
100
AcDbPolyline
 90
2
 70
0
 10
186.0
 20
219.6
 10
150.0
 20
219.6
  0
TEXT
  5
24D
330
1F6
100
AcDbEntity
 67
1
  8
TEXT
 62
8
100
AcDbText
 10
184.0
 20
220.1
 30
0.0
 40
1.8
  1
GPIO27
  7
ISO
 72
2
 11
184.0
 21
220.1
 31
0.0
100
AcDbText
 73
1
  0
TEXT
  5
24E
330
1F6
100
AcDbEntity
 67
1
  8
NET-SIGNAL
100
AcDbText
 10
148.0
 20
219.6
 30
0.0
 40
2.3
  1
ENC_L_B
  7
ISO
 72
2
 11
148.0
 21
219.6
 31
0.0
100
AcDbText
 73
2
  0
LWPOLYLINE
  5
24F
330
1F6
100
AcDbEntity
 67
1
  8
SYMBOLS
100
AcDbPolyline
 90
4
 70
1
 10
197.0
 20
217.6
 10
201.0
 20
217.6
 10
201.0
 20
221.6
 10
197.0
 20
221.6
  0
TEXT
  5
250
330
1F6
100
AcDbEntity
 67
1
  8
TEXT
100
AcDbText
 10
199.0
 20
219.6
 30
0.0
 40
1.5
  1
14
  7
ISO
 72
1
 11
199.0
 21
219.6
 31
0.0
100
AcDbText
 73
2
  0
TEXT
  5
251
330
1F6
100
AcDbEntity
 67
1
  8
TEXT
 62
8
100
AcDbText
 10
206.0
 20
219.6
 30
0.0
 40
1.8
  1
GND
  7
ISO
 11
206.0
 21
219.6
 31
0.0
100
AcDbText
 73
2
  0
LWPOLYLINE
  5
252
330
1F6
100
AcDbEntity
 67
1
  8
SYMBOLS
100
AcDbPolyline
 90
4
 70
1
 10
189.0
 20
212.2
 10
193.0
 20
212.2
 10
193.0
 20
216.2
 10
189.0
 20
216.2
  0
TEXT
  5
253
330
1F6
100
AcDbEntity
 67
1
  8
TEXT
100
AcDbText
 10
191.0
 20
214.2
 30
0.0
 40
1.5
  1
15
  7
ISO
 72
1
 11
191.0
 21
214.2
 31
0.0
100
AcDbText
 73
2
  0
LWPOLYLINE
  5
254
330
1F6
100
AcDbEntity
 67
1
  8
NET-SIGNAL
100
AcDbPolyline
 90
2
 70
0
 10
186.0
 20
214.2
 10
150.0
 20
214.2
  0
TEXT
  5
255
330
1F6
100
AcDbEntity
 67
1
  8
TEXT
 62
8
100
AcDbText
 10
184.0
 20
214.7
 30
0.0
 40
1.8
  1
GPIO22
  7
ISO
 72
2
 11
184.0
 21
214.7
 31
0.0
100
AcDbText
 73
1
  0
TEXT
  5
256
330
1F6
100
AcDbEntity
 67
1
  8
NET-SIGNAL
100
AcDbText
 10
148.0
 20
214.2
 30
0.0
 40
2.3
  1
ENC_R_A
  7
ISO
 72
2
 11
148.0
 21
214.2
 31
0.0
100
AcDbText
 73
2
  0
LWPOLYLINE
  5
257
330
1F6
100
AcDbEntity
 67
1
  8
SYMBOLS
100
AcDbPolyline
 90
4
 70
1
 10
197.0
 20
212.2
 10
201.0
 20
212.2
 10
201.0
 20
216.2
 10
197.0
 20
216.2
  0
TEXT
  5
258
330
1F6
100
AcDbEntity
 67
1
  8
TEXT
100
AcDbText
 10
199.0
 20
214.2
 30
0.0
 40
1.5
  1
16
  7
ISO
 72
1
 11
199.0
 21
214.2
 31
0.0
100
AcDbText
 73
2
  0
LWPOLYLINE
  5
259
330
1F6
100
AcDbEntity
 67
1
  8
NET-SIGNAL
100
AcDbPolyline
 90
2
 70
0
 10
204.0
 20
214.2
 10
238.0
 20
214.2
  0
TEXT
  5
25A
330
1F6
100
AcDbEntity
 67
1
  8
TEXT
 62
8
100
AcDbText
 10
206.0
 20
214.7
 30
0.0
 40
1.8
  1
GPIO23
  7
ISO
 11
206.0
 21
214.7
 31
0.0
100
AcDbText
 73
1
  0
TEXT
  5
25B
330
1F6
100
AcDbEntity
 67
1
  8
NET-SIGNAL
100
AcDbText
 10
240.0
 20
214.2
 30
0.0
 40
2.3
  1
ENC_R_B
  7
ISO
 11
240.0
 21
214.2
 31
0.0
100
AcDbText
 73
2
  0
LWPOLYLINE
  5
25C
330
1F6
100
AcDbEntity
 67
1
  8
SYMBOLS
100
AcDbPolyline
 90
4
 70
1
 10
189.0
 20
206.8
 10
193.0
 20
206.8
 10
193.0
 20
210.8
 10
189.0
 20
210.8
  0
TEXT
  5
25D
330
1F6
100
AcDbEntity
 67
1
  8
TEXT
100
AcDbText
 10
191.0
 20
208.8
 30
0.0
 40
1.5
  1
17
  7
ISO
 72
1
 11
191.0
 21
208.8
 31
0.0
100
AcDbText
 73
2
  0
LWPOLYLINE
  5
25E
330
1F6
100
AcDbEntity
 67
1
  8
NET-3V3
100
AcDbPolyline
 90
2
 70
0
 10
186.0
 20
208.8
 10
150.0
 20
208.8
  0
TEXT
  5
25F
330
1F6
100
AcDbEntity
 67
1
  8
TEXT
 62
8
100
AcDbText
 10
184.0
 20
209.3
 30
0.0
 40
1.8
  1
3V3
  7
ISO
 72
2
 11
184.0
 21
209.3
 31
0.0
100
AcDbText
 73
1
  0
TEXT
  5
260
330
1F6
100
AcDbEntity
 67
1
  8
NET-3V3
100
AcDbText
 10
148.0
 20
208.8
 30
0.0
 40
2.3
  1
3V3_B
  7
ISO
 72
2
 11
148.0
 21
208.8
 31
0.0
100
AcDbText
 73
2
  0
LWPOLYLINE
  5
261
330
1F6
100
AcDbEntity
 67
1
  8
SYMBOLS
100
AcDbPolyline
 90
4
 70
1
 10
197.0
 20
206.8
 10
201.0
 20
206.8
 10
201.0
 20
210.8
 10
197.0
 20
210.8
  0
TEXT
  5
262
330
1F6
100
AcDbEntity
 67
1
  8
TEXT
100
AcDbText
 10
199.0
 20
208.8
 30
0.0
 40
1.5
  1
18
  7
ISO
 72
1
 11
199.0
 21
208.8
 31
0.0
100
AcDbText
 73
2
  0
LWPOLYLINE
  5
263
330
1F6
100
AcDbEntity
 67
1
  8
NET-SIGNAL
100
AcDbPolyline
 90
2
 70
0
 10
204.0
 20
208.8
 10
238.0
 20
208.8
  0
TEXT
  5
264
330
1F6
100
AcDbEntity
 67
1
  8
TEXT
 62
8
100
AcDbText
 10
206.0
 20
209.3
 30
0.0
 40
1.8
  1
GPIO24
  7
ISO
 11
206.0
 21
209.3
 31
0.0
100
AcDbText
 73
1
  0
TEXT
  5
265
330
1F6
100
AcDbEntity
 67
1
  8
NET-SIGNAL
100
AcDbText
 10
240.0
 20
208.8
 30
0.0
 40
2.3
  1
HX_SCK
  7
ISO
 11
240.0
 21
208.8
 31
0.0
100
AcDbText
 73
2
  0
LWPOLYLINE
  5
266
330
1F6
100
AcDbEntity
 67
1
  8
SYMBOLS
100
AcDbPolyline
 90
4
 70
1
 10
189.0
 20
201.4
 10
193.0
 20
201.4
 10
193.0
 20
205.4
 10
189.0
 20
205.4
  0
TEXT
  5
267
330
1F6
100
AcDbEntity
 67
1
  8
TEXT
100
AcDbText
 10
191.0
 20
203.4
 30
0.0
 40
1.5
  1
19
  7
ISO
 72
1
 11
191.0
 21
203.4
 31
0.0
100
AcDbText
 73
2
  0
TEXT
  5
268
330
1F6
100
AcDbEntity
 67
1
  8
TEXT
 62
8
100
AcDbText
 10
184.0
 20
203.4
 30
0.0
 40
1.8
  1
GPIO10
  7
ISO
 72
2
 11
184.0
 21
203.4
 31
0.0
100
AcDbText
 73
2
  0
LWPOLYLINE
  5
269
330
1F6
100
AcDbEntity
 67
1
  8
SYMBOLS
100
AcDbPolyline
 90
4
 70
1
 10
197.0
 20
201.4
 10
201.0
 20
201.4
 10
201.0
 20
205.4
 10
197.0
 20
205.4
  0
TEXT
  5
26A
330
1F6
100
AcDbEntity
 67
1
  8
TEXT
100
AcDbText
 10
199.0
 20
203.4
 30
0.0
 40
1.5
  1
20
  7
ISO
 72
1
 11
199.0
 21
203.4
 31
0.0
100
AcDbText
 73
2
  0
TEXT
  5
26B
330
1F6
100
AcDbEntity
 67
1
  8
TEXT
 62
8
100
AcDbText
 10
206.0
 20
203.4
 30
0.0
 40
1.8
  1
GND
  7
ISO
 11
206.0
 21
203.4
 31
0.0
100
AcDbText
 73
2
  0
LWPOLYLINE
  5
26C
330
1F6
100
AcDbEntity
 67
1
  8
SYMBOLS
100
AcDbPolyline
 90
4
 70
1
 10
189.0
 20
196.0
 10
193.0
 20
196.0
 10
193.0
 20
200.0
 10
189.0
 20
200.0
  0
TEXT
  5
26D
330
1F6
100
AcDbEntity
 67
1
  8
TEXT
100
AcDbText
 10
191.0
 20
198.0
 30
0.0
 40
1.5
  1
21
  7
ISO
 72
1
 11
191.0
 21
198.0
 31
0.0
100
AcDbText
 73
2
  0
TEXT
  5
26E
330
1F6
100
AcDbEntity
 67
1
  8
TEXT
 62
8
100
AcDbText
 10
184.0
 20
198.0
 30
0.0
 40
1.8
  1
GPIO9
  7
ISO
 72
2
 11
184.0
 21
198.0
 31
0.0
100
AcDbText
 73
2
  0
LWPOLYLINE
  5
26F
330
1F6
100
AcDbEntity
 67
1
  8
SYMBOLS
100
AcDbPolyline
 90
4
 70
1
 10
197.0
 20
196.0
 10
201.0
 20
196.0
 10
201.0
 20
200.0
 10
197.0
 20
200.0
  0
TEXT
  5
270
330
1F6
100
AcDbEntity
 67
1
  8
TEXT
100
AcDbText
 10
199.0
 20
198.0
 30
0.0
 40
1.5
  1
22
  7
ISO
 72
1
 11
199.0
 21
198.0
 31
0.0
100
AcDbText
 73
2
  0
LWPOLYLINE
  5
271
330
1F6
100
AcDbEntity
 67
1
  8
NET-SIGNAL
100
AcDbPolyline
 90
2
 70
0
 10
204.0
 20
198.0
 10
238.0
 20
198.0
  0
TEXT
  5
272
330
1F6
100
AcDbEntity
 67
1
  8
TEXT
 62
8
100
AcDbText
 10
206.0
 20
198.5
 30
0.0
 40
1.8
  1
GPIO25
  7
ISO
 11
206.0
 21
198.5
 31
0.0
100
AcDbText
 73
1
  0
TEXT
  5
273
330
1F6
100
AcDbEntity
 67
1
  8
NET-SIGNAL
100
AcDbText
 10
240.0
 20
198.0
 30
0.0
 40
2.3
  1
HX_FL_DT
  7
ISO
 11
240.0
 21
198.0
 31
0.0
100
AcDbText
 73
2
  0
LWPOLYLINE
  5
274
330
1F6
100
AcDbEntity
 67
1
  8
SYMBOLS
100
AcDbPolyline
 90
4
 70
1
 10
189.0
 20
190.6
 10
193.0
 20
190.6
 10
193.0
 20
194.6
 10
189.0
 20
194.6
  0
TEXT
  5
275
330
1F6
100
AcDbEntity
 67
1
  8
TEXT
100
AcDbText
 10
191.0
 20
192.6
 30
0.0
 40
1.5
  1
23
  7
ISO
 72
1
 11
191.0
 21
192.6
 31
0.0
100
AcDbText
 73
2
  0
TEXT
  5
276
330
1F6
100
AcDbEntity
 67
1
  8
TEXT
 62
8
100
AcDbText
 10
184.0
 20
192.6
 30
0.0
 40
1.8
  1
GPIO11
  7
ISO
 72
2
 11
184.0
 21
192.6
 31
0.0
100
AcDbText
 73
2
  0
LWPOLYLINE
  5
277
330
1F6
100
AcDbEntity
 67
1
  8
SYMBOLS
100
AcDbPolyline
 90
4
 70
1
 10
197.0
 20
190.6
 10
201.0
 20
190.6
 10
201.0
 20
194.6
 10
197.0
 20
194.6
  0
TEXT
  5
278
330
1F6
100
AcDbEntity
 67
1
  8
TEXT
100
AcDbText
 10
199.0
 20
192.6
 30
0.0
 40
1.5
  1
24
  7
ISO
 72
1
 11
199.0
 21
192.6
 31
0.0
100
AcDbText
 73
2
  0
TEXT
  5
279
330
1F6
100
AcDbEntity
 67
1
  8
TEXT
 62
8
100
AcDbText
 10
206.0
 20
192.6
 30
0.0
 40
1.8
  1
GPIO8
  7
ISO
 11
206.0
 21
192.6
 31
0.0
100
AcDbText
 73
2
  0
LWPOLYLINE
  5
27A
330
1F6
100
AcDbEntity
 67
1
  8
SYMBOLS
100
AcDbPolyline
 90
4
 70
1
 10
189.0
 20
185.2
 10
193.0
 20
185.2
 10
193.0
 20
189.2
 10
189.0
 20
189.2
  0
TEXT
  5
27B
330
1F6
100
AcDbEntity
 67
1
  8
TEXT
100
AcDbText
 10
191.0
 20
187.2
 30
0.0
 40
1.5
  1
25
  7
ISO
 72
1
 11
191.0
 21
187.2
 31
0.0
100
AcDbText
 73
2
  0
TEXT
  5
27C
330
1F6
100
AcDbEntity
 67
1
  8
TEXT
 62
8
100
AcDbText
 10
184.0
 20
187.2
 30
0.0
 40
1.8
  1
GND
  7
ISO
 72
2
 11
184.0
 21
187.2
 31
0.0
100
AcDbText
 73
2
  0
LWPOLYLINE
  5
27D
330
1F6
100
AcDbEntity
 67
1
  8
SYMBOLS
100
AcDbPolyline
 90
4
 70
1
 10
197.0
 20
185.2
 10
201.0
 20
185.2
 10
201.0
 20
189.2
 10
197.0
 20
189.2
  0
TEXT
  5
27E
330
1F6
100
AcDbEntity
 67
1
  8
TEXT
100
AcDbText
 10
199.0
 20
187.2
 30
0.0
 40
1.5
  1
26
  7
ISO
 72
1
 11
199.0
 21
187.2
 31
0.0
100
AcDbText
 73
2
  0
TEXT
  5
27F
330
1F6
100
AcDbEntity
 67
1
  8
TEXT
 62
8
100
AcDbText
 10
206.0
 20
187.2
 30
0.0
 40
1.8
  1
GPIO7
  7
ISO
 11
206.0
 21
187.2
 31
0.0
100
AcDbText
 73
2
  0
LWPOLYLINE
  5
280
330
1F6
100
AcDbEntity
 67
1
  8
SYMBOLS
100
AcDbPolyline
 90
4
 70
1
 10
189.0
 20
179.8
 10
193.0
 20
179.8
 10
193.0
 20
183.8
 10
189.0
 20
183.8
  0
TEXT
  5
281
330
1F6
100
AcDbEntity
 67
1
  8
TEXT
100
AcDbText
 10
191.0
 20
181.8
 30
0.0
 40
1.5
  1
27
  7
ISO
 72
1
 11
191.0
 21
181.8
 31
0.0
100
AcDbText
 73
2
  0
TEXT
  5
282
330
1F6
100
AcDbEntity
 67
1
  8
TEXT
 62
8
100
AcDbText
 10
184.0
 20
181.8
 30
0.0
 40
1.8
  1
GPIO0
  7
ISO
 72
2
 11
184.0
 21
181.8
 31
0.0
100
AcDbText
 73
2
  0
LWPOLYLINE
  5
283
330
1F6
100
AcDbEntity
 67
1
  8
SYMBOLS
100
AcDbPolyline
 90
4
 70
1
 10
197.0
 20
179.8
 10
201.0
 20
179.8
 10
201.0
 20
183.8
 10
197.0
 20
183.8
  0
TEXT
  5
284
330
1F6
100
AcDbEntity
 67
1
  8
TEXT
100
AcDbText
 10
199.0
 20
181.8
 30
0.0
 40
1.5
  1
28
  7
ISO
 72
1
 11
199.0
 21
181.8
 31
0.0
100
AcDbText
 73
2
  0
TEXT
  5
285
330
1F6
100
AcDbEntity
 67
1
  8
TEXT
 62
8
100
AcDbText
 10
206.0
 20
181.8
 30
0.0
 40
1.8
  1
GPIO1
  7
ISO
 11
206.0
 21
181.8
 31
0.0
100
AcDbText
 73
2
  0
LWPOLYLINE
  5
286
330
1F6
100
AcDbEntity
 67
1
  8
SYMBOLS
100
AcDbPolyline
 90
4
 70
1
 10
189.0
 20
174.39999999999998
 10
193.0
 20
174.39999999999998
 10
193.0
 20
178.39999999999998
 10
189.0
 20
178.39999999999998
  0
TEXT
  5
287
330
1F6
100
AcDbEntity
 67
1
  8
TEXT
100
AcDbText
 10
191.0
 20
176.39999999999998
 30
0.0
 40
1.5
  1
29
  7
ISO
 72
1
 11
191.0
 21
176.39999999999998
 31
0.0
100
AcDbText
 73
2
  0
LWPOLYLINE
  5
288
330
1F6
100
AcDbEntity
 67
1
  8
NET-SIGNAL
100
AcDbPolyline
 90
2
 70
0
 10
186.0
 20
176.39999999999998
 10
150.0
 20
176.39999999999998
  0
TEXT
  5
289
330
1F6
100
AcDbEntity
 67
1
  8
TEXT
 62
8
100
AcDbText
 10
184.0
 20
176.89999999999998
 30
0.0
 40
1.8
  1
GPIO5
  7
ISO
 72
2
 11
184.0
 21
176.89999999999998
 31
0.0
100
AcDbText
 73
1
  0
TEXT
  5
28A
330
1F6
100
AcDbEntity
 67
1
  8
NET-SIGNAL
100
AcDbText
 10
148.0
 20
176.39999999999998
 30
0.0
 40
2.3
  1
MOTOR_EN
  7
ISO
 72
2
 11
148.0
 21
176.39999999999998
 31
0.0
100
AcDbText
 73
2
  0
LWPOLYLINE
  5
28B
330
1F6
100
AcDbEntity
 67
1
  8
SYMBOLS
100
AcDbPolyline
 90
4
 70
1
 10
197.0
 20
174.39999999999998
 10
201.0
 20
174.39999999999998
 10
201.0
 20
178.39999999999998
 10
197.0
 20
178.39999999999998
  0
TEXT
  5
28C
330
1F6
100
AcDbEntity
 67
1
  8
TEXT
100
AcDbText
 10
199.0
 20
176.39999999999998
 30
0.0
 40
1.5
  1
30
  7
ISO
 72
1
 11
199.0
 21
176.39999999999998
 31
0.0
100
AcDbText
 73
2
  0
TEXT
  5
28D
330
1F6
100
AcDbEntity
 67
1
  8
TEXT
 62
8
100
AcDbText
 10
206.0
 20
176.39999999999998
 30
0.0
 40
1.8
  1
GND
  7
ISO
 11
206.0
 21
176.39999999999998
 31
0.0
100
AcDbText
 73
2
  0
LWPOLYLINE
  5
28E
330
1F6
100
AcDbEntity
 67
1
  8
SYMBOLS
100
AcDbPolyline
 90
4
 70
1
 10
189.0
 20
169.0
 10
193.0
 20
169.0
 10
193.0
 20
173.0
 10
189.0
 20
173.0
  0
TEXT
  5
28F
330
1F6
100
AcDbEntity
 67
1
  8
TEXT
100
AcDbText
 10
191.0
 20
171.0
 30
0.0
 40
1.5
  1
31
  7
ISO
 72
1
 11
191.0
 21
171.0
 31
0.0
100
AcDbText
 73
2
  0
TEXT
  5
290
330
1F6
100
AcDbEntity
 67
1
  8
TEXT
 62
8
100
AcDbText
 10
184.0
 20
171.0
 30
0.0
 40
1.8
  1
GPIO6
  7
ISO
 72
2
 11
184.0
 21
171.0
 31
0.0
100
AcDbText
 73
2
  0
LWPOLYLINE
  5
291
330
1F6
100
AcDbEntity
 67
1
  8
SYMBOLS
100
AcDbPolyline
 90
4
 70
1
 10
197.0
 20
169.0
 10
201.0
 20
169.0
 10
201.0
 20
173.0
 10
197.0
 20
173.0
  0
TEXT
  5
292
330
1F6
100
AcDbEntity
 67
1
  8
TEXT
100
AcDbText
 10
199.0
 20
171.0
 30
0.0
 40
1.5
  1
32
  7
ISO
 72
1
 11
199.0
 21
171.0
 31
0.0
100
AcDbText
 73
2
  0
LWPOLYLINE
  5
293
330
1F6
100
AcDbEntity
 67
1
  8
NET-SIGNAL
100
AcDbPolyline
 90
2
 70
0
 10
204.0
 20
171.0
 10
238.0
 20
171.0
  0
TEXT
  5
294
330
1F6
100
AcDbEntity
 67
1
  8
TEXT
 62
8
100
AcDbText
 10
206.0
 20
171.5
 30
0.0
 40
1.8
  1
GPIO12
  7
ISO
 11
206.0
 21
171.5
 31
0.0
100
AcDbText
 73
1
  0
TEXT
  5
295
330
1F6
100
AcDbEntity
 67
1
  8
NET-SIGNAL
100
AcDbText
 10
240.0
 20
171.0
 30
0.0
 40
2.3
  1
L_RPWM
  7
ISO
 11
240.0
 21
171.0
 31
0.0
100
AcDbText
 73
2
  0
LWPOLYLINE
  5
296
330
1F6
100
AcDbEntity
 67
1
  8
SYMBOLS
100
AcDbPolyline
 90
4
 70
1
 10
189.0
 20
163.6
 10
193.0
 20
163.6
 10
193.0
 20
167.6
 10
189.0
 20
167.6
  0
TEXT
  5
297
330
1F6
100
AcDbEntity
 67
1
  8
TEXT
100
AcDbText
 10
191.0
 20
165.6
 30
0.0
 40
1.5
  1
33
  7
ISO
 72
1
 11
191.0
 21
165.6
 31
0.0
100
AcDbText
 73
2
  0
LWPOLYLINE
  5
298
330
1F6
100
AcDbEntity
 67
1
  8
NET-SIGNAL
100
AcDbPolyline
 90
2
 70
0
 10
186.0
 20
165.6
 10
150.0
 20
165.6
  0
TEXT
  5
299
330
1F6
100
AcDbEntity
 67
1
  8
TEXT
 62
8
100
AcDbText
 10
184.0
 20
166.1
 30
0.0
 40
1.8
  1
GPIO13
  7
ISO
 72
2
 11
184.0
 21
166.1
 31
0.0
100
AcDbText
 73
1
  0
TEXT
  5
29A
330
1F6
100
AcDbEntity
 67
1
  8
NET-SIGNAL
100
AcDbText
 10
148.0
 20
165.6
 30
0.0
 40
2.3
  1
L_LPWM
  7
ISO
 72
2
 11
148.0
 21
165.6
 31
0.0
100
AcDbText
 73
2
  0
LWPOLYLINE
  5
29B
330
1F6
100
AcDbEntity
 67
1
  8
SYMBOLS
100
AcDbPolyline
 90
4
 70
1
 10
197.0
 20
163.6
 10
201.0
 20
163.6
 10
201.0
 20
167.6
 10
197.0
 20
167.6
  0
TEXT
  5
29C
330
1F6
100
AcDbEntity
 67
1
  8
TEXT
100
AcDbText
 10
199.0
 20
165.6
 30
0.0
 40
1.5
  1
34
  7
ISO
 72
1
 11
199.0
 21
165.6
 31
0.0
100
AcDbText
 73
2
  0
TEXT
  5
29D
330
1F6
100
AcDbEntity
 67
1
  8
TEXT
 62
8
100
AcDbText
 10
206.0
 20
165.6
 30
0.0
 40
1.8
  1
GND
  7
ISO
 11
206.0
 21
165.6
 31
0.0
100
AcDbText
 73
2
  0
LWPOLYLINE
  5
29E
330
1F6
100
AcDbEntity
 67
1
  8
SYMBOLS
100
AcDbPolyline
 90
4
 70
1
 10
189.0
 20
158.2
 10
193.0
 20
158.2
 10
193.0
 20
162.2
 10
189.0
 20
162.2
  0
TEXT
  5
29F
330
1F6
100
AcDbEntity
 67
1
  8
TEXT
100
AcDbText
 10
191.0
 20
160.2
 30
0.0
 40
1.5
  1
35
  7
ISO
 72
1
 11
191.0
 21
160.2
 31
0.0
100
AcDbText
 73
2
  0
LWPOLYLINE
  5
2A0
330
1F6
100
AcDbEntity
 67
1
  8
NET-SIGNAL
100
AcDbPolyline
 90
2
 70
0
 10
186.0
 20
160.2
 10
150.0
 20
160.2
  0
TEXT
  5
2A1
330
1F6
100
AcDbEntity
 67
1
  8
TEXT
 62
8
100
AcDbText
 10
184.0
 20
160.7
 30
0.0
 40
1.8
  1
GPIO19
  7
ISO
 72
2
 11
184.0
 21
160.7
 31
0.0
100
AcDbText
 73
1
  0
TEXT
  5
2A2
330
1F6
100
AcDbEntity
 67
1
  8
NET-SIGNAL
100
AcDbText
 10
148.0
 20
160.2
 30
0.0
 40
2.3
  1
R_LPWM
  7
ISO
 72
2
 11
148.0
 21
160.2
 31
0.0
100
AcDbText
 73
2
  0
LWPOLYLINE
  5
2A3
330
1F6
100
AcDbEntity
 67
1
  8
SYMBOLS
100
AcDbPolyline
 90
4
 70
1
 10
197.0
 20
158.2
 10
201.0
 20
158.2
 10
201.0
 20
162.2
 10
197.0
 20
162.2
  0
TEXT
  5
2A4
330
1F6
100
AcDbEntity
 67
1
  8
TEXT
100
AcDbText
 10
199.0
 20
160.2
 30
0.0
 40
1.5
  1
36
  7
ISO
 72
1
 11
199.0
 21
160.2
 31
0.0
100
AcDbText
 73
2
  0
LWPOLYLINE
  5
2A5
330
1F6
100
AcDbEntity
 67
1
  8
NET-SIGNAL
100
AcDbPolyline
 90
2
 70
0
 10
204.0
 20
160.2
 10
238.0
 20
160.2
  0
TEXT
  5
2A6
330
1F6
100
AcDbEntity
 67
1
  8
TEXT
 62
8
100
AcDbText
 10
206.0
 20
160.7
 30
0.0
 40
1.8
  1
GPIO16
  7
ISO
 11
206.0
 21
160.7
 31
0.0
100
AcDbText
 73
1
  0
TEXT
  5
2A7
330
1F6
100
AcDbEntity
 67
1
  8
NET-SIGNAL
100
AcDbText
 10
240.0
 20
160.2
 30
0.0
 40
2.3
  1
HX_FR_DT
  7
ISO
 11
240.0
 21
160.2
 31
0.0
100
AcDbText
 73
2
  0
LWPOLYLINE
  5
2A8
330
1F6
100
AcDbEntity
 67
1
  8
SYMBOLS
100
AcDbPolyline
 90
4
 70
1
 10
189.0
 20
152.8
 10
193.0
 20
152.8
 10
193.0
 20
156.8
 10
189.0
 20
156.8
  0
TEXT
  5
2A9
330
1F6
100
AcDbEntity
 67
1
  8
TEXT
100
AcDbText
 10
191.0
 20
154.8
 30
0.0
 40
1.5
  1
37
  7
ISO
 72
1
 11
191.0
 21
154.8
 31
0.0
100
AcDbText
 73
2
  0
LWPOLYLINE
  5
2AA
330
1F6
100
AcDbEntity
 67
1
  8
NET-SIGNAL
100
AcDbPolyline
 90
2
 70
0
 10
186.0
 20
154.8
 10
150.0
 20
154.8
  0
TEXT
  5
2AB
330
1F6
100
AcDbEntity
 67
1
  8
TEXT
 62
8
100
AcDbText
 10
184.0
 20
155.3
 30
0.0
 40
1.8
  1
GPIO26
  7
ISO
 72
2
 11
184.0
 21
155.3
 31
0.0
100
AcDbText
 73
1
  0
TEXT
  5
2AC
330
1F6
100
AcDbEntity
 67
1
  8
NET-SIGNAL
100
AcDbText
 10
148.0
 20
154.8
 30
0.0
 40
2.3
  1
ESTOP_SENSE
  7
ISO
 72
2
 11
148.0
 21
154.8
 31
0.0
100
AcDbText
 73
2
  0
LWPOLYLINE
  5
2AD
330
1F6
100
AcDbEntity
 67
1
  8
SYMBOLS
100
AcDbPolyline
 90
4
 70
1
 10
197.0
 20
152.8
 10
201.0
 20
152.8
 10
201.0
 20
156.8
 10
197.0
 20
156.8
  0
TEXT
  5
2AE
330
1F6
100
AcDbEntity
 67
1
  8
TEXT
100
AcDbText
 10
199.0
 20
154.8
 30
0.0
 40
1.5
  1
38
  7
ISO
 72
1
 11
199.0
 21
154.8
 31
0.0
100
AcDbText
 73
2
  0
LWPOLYLINE
  5
2AF
330
1F6
100
AcDbEntity
 67
1
  8
NET-SIGNAL
100
AcDbPolyline
 90
2
 70
0
 10
204.0
 20
154.8
 10
238.0
 20
154.8
  0
TEXT
  5
2B0
330
1F6
100
AcDbEntity
 67
1
  8
TEXT
 62
8
100
AcDbText
 10
206.0
 20
155.3
 30
0.0
 40
1.8
  1
GPIO20
  7
ISO
 11
206.0
 21
155.3
 31
0.0
100
AcDbText
 73
1
  0
TEXT
  5
2B1
330
1F6
100
AcDbEntity
 67
1
  8
NET-SIGNAL
100
AcDbText
 10
240.0
 20
154.8
 30
0.0
 40
2.3
  1
HX_RL_DT
  7
ISO
 11
240.0
 21
154.8
 31
0.0
100
AcDbText
 73
2
  0
LWPOLYLINE
  5
2B2
330
1F6
100
AcDbEntity
 67
1
  8
SYMBOLS
100
AcDbPolyline
 90
4
 70
1
 10
189.0
 20
147.39999999999998
 10
193.0
 20
147.39999999999998
 10
193.0
 20
151.39999999999998
 10
189.0
 20
151.39999999999998
  0
TEXT
  5
2B3
330
1F6
100
AcDbEntity
 67
1
  8
TEXT
100
AcDbText
 10
191.0
 20
149.39999999999998
 30
0.0
 40
1.5
  1
39
  7
ISO
 72
1
 11
191.0
 21
149.39999999999998
 31
0.0
100
AcDbText
 73
2
  0
TEXT
  5
2B4
330
1F6
100
AcDbEntity
 67
1
  8
TEXT
 62
8
100
AcDbText
 10
184.0
 20
149.39999999999998
 30
0.0
 40
1.8
  1
GND
  7
ISO
 72
2
 11
184.0
 21
149.39999999999998
 31
0.0
100
AcDbText
 73
2
  0
LWPOLYLINE
  5
2B5
330
1F6
100
AcDbEntity
 67
1
  8
SYMBOLS
100
AcDbPolyline
 90
4
 70
1
 10
197.0
 20
147.39999999999998
 10
201.0
 20
147.39999999999998
 10
201.0
 20
151.39999999999998
 10
197.0
 20
151.39999999999998
  0
TEXT
  5
2B6
330
1F6
100
AcDbEntity
 67
1
  8
TEXT
100
AcDbText
 10
199.0
 20
149.39999999999998
 30
0.0
 40
1.5
  1
40
  7
ISO
 72
1
 11
199.0
 21
149.39999999999998
 31
0.0
100
AcDbText
 73
2
  0
LWPOLYLINE
  5
2B7
330
1F6
100
AcDbEntity
 67
1
  8
NET-SIGNAL
100
AcDbPolyline
 90
2
 70
0
 10
204.0
 20
149.39999999999998
 10
238.0
 20
149.39999999999998
  0
TEXT
  5
2B8
330
1F6
100
AcDbEntity
 67
1
  8
TEXT
 62
8
100
AcDbText
 10
206.0
 20
149.89999999999998
 30
0.0
 40
1.8
  1
GPIO21
  7
ISO
 11
206.0
 21
149.89999999999998
 31
0.0
100
AcDbText
 73
1
  0
TEXT
  5
2B9
330
1F6
100
AcDbEntity
 67
1
  8
NET-SIGNAL
100
AcDbText
 10
240.0
 20
149.39999999999998
 30
0.0
 40
2.3
  1
HX_RR_DT
  7
ISO
 11
240.0
 21
149.39999999999998
 31
0.0
100
AcDbText
 73
2
  0
TEXT
  5
2BA
330
1F6
100
AcDbEntity
 67
1
  8
TEXT
100
AcDbText
 10
153.0
 20
141.0
 30
0.0
 40
1.8
  1
Do NOT use pins 2 / 4 (5 V) for anything: every
  7
ISO
 11
153.0
 21
141.0
 31
0.0
100
AcDbText
  0
TEXT
  5
2BB
330
1F6
100
AcDbEntity
 67
1
  8
TEXT
100
AcDbText
 10
153.0
 20
138.0
 30
0.0
 40
1.8
  1
signal here is 3.3 V. Unused GND pins may be used.
  7
ISO
 11
153.0
 21
138.0
 31
0.0
100
AcDbText
  0
LWPOLYLINE
  5
2BC
330
1F6
100
AcDbEntity
 67
1
  8
SYMBOLS
100
AcDbPolyline
 90
4
 70
1
 10
28.0
 20
228.6
 10
66.0
 20
228.6
 10
66.0
 20
262.0
 10
28.0
 20
262.0
  0
TEXT
  5
2BD
330
1F6
100
AcDbEntity
 67
1
  8
TEXT
100
AcDbText
 10
47.0
 20
263.2
 30
0.0
 40
2.3
  1
M1 LEFT MOTOR CABLE
  7
ISO
 72
1
 11
47.0
 21
263.2
 31
0.0
100
AcDbText
 73
1
  0
TEXT
  5
2BE
330
1F6
100
AcDbEntity
 67
1
  8
TEXT
100
AcDbText
 10
65.0
 20
255.9
 30
0.0
 40
1.8
  1
M1
  7
ISO
 72
2
 11
65.0
 21
255.9
 31
0.0
100
AcDbText
 73
2
  0
TEXT
  5
2BF
330
1F6
100
AcDbEntity
 67
1
  8
WIRE-COLOURS
100
AcDbText
 10
29.0
 20
255.9
 30
0.0
 40
1.6
  1
red
  7
ISO
 11
29.0
 21
255.9
 31
0.0
100
AcDbText
 73
2
  0
LWPOLYLINE
  5
2C0
330
1F6
100
AcDbEntity
 67
1
  8
NET-12V-MOTOR
100
AcDbPolyline
 90
2
 70
0
 10
66.0
 20
255.9
 10
72.0
 20
255.9
  0
TEXT
  5
2C1
330
1F6
100
AcDbEntity
 67
1
  8
NET-12V-MOTOR
100
AcDbText
 10
73.0
 20
255.9
 30
0.0
 40
2.3
  1
MOTOR_L+ (BTS_L M+, E02)
  7
ISO
 11
73.0
 21
255.9
 31
0.0
100
AcDbText
 73
2
  0
TEXT
  5
2C2
330
1F6
100
AcDbEntity
 67
1
  8
TEXT
100
AcDbText
 10
65.0
 20
251.7
 30
0.0
 40
1.8
  1
M2
  7
ISO
 72
2
 11
65.0
 21
251.7
 31
0.0
100
AcDbText
 73
2
  0
TEXT
  5
2C3
330
1F6
100
AcDbEntity
 67
1
  8
WIRE-COLOURS
100
AcDbText
 10
29.0
 20
251.7
 30
0.0
 40
1.6
  1
white
  7
ISO
 11
29.0
 21
251.7
 31
0.0
100
AcDbText
 73
2
  0
LWPOLYLINE
  5
2C4
330
1F6
100
AcDbEntity
 67
1
  8
NET-12V-MOTOR
100
AcDbPolyline
 90
2
 70
0
 10
66.0
 20
251.7
 10
72.0
 20
251.7
  0
TEXT
  5
2C5
330
1F6
100
AcDbEntity
 67
1
  8
NET-12V-MOTOR
100
AcDbText
 10
73.0
 20
251.7
 30
0.0
 40
2.3
  1
MOTOR_L- (BTS_L M-, E02)
  7
ISO
 11
73.0
 21
251.7
 31
0.0
100
AcDbText
 73
2
  0
TEXT
  5
2C6
330
1F6
100
AcDbEntity
 67
1
  8
TEXT
100
AcDbText
 10
65.0
 20
247.5
 30
0.0
 40
1.8
  1
VCC
  7
ISO
 72
2
 11
65.0
 21
247.5
 31
0.0
100
AcDbText
 73
2
  0
TEXT
  5
2C7
330
1F6
100
AcDbEntity
 67
1
  8
WIRE-COLOURS
100
AcDbText
 10
29.0
 20
247.5
 30
0.0
 40
1.6
  1
blue
  7
ISO
 11
29.0
 21
247.5
 31
0.0
100
AcDbText
 73
2
  0
LWPOLYLINE
  5
2C8
330
1F6
100
AcDbEntity
 67
1
  8
NET-3V3
100
AcDbPolyline
 90
2
 70
0
 10
66.0
 20
247.5
 10
72.0
 20
247.5
  0
TEXT
  5
2C9
330
1F6
100
AcDbEntity
 67
1
  8
NET-3V3
100
AcDbText
 10
73.0
 20
247.5
 30
0.0
 40
2.3
  1
3V3_A
  7
ISO
 11
73.0
 21
247.5
 31
0.0
100
AcDbText
 73
2
  0
TEXT
  5
2CA
330
1F6
100
AcDbEntity
 67
1
  8
TEXT
100
AcDbText
 10
65.0
 20
243.29999999999998
 30
0.0
 40
1.8
  1
GND
  7
ISO
 72
2
 11
65.0
 21
243.29999999999998
 31
0.0
100
AcDbText
 73
2
  0
TEXT
  5
2CB
330
1F6
100
AcDbEntity
 67
1
  8
WIRE-COLOURS
100
AcDbText
 10
29.0
 20
243.29999999999998
 30
0.0
 40
1.6
  1
black
  7
ISO
 11
29.0
 21
243.29999999999998
 31
0.0
100
AcDbText
 73
2
  0
LWPOLYLINE
  5
2CC
330
1F6
100
AcDbEntity
 67
1
  8
NET-GND
100
AcDbPolyline
 90
2
 70
0
 10
66.0
 20
243.29999999999998
 10
72.0
 20
243.29999999999998
  0
TEXT
  5
2CD
330
1F6
100
AcDbEntity
 67
1
  8
NET-GND
100
AcDbText
 10
73.0
 20
243.29999999999998
 30
0.0
 40
2.3
  1
GND
  7
ISO
 11
73.0
 21
243.29999999999998
 31
0.0
100
AcDbText
 73
2
  0
TEXT
  5
2CE
330
1F6
100
AcDbEntity
 67
1
  8
TEXT
100
AcDbText
 10
65.0
 20
239.1
 30
0.0
 40
1.8
  1
A
  7
ISO
 72
2
 11
65.0
 21
239.1
 31
0.0
100
AcDbText
 73
2
  0
TEXT
  5
2CF
330
1F6
100
AcDbEntity
 67
1
  8
WIRE-COLOURS
100
AcDbText
 10
29.0
 20
239.1
 30
0.0
 40
1.6
  1
yellow
  7
ISO
 11
29.0
 21
239.1
 31
0.0
100
AcDbText
 73
2
  0
LWPOLYLINE
  5
2D0
330
1F6
100
AcDbEntity
 67
1
  8
NET-SIGNAL
100
AcDbPolyline
 90
2
 70
0
 10
66.0
 20
239.1
 10
72.0
 20
239.1
  0
TEXT
  5
2D1
330
1F6
100
AcDbEntity
 67
1
  8
NET-SIGNAL
100
AcDbText
 10
73.0
 20
239.1
 30
0.0
 40
2.3
  1
ENC_L_A
  7
ISO
 11
73.0
 21
239.1
 31
0.0
100
AcDbText
 73
2
  0
TEXT
  5
2D2
330
1F6
100
AcDbEntity
 67
1
  8
TEXT
100
AcDbText
 10
65.0
 20
234.9
 30
0.0
 40
1.8
  1
B
  7
ISO
 72
2
 11
65.0
 21
234.9
 31
0.0
100
AcDbText
 73
2
  0
TEXT
  5
2D3
330
1F6
100
AcDbEntity
 67
1
  8
WIRE-COLOURS
100
AcDbText
 10
29.0
 20
234.9
 30
0.0
 40
1.6
  1
green
  7
ISO
 11
29.0
 21
234.9
 31
0.0
100
AcDbText
 73
2
  0
LWPOLYLINE
  5
2D4
330
1F6
100
AcDbEntity
 67
1
  8
NET-SIGNAL
100
AcDbPolyline
 90
2
 70
0
 10
66.0
 20
234.9
 10
72.0
 20
234.9
  0
TEXT
  5
2D5
330
1F6
100
AcDbEntity
 67
1
  8
NET-SIGNAL
100
AcDbText
 10
73.0
 20
234.9
 30
0.0
 40
2.3
  1
ENC_L_B
  7
ISO
 11
73.0
 21
234.9
 31
0.0
100
AcDbText
 73
2
  0
LWPOLYLINE
  5
2D6
330
1F6
100
AcDbEntity
 67
1
  8
SYMBOLS
100
AcDbPolyline
 90
4
 70
1
 10
28.0
 20
188.6
 10
66.0
 20
188.6
 10
66.0
 20
222.0
 10
28.0
 20
222.0
  0
TEXT
  5
2D7
330
1F6
100
AcDbEntity
 67
1
  8
TEXT
100
AcDbText
 10
47.0
 20
223.2
 30
0.0
 40
2.3
  1
M2 RIGHT MOTOR CABLE
  7
ISO
 72
1
 11
47.0
 21
223.2
 31
0.0
100
AcDbText
 73
1
  0
TEXT
  5
2D8
330
1F6
100
AcDbEntity
 67
1
  8
TEXT
100
AcDbText
 10
65.0
 20
215.9
 30
0.0
 40
1.8
  1
M1
  7
ISO
 72
2
 11
65.0
 21
215.9
 31
0.0
100
AcDbText
 73
2
  0
TEXT
  5
2D9
330
1F6
100
AcDbEntity
 67
1
  8
WIRE-COLOURS
100
AcDbText
 10
29.0
 20
215.9
 30
0.0
 40
1.6
  1
red
  7
ISO
 11
29.0
 21
215.9
 31
0.0
100
AcDbText
 73
2
  0
LWPOLYLINE
  5
2DA
330
1F6
100
AcDbEntity
 67
1
  8
NET-12V-MOTOR
100
AcDbPolyline
 90
2
 70
0
 10
66.0
 20
215.9
 10
72.0
 20
215.9
  0
TEXT
  5
2DB
330
1F6
100
AcDbEntity
 67
1
  8
NET-12V-MOTOR
100
AcDbText
 10
73.0
 20
215.9
 30
0.0
 40
2.3
  1
MOTOR_R+ (BTS_R M+, E02)
  7
ISO
 11
73.0
 21
215.9
 31
0.0
100
AcDbText
 73
2
  0
TEXT
  5
2DC
330
1F6
100
AcDbEntity
 67
1
  8
TEXT
100
AcDbText
 10
65.0
 20
211.7
 30
0.0
 40
1.8
  1
M2
  7
ISO
 72
2
 11
65.0
 21
211.7
 31
0.0
100
AcDbText
 73
2
  0
TEXT
  5
2DD
330
1F6
100
AcDbEntity
 67
1
  8
WIRE-COLOURS
100
AcDbText
 10
29.0
 20
211.7
 30
0.0
 40
1.6
  1
white
  7
ISO
 11
29.0
 21
211.7
 31
0.0
100
AcDbText
 73
2
  0
LWPOLYLINE
  5
2DE
330
1F6
100
AcDbEntity
 67
1
  8
NET-12V-MOTOR
100
AcDbPolyline
 90
2
 70
0
 10
66.0
 20
211.7
 10
72.0
 20
211.7
  0
TEXT
  5
2DF
330
1F6
100
AcDbEntity
 67
1
  8
NET-12V-MOTOR
100
AcDbText
 10
73.0
 20
211.7
 30
0.0
 40
2.3
  1
MOTOR_R- (BTS_R M-, E02)
  7
ISO
 11
73.0
 21
211.7
 31
0.0
100
AcDbText
 73
2
  0
TEXT
  5
2E0
330
1F6
100
AcDbEntity
 67
1
  8
TEXT
100
AcDbText
 10
65.0
 20
207.5
 30
0.0
 40
1.8
  1
VCC
  7
ISO
 72
2
 11
65.0
 21
207.5
 31
0.0
100
AcDbText
 73
2
  0
TEXT
  5
2E1
330
1F6
100
AcDbEntity
 67
1
  8
WIRE-COLOURS
100
AcDbText
 10
29.0
 20
207.5
 30
0.0
 40
1.6
  1
blue
  7
ISO
 11
29.0
 21
207.5
 31
0.0
100
AcDbText
 73
2
  0
LWPOLYLINE
  5
2E2
330
1F6
100
AcDbEntity
 67
1
  8
NET-3V3
100
AcDbPolyline
 90
2
 70
0
 10
66.0
 20
207.5
 10
72.0
 20
207.5
  0
TEXT
  5
2E3
330
1F6
100
AcDbEntity
 67
1
  8
NET-3V3
100
AcDbText
 10
73.0
 20
207.5
 30
0.0
 40
2.3
  1
3V3_A
  7
ISO
 11
73.0
 21
207.5
 31
0.0
100
AcDbText
 73
2
  0
TEXT
  5
2E4
330
1F6
100
AcDbEntity
 67
1
  8
TEXT
100
AcDbText
 10
65.0
 20
203.29999999999998
 30
0.0
 40
1.8
  1
GND
  7
ISO
 72
2
 11
65.0
 21
203.29999999999998
 31
0.0
100
AcDbText
 73
2
  0
TEXT
  5
2E5
330
1F6
100
AcDbEntity
 67
1
  8
WIRE-COLOURS
100
AcDbText
 10
29.0
 20
203.29999999999998
 30
0.0
 40
1.6
  1
black
  7
ISO
 11
29.0
 21
203.29999999999998
 31
0.0
100
AcDbText
 73
2
  0
LWPOLYLINE
  5
2E6
330
1F6
100
AcDbEntity
 67
1
  8
NET-GND
100
AcDbPolyline
 90
2
 70
0
 10
66.0
 20
203.29999999999998
 10
72.0
 20
203.29999999999998
  0
TEXT
  5
2E7
330
1F6
100
AcDbEntity
 67
1
  8
NET-GND
100
AcDbText
 10
73.0
 20
203.29999999999998
 30
0.0
 40
2.3
  1
GND
  7
ISO
 11
73.0
 21
203.29999999999998
 31
0.0
100
AcDbText
 73
2
  0
TEXT
  5
2E8
330
1F6
100
AcDbEntity
 67
1
  8
TEXT
100
AcDbText
 10
65.0
 20
199.1
 30
0.0
 40
1.8
  1
A
  7
ISO
 72
2
 11
65.0
 21
199.1
 31
0.0
100
AcDbText
 73
2
  0
TEXT
  5
2E9
330
1F6
100
AcDbEntity
 67
1
  8
WIRE-COLOURS
100
AcDbText
 10
29.0
 20
199.1
 30
0.0
 40
1.6
  1
yellow
  7
ISO
 11
29.0
 21
199.1
 31
0.0
100
AcDbText
 73
2
  0
LWPOLYLINE
  5
2EA
330
1F6
100
AcDbEntity
 67
1
  8
NET-SIGNAL
100
AcDbPolyline
 90
2
 70
0
 10
66.0
 20
199.1
 10
72.0
 20
199.1
  0
TEXT
  5
2EB
330
1F6
100
AcDbEntity
 67
1
  8
NET-SIGNAL
100
AcDbText
 10
73.0
 20
199.1
 30
0.0
 40
2.3
  1
ENC_R_A
  7
ISO
 11
73.0
 21
199.1
 31
0.0
100
AcDbText
 73
2
  0
TEXT
  5
2EC
330
1F6
100
AcDbEntity
 67
1
  8
TEXT
100
AcDbText
 10
65.0
 20
194.9
 30
0.0
 40
1.8
  1
B
  7
ISO
 72
2
 11
65.0
 21
194.9
 31
0.0
100
AcDbText
 73
2
  0
TEXT
  5
2ED
330
1F6
100
AcDbEntity
 67
1
  8
WIRE-COLOURS
100
AcDbText
 10
29.0
 20
194.9
 30
0.0
 40
1.6
  1
green
  7
ISO
 11
29.0
 21
194.9
 31
0.0
100
AcDbText
 73
2
  0
LWPOLYLINE
  5
2EE
330
1F6
100
AcDbEntity
 67
1
  8
NET-SIGNAL
100
AcDbPolyline
 90
2
 70
0
 10
66.0
 20
194.9
 10
72.0
 20
194.9
  0
TEXT
  5
2EF
330
1F6
100
AcDbEntity
 67
1
  8
NET-SIGNAL
100
AcDbText
 10
73.0
 20
194.9
 30
0.0
 40
2.3
  1
ENC_R_B
  7
ISO
 11
73.0
 21
194.9
 31
0.0
100
AcDbText
 73
2
  0
TEXT
  5
2F0
330
1F6
100
AcDbEntity
 67
1
  8
TEXT
100
AcDbText
 10
28.0
 20
182.0
 30
0.0
 40
1.8
  1
Encoder VCC = 3.3 V ONLY (5 V would
  7
ISO
 11
28.0
 21
182.0
 31
0.0
100
AcDbText
  0
TEXT
  5
2F1
330
1F6
100
AcDbEntity
 67
1
  8
TEXT
100
AcDbText
 10
28.0
 20
179.0
 30
0.0
 40
1.8
  1
put 5 V on the Pi's GPIO pins).
  7
ISO
 11
28.0
 21
179.0
 31
0.0
100
AcDbText
  0
LWPOLYLINE
  5
2F2
330
1F6
100
AcDbEntity
 67
1
  8
SYMBOLS
100
AcDbPolyline
 90
4
 70
1
 10
330.0
 20
220.2
 10
366.0
 20
220.2
 10
366.0
 20
262.0
 10
330.0
 20
262.0
  0
TEXT
  5
2F3
330
1F6
100
AcDbEntity
 67
1
  8
TEXT
100
AcDbText
 10
348.0
 20
263.2
 30
0.0
 40
2.3
  1
U2 BTS7960 (LEFT motor)
  7
ISO
 72
1
 11
348.0
 21
263.2
 31
0.0
100
AcDbText
 73
1
  0
TEXT
  5
2F4
330
1F6
100
AcDbEntity
 67
1
  8
TEXT
100
AcDbText
 10
331.0
 20
255.9
 30
0.0
 40
1.8
  1
RPWM
  7
ISO
 11
331.0
 21
255.9
 31
0.0
100
AcDbText
 73
2
  0
LWPOLYLINE
  5
2F5
330
1F6
100
AcDbEntity
 67
1
  8
NET-SIGNAL
100
AcDbPolyline
 90
2
 70
0
 10
330.0
 20
255.9
 10
322.0
 20
255.9
  0
TEXT
  5
2F6
330
1F6
100
AcDbEntity
 67
1
  8
NET-SIGNAL
100
AcDbText
 10
321.0
 20
255.9
 30
0.0
 40
2.3
  1
L_RPWM
  7
ISO
 72
2
 11
321.0
 21
255.9
 31
0.0
100
AcDbText
 73
2
  0
TEXT
  5
2F7
330
1F6
100
AcDbEntity
 67
1
  8
TEXT
100
AcDbText
 10
331.0
 20
251.7
 30
0.0
 40
1.8
  1
LPWM
  7
ISO
 11
331.0
 21
251.7
 31
0.0
100
AcDbText
 73
2
  0
LWPOLYLINE
  5
2F8
330
1F6
100
AcDbEntity
 67
1
  8
NET-SIGNAL
100
AcDbPolyline
 90
2
 70
0
 10
330.0
 20
251.7
 10
322.0
 20
251.7
  0
TEXT
  5
2F9
330
1F6
100
AcDbEntity
 67
1
  8
NET-SIGNAL
100
AcDbText
 10
321.0
 20
251.7
 30
0.0
 40
2.3
  1
L_LPWM
  7
ISO
 72
2
 11
321.0
 21
251.7
 31
0.0
100
AcDbText
 73
2
  0
TEXT
  5
2FA
330
1F6
100
AcDbEntity
 67
1
  8
TEXT
100
AcDbText
 10
331.0
 20
247.5
 30
0.0
 40
1.8
  1
R_EN
  7
ISO
 11
331.0
 21
247.5
 31
0.0
100
AcDbText
 73
2
  0
LWPOLYLINE
  5
2FB
330
1F6
100
AcDbEntity
 67
1
  8
NET-SIGNAL
100
AcDbPolyline
 90
2
 70
0
 10
330.0
 20
247.5
 10
322.0
 20
247.5
  0
TEXT
  5
2FC
330
1F6
100
AcDbEntity
 67
1
  8
NET-SIGNAL
100
AcDbText
 10
321.0
 20
247.5
 30
0.0
 40
2.3
  1
MOTOR_EN
  7
ISO
 72
2
 11
321.0
 21
247.5
 31
0.0
100
AcDbText
 73
2
  0
TEXT
  5
2FD
330
1F6
100
AcDbEntity
 67
1
  8
TEXT
100
AcDbText
 10
331.0
 20
243.29999999999998
 30
0.0
 40
1.8
  1
L_EN
  7
ISO
 11
331.0
 21
243.29999999999998
 31
0.0
100
AcDbText
 73
2
  0
LWPOLYLINE
  5
2FE
330
1F6
100
AcDbEntity
 67
1
  8
NET-SIGNAL
100
AcDbPolyline
 90
2
 70
0
 10
330.0
 20
243.29999999999998
 10
322.0
 20
243.29999999999998
  0
TEXT
  5
2FF
330
1F6
100
AcDbEntity
 67
1
  8
NET-SIGNAL
100
AcDbText
 10
321.0
 20
243.29999999999998
 30
0.0
 40
2.3
  1
MOTOR_EN
  7
ISO
 72
2
 11
321.0
 21
243.29999999999998
 31
0.0
100
AcDbText
 73
2
  0
TEXT
  5
300
330
1F6
100
AcDbEntity
 67
1
  8
TEXT
100
AcDbText
 10
331.0
 20
239.1
 30
0.0
 40
1.8
  1
R_IS
  7
ISO
 11
331.0
 21
239.1
 31
0.0
100
AcDbText
 73
2
  0
TEXT
  5
301
330
1F6
100
AcDbEntity
 67
1
  8
WIRE-COLOURS
100
AcDbText
 10
365.0
 20
239.1
 30
0.0
 40
1.6
  1
not connected
  7
ISO
 72
2
 11
365.0
 21
239.1
 31
0.0
100
AcDbText
 73
2
  0
TEXT
  5
302
330
1F6
100
AcDbEntity
 67
1
  8
TEXT
100
AcDbText
 10
331.0
 20
234.9
 30
0.0
 40
1.8
  1
L_IS
  7
ISO
 11
331.0
 21
234.9
 31
0.0
100
AcDbText
 73
2
  0
TEXT
  5
303
330
1F6
100
AcDbEntity
 67
1
  8
WIRE-COLOURS
100
AcDbText
 10
365.0
 20
234.9
 30
0.0
 40
1.6
  1
not connected
  7
ISO
 72
2
 11
365.0
 21
234.9
 31
0.0
100
AcDbText
 73
2
  0
TEXT
  5
304
330
1F6
100
AcDbEntity
 67
1
  8
TEXT
100
AcDbText
 10
331.0
 20
230.7
 30
0.0
 40
1.8
  1
VCC
  7
ISO
 11
331.0
 21
230.7
 31
0.0
100
AcDbText
 73
2
  0
LWPOLYLINE
  5
305
330
1F6
100
AcDbEntity
 67
1
  8
NET-3V3
100
AcDbPolyline
 90
2
 70
0
 10
330.0
 20
230.7
 10
322.0
 20
230.7
  0
TEXT
  5
306
330
1F6
100
AcDbEntity
 67
1
  8
NET-3V3
100
AcDbText
 10
321.0
 20
230.7
 30
0.0
 40
2.3
  1
3V3_B
  7
ISO
 72
2
 11
321.0
 21
230.7
 31
0.0
100
AcDbText
 73
2
  0
TEXT
  5
307
330
1F6
100
AcDbEntity
 67
1
  8
TEXT
100
AcDbText
 10
331.0
 20
226.5
 30
0.0
 40
1.8
  1
GND
  7
ISO
 11
331.0
 21
226.5
 31
0.0
100
AcDbText
 73
2
  0
LWPOLYLINE
  5
308
330
1F6
100
AcDbEntity
 67
1
  8
NET-GND
100
AcDbPolyline
 90
2
 70
0
 10
330.0
 20
226.5
 10
322.0
 20
226.5
  0
TEXT
  5
309
330
1F6
100
AcDbEntity
 67
1
  8
NET-GND
100
AcDbText
 10
321.0
 20
226.5
 30
0.0
 40
2.3
  1
GND
  7
ISO
 72
2
 11
321.0
 21
226.5
 31
0.0
100
AcDbText
 73
2
  0
LWPOLYLINE
  5
30A
330
1F6
100
AcDbEntity
 67
1
  8
SYMBOLS
100
AcDbPolyline
 90
4
 70
1
 10
330.0
 20
170.2
 10
366.0
 20
170.2
 10
366.0
 20
212.0
 10
330.0
 20
212.0
  0
TEXT
  5
30B
330
1F6
100
AcDbEntity
 67
1
  8
TEXT
100
AcDbText
 10
348.0
 20
213.2
 30
0.0
 40
2.3
  1
U3 BTS7960 (RIGHT motor)
  7
ISO
 72
1
 11
348.0
 21
213.2
 31
0.0
100
AcDbText
 73
1
  0
TEXT
  5
30C
330
1F6
100
AcDbEntity
 67
1
  8
TEXT
100
AcDbText
 10
331.0
 20
205.9
 30
0.0
 40
1.8
  1
RPWM
  7
ISO
 11
331.0
 21
205.9
 31
0.0
100
AcDbText
 73
2
  0
LWPOLYLINE
  5
30D
330
1F6
100
AcDbEntity
 67
1
  8
NET-SIGNAL
100
AcDbPolyline
 90
2
 70
0
 10
330.0
 20
205.9
 10
322.0
 20
205.9
  0
TEXT
  5
30E
330
1F6
100
AcDbEntity
 67
1
  8
NET-SIGNAL
100
AcDbText
 10
321.0
 20
205.9
 30
0.0
 40
2.3
  1
R_RPWM
  7
ISO
 72
2
 11
321.0
 21
205.9
 31
0.0
100
AcDbText
 73
2
  0
TEXT
  5
30F
330
1F6
100
AcDbEntity
 67
1
  8
TEXT
100
AcDbText
 10
331.0
 20
201.7
 30
0.0
 40
1.8
  1
LPWM
  7
ISO
 11
331.0
 21
201.7
 31
0.0
100
AcDbText
 73
2
  0
LWPOLYLINE
  5
310
330
1F6
100
AcDbEntity
 67
1
  8
NET-SIGNAL
100
AcDbPolyline
 90
2
 70
0
 10
330.0
 20
201.7
 10
322.0
 20
201.7
  0
TEXT
  5
311
330
1F6
100
AcDbEntity
 67
1
  8
NET-SIGNAL
100
AcDbText
 10
321.0
 20
201.7
 30
0.0
 40
2.3
  1
R_LPWM
  7
ISO
 72
2
 11
321.0
 21
201.7
 31
0.0
100
AcDbText
 73
2
  0
TEXT
  5
312
330
1F6
100
AcDbEntity
 67
1
  8
TEXT
100
AcDbText
 10
331.0
 20
197.5
 30
0.0
 40
1.8
  1
R_EN
  7
ISO
 11
331.0
 21
197.5
 31
0.0
100
AcDbText
 73
2
  0
LWPOLYLINE
  5
313
330
1F6
100
AcDbEntity
 67
1
  8
NET-SIGNAL
100
AcDbPolyline
 90
2
 70
0
 10
330.0
 20
197.5
 10
322.0
 20
197.5
  0
TEXT
  5
314
330
1F6
100
AcDbEntity
 67
1
  8
NET-SIGNAL
100
AcDbText
 10
321.0
 20
197.5
 30
0.0
 40
2.3
  1
MOTOR_EN
  7
ISO
 72
2
 11
321.0
 21
197.5
 31
0.0
100
AcDbText
 73
2
  0
TEXT
  5
315
330
1F6
100
AcDbEntity
 67
1
  8
TEXT
100
AcDbText
 10
331.0
 20
193.29999999999998
 30
0.0
 40
1.8
  1
L_EN
  7
ISO
 11
331.0
 21
193.29999999999998
 31
0.0
100
AcDbText
 73
2
  0
LWPOLYLINE
  5
316
330
1F6
100
AcDbEntity
 67
1
  8
NET-SIGNAL
100
AcDbPolyline
 90
2
 70
0
 10
330.0
 20
193.29999999999998
 10
322.0
 20
193.29999999999998
  0
TEXT
  5
317
330
1F6
100
AcDbEntity
 67
1
  8
NET-SIGNAL
100
AcDbText
 10
321.0
 20
193.29999999999998
 30
0.0
 40
2.3
  1
MOTOR_EN
  7
ISO
 72
2
 11
321.0
 21
193.29999999999998
 31
0.0
100
AcDbText
 73
2
  0
TEXT
  5
318
330
1F6
100
AcDbEntity
 67
1
  8
TEXT
100
AcDbText
 10
331.0
 20
189.1
 30
0.0
 40
1.8
  1
R_IS
  7
ISO
 11
331.0
 21
189.1
 31
0.0
100
AcDbText
 73
2
  0
TEXT
  5
319
330
1F6
100
AcDbEntity
 67
1
  8
WIRE-COLOURS
100
AcDbText
 10
365.0
 20
189.1
 30
0.0
 40
1.6
  1
not connected
  7
ISO
 72
2
 11
365.0
 21
189.1
 31
0.0
100
AcDbText
 73
2
  0
TEXT
  5
31A
330
1F6
100
AcDbEntity
 67
1
  8
TEXT
100
AcDbText
 10
331.0
 20
184.9
 30
0.0
 40
1.8
  1
L_IS
  7
ISO
 11
331.0
 21
184.9
 31
0.0
100
AcDbText
 73
2
  0
TEXT
  5
31B
330
1F6
100
AcDbEntity
 67
1
  8
WIRE-COLOURS
100
AcDbText
 10
365.0
 20
184.9
 30
0.0
 40
1.6
  1
not connected
  7
ISO
 72
2
 11
365.0
 21
184.9
 31
0.0
100
AcDbText
 73
2
  0
TEXT
  5
31C
330
1F6
100
AcDbEntity
 67
1
  8
TEXT
100
AcDbText
 10
331.0
 20
180.7
 30
0.0
 40
1.8
  1
VCC
  7
ISO
 11
331.0
 21
180.7
 31
0.0
100
AcDbText
 73
2
  0
LWPOLYLINE
  5
31D
330
1F6
100
AcDbEntity
 67
1
  8
NET-3V3
100
AcDbPolyline
 90
2
 70
0
 10
330.0
 20
180.7
 10
322.0
 20
180.7
  0
TEXT
  5
31E
330
1F6
100
AcDbEntity
 67
1
  8
NET-3V3
100
AcDbText
 10
321.0
 20
180.7
 30
0.0
 40
2.3
  1
3V3_B
  7
ISO
 72
2
 11
321.0
 21
180.7
 31
0.0
100
AcDbText
 73
2
  0
TEXT
  5
31F
330
1F6
100
AcDbEntity
 67
1
  8
TEXT
100
AcDbText
 10
331.0
 20
176.5
 30
0.0
 40
1.8
  1
GND
  7
ISO
 11
331.0
 21
176.5
 31
0.0
100
AcDbText
 73
2
  0
LWPOLYLINE
  5
320
330
1F6
100
AcDbEntity
 67
1
  8
NET-GND
100
AcDbPolyline
 90
2
 70
0
 10
330.0
 20
176.5
 10
322.0
 20
176.5
  0
TEXT
  5
321
330
1F6
100
AcDbEntity
 67
1
  8
NET-GND
100
AcDbText
 10
321.0
 20
176.5
 30
0.0
 40
2.3
  1
GND
  7
ISO
 72
2
 11
321.0
 21
176.5
 31
0.0
100
AcDbText
 73
2
  0
TEXT
  5
322
330
1F6
100
AcDbEntity
 67
1
  8
TEXT
100
AcDbText
 10
330.0
 20
166.0
 30
0.0
 40
1.8
  1
BTS7960 VCC from 3.3 V makes its
  7
ISO
 11
330.0
 21
166.0
 31
0.0
100
AcDbText
  0
TEXT
  5
323
330
1F6
100
AcDbEntity
 67
1
  8
TEXT
100
AcDbText
 10
330.0
 20
163.0
 30
0.0
 40
1.8
  1
inputs 3.3 V-logic compatible.
  7
ISO
 11
330.0
 21
163.0
 31
0.0
100
AcDbText
  0
TEXT
  5
324
330
1F6
100
AcDbEntity
 67
1
  8
TEXT
100
AcDbText
 10
330.0
 20
160.0
 30
0.0
 40
1.8
  1
Power side (B+/B-/M+/M-): see E02.
  7
ISO
 11
330.0
 21
160.0
 31
0.0
100
AcDbText
  0
LWPOLYLINE
  5
325
330
1F6
100
AcDbEntity
 67
1
  8
SYMBOLS
100
AcDbPolyline
 90
4
 70
1
 10
28.0
 20
94.0
 10
70.0
 20
94.0
 10
70.0
 20
110.0
 10
28.0
 20
110.0
  0
TEXT
  5
326
330
1F6
100
AcDbEntity
 67
1
  8
TEXT
100
AcDbText
 10
49.0
 20
102.0
 30
0.0
 40
2.3
  1
HX711 FL
  7
ISO
 72
1
 11
49.0
 21
102.0
 31
0.0
100
AcDbText
 73
2
  0
TEXT
  5
327
330
1F6
100
AcDbEntity
 67
1
  8
TEXT
100
AcDbText
 10
34.0
 20
108.5
 30
0.0
 40
1.5
  1
VCC
  7
ISO
 72
1
 11
34.0
 21
108.5
 31
0.0
100
AcDbText
 73
3
  0
LWPOLYLINE
  5
328
330
1F6
100
AcDbEntity
 67
1
  8
NET-3V3
100
AcDbPolyline
 90
2
 70
0
 10
34.0
 20
110.0
 10
34.0
 20
115.0
  0
TEXT
  5
329
330
1F6
100
AcDbEntity
 67
1
  8
NET-3V3
100
AcDbText
 10
34.8
 20
116.0
 30
0.0
 40
1.9
  1
3V3_B
 50
90.0
  7
ISO
 11
34.8
 21
116.0
 31
0.0
100
AcDbText
 73
2
  0
TEXT
  5
32A
330
1F6
100
AcDbEntity
 67
1
  8
TEXT
100
AcDbText
 10
44.0
 20
108.5
 30
0.0
 40
1.5
  1
GND
  7
ISO
 72
1
 11
44.0
 21
108.5
 31
0.0
100
AcDbText
 73
3
  0
LWPOLYLINE
  5
32B
330
1F6
100
AcDbEntity
 67
1
  8
NET-GND
100
AcDbPolyline
 90
2
 70
0
 10
44.0
 20
110.0
 10
44.0
 20
115.0
  0
TEXT
  5
32C
330
1F6
100
AcDbEntity
 67
1
  8
NET-GND
100
AcDbText
 10
44.8
 20
116.0
 30
0.0
 40
1.9
  1
GND
 50
90.0
  7
ISO
 11
44.8
 21
116.0
 31
0.0
100
AcDbText
 73
2
  0
TEXT
  5
32D
330
1F6
100
AcDbEntity
 67
1
  8
TEXT
100
AcDbText
 10
54.0
 20
108.5
 30
0.0
 40
1.5
  1
DT
  7
ISO
 72
1
 11
54.0
 21
108.5
 31
0.0
100
AcDbText
 73
3
  0
LWPOLYLINE
  5
32E
330
1F6
100
AcDbEntity
 67
1
  8
NET-SIGNAL
100
AcDbPolyline
 90
2
 70
0
 10
54.0
 20
110.0
 10
54.0
 20
115.0
  0
TEXT
  5
32F
330
1F6
100
AcDbEntity
 67
1
  8
NET-SIGNAL
100
AcDbText
 10
54.8
 20
116.0
 30
0.0
 40
1.9
  1
HX_FL_DT
 50
90.0
  7
ISO
 11
54.8
 21
116.0
 31
0.0
100
AcDbText
 73
2
  0
TEXT
  5
330
330
1F6
100
AcDbEntity
 67
1
  8
TEXT
100
AcDbText
 10
64.0
 20
108.5
 30
0.0
 40
1.5
  1
SCK
  7
ISO
 72
1
 11
64.0
 21
108.5
 31
0.0
100
AcDbText
 73
3
  0
LWPOLYLINE
  5
331
330
1F6
100
AcDbEntity
 67
1
  8
NET-SIGNAL
100
AcDbPolyline
 90
2
 70
0
 10
64.0
 20
110.0
 10
64.0
 20
115.0
  0
TEXT
  5
332
330
1F6
100
AcDbEntity
 67
1
  8
NET-SIGNAL
100
AcDbText
 10
64.8
 20
116.0
 30
0.0
 40
1.9
  1
HX_SCK
 50
90.0
  7
ISO
 11
64.8
 21
116.0
 31
0.0
100
AcDbText
 73
2
  0
TEXT
  5
333
330
1F6
100
AcDbEntity
 67
1
  8
TEXT
100
AcDbText
 10
34.0
 20
95.5
 30
0.0
 40
1.5
  1
E+
  7
ISO
 72
1
 11
34.0
 21
95.5
 31
0.0
100
AcDbText
 73
1
  0
LWPOLYLINE
  5
334
330
1F6
100
AcDbEntity
 67
1
  8
WIRE-COLOURS
 62
1
100
AcDbPolyline
 90
2
 70
0
 10
34.0
 20
94.0
 10
34.0
 20
86.0
  0
TEXT
  5
335
330
1F6
100
AcDbEntity
 67
1
  8
WIRE-COLOURS
100
AcDbText
 10
34.8
 20
90.0
 30
0.0
 40
1.4
  1
red
  7
ISO
 11
34.8
 21
90.0
 31
0.0
100
AcDbText
 73
2
  0
TEXT
  5
336
330
1F6
100
AcDbEntity
 67
1
  8
TEXT
100
AcDbText
 10
44.0
 20
95.5
 30
0.0
 40
1.5
  1
E-
  7
ISO
 72
1
 11
44.0
 21
95.5
 31
0.0
100
AcDbText
 73
1
  0
LWPOLYLINE
  5
337
330
1F6
100
AcDbEntity
 67
1
  8
WIRE-COLOURS
 62
7
100
AcDbPolyline
 90
2
 70
0
 10
44.0
 20
94.0
 10
44.0
 20
86.0
  0
TEXT
  5
338
330
1F6
100
AcDbEntity
 67
1
  8
WIRE-COLOURS
100
AcDbText
 10
44.8
 20
90.0
 30
0.0
 40
1.4
  1
blk
  7
ISO
 11
44.8
 21
90.0
 31
0.0
100
AcDbText
 73
2
  0
TEXT
  5
339
330
1F6
100
AcDbEntity
 67
1
  8
TEXT
100
AcDbText
 10
54.0
 20
95.5
 30
0.0
 40
1.5
  1
A-
  7
ISO
 72
1
 11
54.0
 21
95.5
 31
0.0
100
AcDbText
 73
1
  0
LWPOLYLINE
  5
33A
330
1F6
100
AcDbEntity
 67
1
  8
WIRE-COLOURS
 62
8
100
AcDbPolyline
 90
2
 70
0
 10
54.0
 20
94.0
 10
54.0
 20
86.0
  0
TEXT
  5
33B
330
1F6
100
AcDbEntity
 67
1
  8
WIRE-COLOURS
100
AcDbText
 10
54.8
 20
90.0
 30
0.0
 40
1.4
  1
wht
  7
ISO
 11
54.8
 21
90.0
 31
0.0
100
AcDbText
 73
2
  0
TEXT
  5
33C
330
1F6
100
AcDbEntity
 67
1
  8
TEXT
100
AcDbText
 10
64.0
 20
95.5
 30
0.0
 40
1.5
  1
A+
  7
ISO
 72
1
 11
64.0
 21
95.5
 31
0.0
100
AcDbText
 73
1
  0
LWPOLYLINE
  5
33D
330
1F6
100
AcDbEntity
 67
1
  8
WIRE-COLOURS
 62
3
100
AcDbPolyline
 90
2
 70
0
 10
64.0
 20
94.0
 10
64.0
 20
86.0
  0
TEXT
  5
33E
330
1F6
100
AcDbEntity
 67
1
  8
WIRE-COLOURS
100
AcDbText
 10
64.8
 20
90.0
 30
0.0
 40
1.4
  1
grn
  7
ISO
 11
64.8
 21
90.0
 31
0.0
100
AcDbText
 73
2
  0
LWPOLYLINE
  5
33F
330
1F6
100
AcDbEntity
 67
1
  8
SYMBOLS
100
AcDbPolyline
 90
4
 70
1
 10
28.0
 20
78.0
 10
70.0
 20
78.0
 10
70.0
 20
86.0
 10
28.0
 20
86.0
  0
TEXT
  5
340
330
1F6
100
AcDbEntity
 67
1
  8
TEXT
100
AcDbText
 10
49.0
 20
82.0
 30
0.0
 40
1.9
  1
LOAD CELL FL 10 kg
  7
ISO
 72
1
 11
49.0
 21
82.0
 31
0.0
100
AcDbText
 73
2
  0
LWPOLYLINE
  5
341
330
1F6
100
AcDbEntity
 67
1
  8
SYMBOLS
100
AcDbPolyline
 90
4
 70
1
 10
80.0
 20
94.0
 10
122.0
 20
94.0
 10
122.0
 20
110.0
 10
80.0
 20
110.0
  0
TEXT
  5
342
330
1F6
100
AcDbEntity
 67
1
  8
TEXT
100
AcDbText
 10
101.0
 20
102.0
 30
0.0
 40
2.3
  1
HX711 FR
  7
ISO
 72
1
 11
101.0
 21
102.0
 31
0.0
100
AcDbText
 73
2
  0
TEXT
  5
343
330
1F6
100
AcDbEntity
 67
1
  8
TEXT
100
AcDbText
 10
86.0
 20
108.5
 30
0.0
 40
1.5
  1
VCC
  7
ISO
 72
1
 11
86.0
 21
108.5
 31
0.0
100
AcDbText
 73
3
  0
LWPOLYLINE
  5
344
330
1F6
100
AcDbEntity
 67
1
  8
NET-3V3
100
AcDbPolyline
 90
2
 70
0
 10
86.0
 20
110.0
 10
86.0
 20
115.0
  0
TEXT
  5
345
330
1F6
100
AcDbEntity
 67
1
  8
NET-3V3
100
AcDbText
 10
86.8
 20
116.0
 30
0.0
 40
1.9
  1
3V3_B
 50
90.0
  7
ISO
 11
86.8
 21
116.0
 31
0.0
100
AcDbText
 73
2
  0
TEXT
  5
346
330
1F6
100
AcDbEntity
 67
1
  8
TEXT
100
AcDbText
 10
96.0
 20
108.5
 30
0.0
 40
1.5
  1
GND
  7
ISO
 72
1
 11
96.0
 21
108.5
 31
0.0
100
AcDbText
 73
3
  0
LWPOLYLINE
  5
347
330
1F6
100
AcDbEntity
 67
1
  8
NET-GND
100
AcDbPolyline
 90
2
 70
0
 10
96.0
 20
110.0
 10
96.0
 20
115.0
  0
TEXT
  5
348
330
1F6
100
AcDbEntity
 67
1
  8
NET-GND
100
AcDbText
 10
96.8
 20
116.0
 30
0.0
 40
1.9
  1
GND
 50
90.0
  7
ISO
 11
96.8
 21
116.0
 31
0.0
100
AcDbText
 73
2
  0
TEXT
  5
349
330
1F6
100
AcDbEntity
 67
1
  8
TEXT
100
AcDbText
 10
106.0
 20
108.5
 30
0.0
 40
1.5
  1
DT
  7
ISO
 72
1
 11
106.0
 21
108.5
 31
0.0
100
AcDbText
 73
3
  0
LWPOLYLINE
  5
34A
330
1F6
100
AcDbEntity
 67
1
  8
NET-SIGNAL
100
AcDbPolyline
 90
2
 70
0
 10
106.0
 20
110.0
 10
106.0
 20
115.0
  0
TEXT
  5
34B
330
1F6
100
AcDbEntity
 67
1
  8
NET-SIGNAL
100
AcDbText
 10
106.8
 20
116.0
 30
0.0
 40
1.9
  1
HX_FR_DT
 50
90.0
  7
ISO
 11
106.8
 21
116.0
 31
0.0
100
AcDbText
 73
2
  0
TEXT
  5
34C
330
1F6
100
AcDbEntity
 67
1
  8
TEXT
100
AcDbText
 10
116.0
 20
108.5
 30
0.0
 40
1.5
  1
SCK
  7
ISO
 72
1
 11
116.0
 21
108.5
 31
0.0
100
AcDbText
 73
3
  0
LWPOLYLINE
  5
34D
330
1F6
100
AcDbEntity
 67
1
  8
NET-SIGNAL
100
AcDbPolyline
 90
2
 70
0
 10
116.0
 20
110.0
 10
116.0
 20
115.0
  0
TEXT
  5
34E
330
1F6
100
AcDbEntity
 67
1
  8
NET-SIGNAL
100
AcDbText
 10
116.8
 20
116.0
 30
0.0
 40
1.9
  1
HX_SCK
 50
90.0
  7
ISO
 11
116.8
 21
116.0
 31
0.0
100
AcDbText
 73
2
  0
TEXT
  5
34F
330
1F6
100
AcDbEntity
 67
1
  8
TEXT
100
AcDbText
 10
86.0
 20
95.5
 30
0.0
 40
1.5
  1
E+
  7
ISO
 72
1
 11
86.0
 21
95.5
 31
0.0
100
AcDbText
 73
1
  0
LWPOLYLINE
  5
350
330
1F6
100
AcDbEntity
 67
1
  8
WIRE-COLOURS
 62
1
100
AcDbPolyline
 90
2
 70
0
 10
86.0
 20
94.0
 10
86.0
 20
86.0
  0
TEXT
  5
351
330
1F6
100
AcDbEntity
 67
1
  8
WIRE-COLOURS
100
AcDbText
 10
86.8
 20
90.0
 30
0.0
 40
1.4
  1
red
  7
ISO
 11
86.8
 21
90.0
 31
0.0
100
AcDbText
 73
2
  0
TEXT
  5
352
330
1F6
100
AcDbEntity
 67
1
  8
TEXT
100
AcDbText
 10
96.0
 20
95.5
 30
0.0
 40
1.5
  1
E-
  7
ISO
 72
1
 11
96.0
 21
95.5
 31
0.0
100
AcDbText
 73
1
  0
LWPOLYLINE
  5
353
330
1F6
100
AcDbEntity
 67
1
  8
WIRE-COLOURS
 62
7
100
AcDbPolyline
 90
2
 70
0
 10
96.0
 20
94.0
 10
96.0
 20
86.0
  0
TEXT
  5
354
330
1F6
100
AcDbEntity
 67
1
  8
WIRE-COLOURS
100
AcDbText
 10
96.8
 20
90.0
 30
0.0
 40
1.4
  1
blk
  7
ISO
 11
96.8
 21
90.0
 31
0.0
100
AcDbText
 73
2
  0
TEXT
  5
355
330
1F6
100
AcDbEntity
 67
1
  8
TEXT
100
AcDbText
 10
106.0
 20
95.5
 30
0.0
 40
1.5
  1
A-
  7
ISO
 72
1
 11
106.0
 21
95.5
 31
0.0
100
AcDbText
 73
1
  0
LWPOLYLINE
  5
356
330
1F6
100
AcDbEntity
 67
1
  8
WIRE-COLOURS
 62
8
100
AcDbPolyline
 90
2
 70
0
 10
106.0
 20
94.0
 10
106.0
 20
86.0
  0
TEXT
  5
357
330
1F6
100
AcDbEntity
 67
1
  8
WIRE-COLOURS
100
AcDbText
 10
106.8
 20
90.0
 30
0.0
 40
1.4
  1
wht
  7
ISO
 11
106.8
 21
90.0
 31
0.0
100
AcDbText
 73
2
  0
TEXT
  5
358
330
1F6
100
AcDbEntity
 67
1
  8
TEXT
100
AcDbText
 10
116.0
 20
95.5
 30
0.0
 40
1.5
  1
A+
  7
ISO
 72
1
 11
116.0
 21
95.5
 31
0.0
100
AcDbText
 73
1
  0
LWPOLYLINE
  5
359
330
1F6
100
AcDbEntity
 67
1
  8
WIRE-COLOURS
 62
3
100
AcDbPolyline
 90
2
 70
0
 10
116.0
 20
94.0
 10
116.0
 20
86.0
  0
TEXT
  5
35A
330
1F6
100
AcDbEntity
 67
1
  8
WIRE-COLOURS
100
AcDbText
 10
116.8
 20
90.0
 30
0.0
 40
1.4
  1
grn
  7
ISO
 11
116.8
 21
90.0
 31
0.0
100
AcDbText
 73
2
  0
LWPOLYLINE
  5
35B
330
1F6
100
AcDbEntity
 67
1
  8
SYMBOLS
100
AcDbPolyline
 90
4
 70
1
 10
80.0
 20
78.0
 10
122.0
 20
78.0
 10
122.0
 20
86.0
 10
80.0
 20
86.0
  0
TEXT
  5
35C
330
1F6
100
AcDbEntity
 67
1
  8
TEXT
100
AcDbText
 10
101.0
 20
82.0
 30
0.0
 40
1.9
  1
LOAD CELL FR 10 kg
  7
ISO
 72
1
 11
101.0
 21
82.0
 31
0.0
100
AcDbText
 73
2
  0
LWPOLYLINE
  5
35D
330
1F6
100
AcDbEntity
 67
1
  8
SYMBOLS
100
AcDbPolyline
 90
4
 70
1
 10
132.0
 20
94.0
 10
174.0
 20
94.0
 10
174.0
 20
110.0
 10
132.0
 20
110.0
  0
TEXT
  5
35E
330
1F6
100
AcDbEntity
 67
1
  8
TEXT
100
AcDbText
 10
153.0
 20
102.0
 30
0.0
 40
2.3
  1
HX711 RL
  7
ISO
 72
1
 11
153.0
 21
102.0
 31
0.0
100
AcDbText
 73
2
  0
TEXT
  5
35F
330
1F6
100
AcDbEntity
 67
1
  8
TEXT
100
AcDbText
 10
138.0
 20
108.5
 30
0.0
 40
1.5
  1
VCC
  7
ISO
 72
1
 11
138.0
 21
108.5
 31
0.0
100
AcDbText
 73
3
  0
LWPOLYLINE
  5
360
330
1F6
100
AcDbEntity
 67
1
  8
NET-3V3
100
AcDbPolyline
 90
2
 70
0
 10
138.0
 20
110.0
 10
138.0
 20
115.0
  0
TEXT
  5
361
330
1F6
100
AcDbEntity
 67
1
  8
NET-3V3
100
AcDbText
 10
138.8
 20
116.0
 30
0.0
 40
1.9
  1
3V3_B
 50
90.0
  7
ISO
 11
138.8
 21
116.0
 31
0.0
100
AcDbText
 73
2
  0
TEXT
  5
362
330
1F6
100
AcDbEntity
 67
1
  8
TEXT
100
AcDbText
 10
148.0
 20
108.5
 30
0.0
 40
1.5
  1
GND
  7
ISO
 72
1
 11
148.0
 21
108.5
 31
0.0
100
AcDbText
 73
3
  0
LWPOLYLINE
  5
363
330
1F6
100
AcDbEntity
 67
1
  8
NET-GND
100
AcDbPolyline
 90
2
 70
0
 10
148.0
 20
110.0
 10
148.0
 20
115.0
  0
TEXT
  5
364
330
1F6
100
AcDbEntity
 67
1
  8
NET-GND
100
AcDbText
 10
148.8
 20
116.0
 30
0.0
 40
1.9
  1
GND
 50
90.0
  7
ISO
 11
148.8
 21
116.0
 31
0.0
100
AcDbText
 73
2
  0
TEXT
  5
365
330
1F6
100
AcDbEntity
 67
1
  8
TEXT
100
AcDbText
 10
158.0
 20
108.5
 30
0.0
 40
1.5
  1
DT
  7
ISO
 72
1
 11
158.0
 21
108.5
 31
0.0
100
AcDbText
 73
3
  0
LWPOLYLINE
  5
366
330
1F6
100
AcDbEntity
 67
1
  8
NET-SIGNAL
100
AcDbPolyline
 90
2
 70
0
 10
158.0
 20
110.0
 10
158.0
 20
115.0
  0
TEXT
  5
367
330
1F6
100
AcDbEntity
 67
1
  8
NET-SIGNAL
100
AcDbText
 10
158.8
 20
116.0
 30
0.0
 40
1.9
  1
HX_RL_DT
 50
90.0
  7
ISO
 11
158.8
 21
116.0
 31
0.0
100
AcDbText
 73
2
  0
TEXT
  5
368
330
1F6
100
AcDbEntity
 67
1
  8
TEXT
100
AcDbText
 10
168.0
 20
108.5
 30
0.0
 40
1.5
  1
SCK
  7
ISO
 72
1
 11
168.0
 21
108.5
 31
0.0
100
AcDbText
 73
3
  0
LWPOLYLINE
  5
369
330
1F6
100
AcDbEntity
 67
1
  8
NET-SIGNAL
100
AcDbPolyline
 90
2
 70
0
 10
168.0
 20
110.0
 10
168.0
 20
115.0
  0
TEXT
  5
36A
330
1F6
100
AcDbEntity
 67
1
  8
NET-SIGNAL
100
AcDbText
 10
168.8
 20
116.0
 30
0.0
 40
1.9
  1
HX_SCK
 50
90.0
  7
ISO
 11
168.8
 21
116.0
 31
0.0
100
AcDbText
 73
2
  0
TEXT
  5
36B
330
1F6
100
AcDbEntity
 67
1
  8
TEXT
100
AcDbText
 10
138.0
 20
95.5
 30
0.0
 40
1.5
  1
E+
  7
ISO
 72
1
 11
138.0
 21
95.5
 31
0.0
100
AcDbText
 73
1
  0
LWPOLYLINE
  5
36C
330
1F6
100
AcDbEntity
 67
1
  8
WIRE-COLOURS
 62
1
100
AcDbPolyline
 90
2
 70
0
 10
138.0
 20
94.0
 10
138.0
 20
86.0
  0
TEXT
  5
36D
330
1F6
100
AcDbEntity
 67
1
  8
WIRE-COLOURS
100
AcDbText
 10
138.8
 20
90.0
 30
0.0
 40
1.4
  1
red
  7
ISO
 11
138.8
 21
90.0
 31
0.0
100
AcDbText
 73
2
  0
TEXT
  5
36E
330
1F6
100
AcDbEntity
 67
1
  8
TEXT
100
AcDbText
 10
148.0
 20
95.5
 30
0.0
 40
1.5
  1
E-
  7
ISO
 72
1
 11
148.0
 21
95.5
 31
0.0
100
AcDbText
 73
1
  0
LWPOLYLINE
  5
36F
330
1F6
100
AcDbEntity
 67
1
  8
WIRE-COLOURS
 62
7
100
AcDbPolyline
 90
2
 70
0
 10
148.0
 20
94.0
 10
148.0
 20
86.0
  0
TEXT
  5
370
330
1F6
100
AcDbEntity
 67
1
  8
WIRE-COLOURS
100
AcDbText
 10
148.8
 20
90.0
 30
0.0
 40
1.4
  1
blk
  7
ISO
 11
148.8
 21
90.0
 31
0.0
100
AcDbText
 73
2
  0
TEXT
  5
371
330
1F6
100
AcDbEntity
 67
1
  8
TEXT
100
AcDbText
 10
158.0
 20
95.5
 30
0.0
 40
1.5
  1
A-
  7
ISO
 72
1
 11
158.0
 21
95.5
 31
0.0
100
AcDbText
 73
1
  0
LWPOLYLINE
  5
372
330
1F6
100
AcDbEntity
 67
1
  8
WIRE-COLOURS
 62
8
100
AcDbPolyline
 90
2
 70
0
 10
158.0
 20
94.0
 10
158.0
 20
86.0
  0
TEXT
  5
373
330
1F6
100
AcDbEntity
 67
1
  8
WIRE-COLOURS
100
AcDbText
 10
158.8
 20
90.0
 30
0.0
 40
1.4
  1
wht
  7
ISO
 11
158.8
 21
90.0
 31
0.0
100
AcDbText
 73
2
  0
TEXT
  5
374
330
1F6
100
AcDbEntity
 67
1
  8
TEXT
100
AcDbText
 10
168.0
 20
95.5
 30
0.0
 40
1.5
  1
A+
  7
ISO
 72
1
 11
168.0
 21
95.5
 31
0.0
100
AcDbText
 73
1
  0
LWPOLYLINE
  5
375
330
1F6
100
AcDbEntity
 67
1
  8
WIRE-COLOURS
 62
3
100
AcDbPolyline
 90
2
 70
0
 10
168.0
 20
94.0
 10
168.0
 20
86.0
  0
TEXT
  5
376
330
1F6
100
AcDbEntity
 67
1
  8
WIRE-COLOURS
100
AcDbText
 10
168.8
 20
90.0
 30
0.0
 40
1.4
  1
grn
  7
ISO
 11
168.8
 21
90.0
 31
0.0
100
AcDbText
 73
2
  0
LWPOLYLINE
  5
377
330
1F6
100
AcDbEntity
 67
1
  8
SYMBOLS
100
AcDbPolyline
 90
4
 70
1
 10
132.0
 20
78.0
 10
174.0
 20
78.0
 10
174.0
 20
86.0
 10
132.0
 20
86.0
  0
TEXT
  5
378
330
1F6
100
AcDbEntity
 67
1
  8
TEXT
100
AcDbText
 10
153.0
 20
82.0
 30
0.0
 40
1.9
  1
LOAD CELL RL 10 kg
  7
ISO
 72
1
 11
153.0
 21
82.0
 31
0.0
100
AcDbText
 73
2
  0
LWPOLYLINE
  5
379
330
1F6
100
AcDbEntity
 67
1
  8
SYMBOLS
100
AcDbPolyline
 90
4
 70
1
 10
184.0
 20
94.0
 10
226.0
 20
94.0
 10
226.0
 20
110.0
 10
184.0
 20
110.0
  0
TEXT
  5
37A
330
1F6
100
AcDbEntity
 67
1
  8
TEXT
100
AcDbText
 10
205.0
 20
102.0
 30
0.0
 40
2.3
  1
HX711 RR
  7
ISO
 72
1
 11
205.0
 21
102.0
 31
0.0
100
AcDbText
 73
2
  0
TEXT
  5
37B
330
1F6
100
AcDbEntity
 67
1
  8
TEXT
100
AcDbText
 10
190.0
 20
108.5
 30
0.0
 40
1.5
  1
VCC
  7
ISO
 72
1
 11
190.0
 21
108.5
 31
0.0
100
AcDbText
 73
3
  0
LWPOLYLINE
  5
37C
330
1F6
100
AcDbEntity
 67
1
  8
NET-3V3
100
AcDbPolyline
 90
2
 70
0
 10
190.0
 20
110.0
 10
190.0
 20
115.0
  0
TEXT
  5
37D
330
1F6
100
AcDbEntity
 67
1
  8
NET-3V3
100
AcDbText
 10
190.8
 20
116.0
 30
0.0
 40
1.9
  1
3V3_B
 50
90.0
  7
ISO
 11
190.8
 21
116.0
 31
0.0
100
AcDbText
 73
2
  0
TEXT
  5
37E
330
1F6
100
AcDbEntity
 67
1
  8
TEXT
100
AcDbText
 10
200.0
 20
108.5
 30
0.0
 40
1.5
  1
GND
  7
ISO
 72
1
 11
200.0
 21
108.5
 31
0.0
100
AcDbText
 73
3
  0
LWPOLYLINE
  5
37F
330
1F6
100
AcDbEntity
 67
1
  8
NET-GND
100
AcDbPolyline
 90
2
 70
0
 10
200.0
 20
110.0
 10
200.0
 20
115.0
  0
TEXT
  5
380
330
1F6
100
AcDbEntity
 67
1
  8
NET-GND
100
AcDbText
 10
200.8
 20
116.0
 30
0.0
 40
1.9
  1
GND
 50
90.0
  7
ISO
 11
200.8
 21
116.0
 31
0.0
100
AcDbText
 73
2
  0
TEXT
  5
381
330
1F6
100
AcDbEntity
 67
1
  8
TEXT
100
AcDbText
 10
210.0
 20
108.5
 30
0.0
 40
1.5
  1
DT
  7
ISO
 72
1
 11
210.0
 21
108.5
 31
0.0
100
AcDbText
 73
3
  0
LWPOLYLINE
  5
382
330
1F6
100
AcDbEntity
 67
1
  8
NET-SIGNAL
100
AcDbPolyline
 90
2
 70
0
 10
210.0
 20
110.0
 10
210.0
 20
115.0
  0
TEXT
  5
383
330
1F6
100
AcDbEntity
 67
1
  8
NET-SIGNAL
100
AcDbText
 10
210.8
 20
116.0
 30
0.0
 40
1.9
  1
HX_RR_DT
 50
90.0
  7
ISO
 11
210.8
 21
116.0
 31
0.0
100
AcDbText
 73
2
  0
TEXT
  5
384
330
1F6
100
AcDbEntity
 67
1
  8
TEXT
100
AcDbText
 10
220.0
 20
108.5
 30
0.0
 40
1.5
  1
SCK
  7
ISO
 72
1
 11
220.0
 21
108.5
 31
0.0
100
AcDbText
 73
3
  0
LWPOLYLINE
  5
385
330
1F6
100
AcDbEntity
 67
1
  8
NET-SIGNAL
100
AcDbPolyline
 90
2
 70
0
 10
220.0
 20
110.0
 10
220.0
 20
115.0
  0
TEXT
  5
386
330
1F6
100
AcDbEntity
 67
1
  8
NET-SIGNAL
100
AcDbText
 10
220.8
 20
116.0
 30
0.0
 40
1.9
  1
HX_SCK
 50
90.0
  7
ISO
 11
220.8
 21
116.0
 31
0.0
100
AcDbText
 73
2
  0
TEXT
  5
387
330
1F6
100
AcDbEntity
 67
1
  8
TEXT
100
AcDbText
 10
190.0
 20
95.5
 30
0.0
 40
1.5
  1
E+
  7
ISO
 72
1
 11
190.0
 21
95.5
 31
0.0
100
AcDbText
 73
1
  0
LWPOLYLINE
  5
388
330
1F6
100
AcDbEntity
 67
1
  8
WIRE-COLOURS
 62
1
100
AcDbPolyline
 90
2
 70
0
 10
190.0
 20
94.0
 10
190.0
 20
86.0
  0
TEXT
  5
389
330
1F6
100
AcDbEntity
 67
1
  8
WIRE-COLOURS
100
AcDbText
 10
190.8
 20
90.0
 30
0.0
 40
1.4
  1
red
  7
ISO
 11
190.8
 21
90.0
 31
0.0
100
AcDbText
 73
2
  0
TEXT
  5
38A
330
1F6
100
AcDbEntity
 67
1
  8
TEXT
100
AcDbText
 10
200.0
 20
95.5
 30
0.0
 40
1.5
  1
E-
  7
ISO
 72
1
 11
200.0
 21
95.5
 31
0.0
100
AcDbText
 73
1
  0
LWPOLYLINE
  5
38B
330
1F6
100
AcDbEntity
 67
1
  8
WIRE-COLOURS
 62
7
100
AcDbPolyline
 90
2
 70
0
 10
200.0
 20
94.0
 10
200.0
 20
86.0
  0
TEXT
  5
38C
330
1F6
100
AcDbEntity
 67
1
  8
WIRE-COLOURS
100
AcDbText
 10
200.8
 20
90.0
 30
0.0
 40
1.4
  1
blk
  7
ISO
 11
200.8
 21
90.0
 31
0.0
100
AcDbText
 73
2
  0
TEXT
  5
38D
330
1F6
100
AcDbEntity
 67
1
  8
TEXT
100
AcDbText
 10
210.0
 20
95.5
 30
0.0
 40
1.5
  1
A-
  7
ISO
 72
1
 11
210.0
 21
95.5
 31
0.0
100
AcDbText
 73
1
  0
LWPOLYLINE
  5
38E
330
1F6
100
AcDbEntity
 67
1
  8
WIRE-COLOURS
 62
8
100
AcDbPolyline
 90
2
 70
0
 10
210.0
 20
94.0
 10
210.0
 20
86.0
  0
TEXT
  5
38F
330
1F6
100
AcDbEntity
 67
1
  8
WIRE-COLOURS
100
AcDbText
 10
210.8
 20
90.0
 30
0.0
 40
1.4
  1
wht
  7
ISO
 11
210.8
 21
90.0
 31
0.0
100
AcDbText
 73
2
  0
TEXT
  5
390
330
1F6
100
AcDbEntity
 67
1
  8
TEXT
100
AcDbText
 10
220.0
 20
95.5
 30
0.0
 40
1.5
  1
A+
  7
ISO
 72
1
 11
220.0
 21
95.5
 31
0.0
100
AcDbText
 73
1
  0
LWPOLYLINE
  5
391
330
1F6
100
AcDbEntity
 67
1
  8
WIRE-COLOURS
 62
3
100
AcDbPolyline
 90
2
 70
0
 10
220.0
 20
94.0
 10
220.0
 20
86.0
  0
TEXT
  5
392
330
1F6
100
AcDbEntity
 67
1
  8
WIRE-COLOURS
100
AcDbText
 10
220.8
 20
90.0
 30
0.0
 40
1.4
  1
grn
  7
ISO
 11
220.8
 21
90.0
 31
0.0
100
AcDbText
 73
2
  0
LWPOLYLINE
  5
393
330
1F6
100
AcDbEntity
 67
1
  8
SYMBOLS
100
AcDbPolyline
 90
4
 70
1
 10
184.0
 20
78.0
 10
226.0
 20
78.0
 10
226.0
 20
86.0
 10
184.0
 20
86.0
  0
TEXT
  5
394
330
1F6
100
AcDbEntity
 67
1
  8
TEXT
100
AcDbText
 10
205.0
 20
82.0
 30
0.0
 40
1.9
  1
LOAD CELL RR 10 kg
  7
ISO
 72
1
 11
205.0
 21
82.0
 31
0.0
100
AcDbText
 73
2
  0
TEXT
  5
395
330
1F6
100
AcDbEntity
 67
1
  8
TEXT
100
AcDbText
 10
28.0
 20
73.0
 30
0.0
 40
1.8
  1
FL/FR/RL/RR = front-left / front-right / rear-left / rear-right, looking down, front away from you.
  7
ISO
 11
28.0
 21
73.0
 31
0.0
100
AcDbText
  0
TEXT
  5
396
330
1F6
100
AcDbEntity
 67
1
  8
TEXT
100
AcDbText
 10
28.0
 20
69.5
 30
0.0
 40
1.8
  1
A cell that reads negative: swap its A+/A- (green/white) or set its sign to -1 in robot.yaml.
  7
ISO
 11
28.0
 21
69.5
 31
0.0
100
AcDbText
  0
LWPOLYLINE
  5
397
330
1F6
100
AcDbEntity
 67
1
  8
SYMBOLS
100
AcDbPolyline
 90
4
 70
1
 10
262.0
 20
96.0
 10
292.0
 20
96.0
 10
292.0
 20
136.0
 10
262.0
 20
136.0
  0
TEXT
  5
398
330
1F6
100
AcDbEntity
 67
1
  8
TEXT
100
AcDbText
 10
277.0
 20
133.0
 30
0.0
 40
2.0
  1
RASPBERRY PI 5
  7
ISO
 72
1
 11
277.0
 21
133.0
 31
0.0
100
AcDbText
 73
3
  0
TEXT
  5
399
330
1F6
100
AcDbEntity
 67
1
  8
TEXT
100
AcDbText
 10
277.0
 20
129.5
 30
0.0
 40
1.7
  1
USB ports
  7
ISO
 72
1
 11
277.0
 21
129.5
 31
0.0
100
AcDbText
 73
3
  0
TEXT
  5
39A
330
1F6
100
AcDbEntity
 67
1
  8
TEXT
100
AcDbText
 10
291.0
 20
122.0
 30
0.0
 40
1.8
  1
USB 2.0
  7
ISO
 72
2
 11
291.0
 21
122.0
 31
0.0
100
AcDbText
 73
2
  0
LWPOLYLINE
  5
39B
330
1F6
100
AcDbEntity
 67
1
  8
NET-USB
100
AcDbPolyline
 90
2
 70
0
 10
292.0
 20
122.0
 10
305.0
 20
122.0
  0
TEXT
  5
39C
330
1F6
100
AcDbEntity
 67
1
  8
NET-USB
100
AcDbText
 10
307.0
 20
122.0
 30
0.0
 40
1.9
  1
RPLIDAR A1M8 + USB adapter (CP2102) -> /dev/rplidar
  7
ISO
 11
307.0
 21
122.0
 31
0.0
100
AcDbText
 73
2
  0
TEXT
  5
39D
330
1F6
100
AcDbEntity
 67
1
  8
TEXT
100
AcDbText
 10
291.0
 20
112.0
 30
0.0
 40
1.8
  1
USB 3.0
  7
ISO
 72
2
 11
291.0
 21
112.0
 31
0.0
100
AcDbText
 73
2
  0
LWPOLYLINE
  5
39E
330
1F6
100
AcDbEntity
 67
1
  8
NET-USB
100
AcDbPolyline
 90
2
 70
0
 10
292.0
 20
112.0
 10
305.0
 20
112.0
  0
TEXT
  5
39F
330
1F6
100
AcDbEntity
 67
1
  8
NET-USB
100
AcDbText
 10
307.0
 20
112.0
 30
0.0
 40
1.9
  1
USB camera, UVC -> /dev/video0
  7
ISO
 11
307.0
 21
112.0
 31
0.0
100
AcDbText
 73
2
  0
TEXT
  5
3A0
330
1F6
100
AcDbEntity
 67
1
  8
TEXT
100
AcDbText
 10
291.0
 20
102.0
 30
0.0
 40
1.8
  1
USB-C
  7
ISO
 72
2
 11
291.0
 21
102.0
 31
0.0
100
AcDbText
 73
2
  0
LWPOLYLINE
  5
3A1
330
1F6
100
AcDbEntity
 67
1
  8
NET-5V
100
AcDbPolyline
 90
2
 70
0
 10
292.0
 20
102.0
 10
305.0
 20
102.0
  0
TEXT
  5
3A2
330
1F6
100
AcDbEntity
 67
1
  8
NET-5V
100
AcDbText
 10
307.0
 20
102.0
 30
0.0
 40
1.9
  1
power in: buck 5.1 V (E02)
  7
ISO
 11
307.0
 21
102.0
 31
0.0
100
AcDbText
 73
2
  0
TEXT
  5
3A3
330
1F6
100
AcDbEntity
 67
1
  8
NET-SIGNAL
100
AcDbText
 10
262.0
 20
90.0
 30
0.0
 40
1.9
  1
ESTOP_SENSE comes from the R1/R2 divider on E02 (junction below R1).
  7
ISO
 11
262.0
 21
90.0
 31
0.0
100
AcDbText
  0
TEXT
  5
3A4
330
1F6
100
AcDbEntity
 67
1
  8
TEXT
100
AcDbText
 10
262.0
 20
85.5
 30
0.0
 40
1.9
  1
Same net name = same wire. Wire IDs S1..S30: BUILD_GUIDE.md week 3.
  7
ISO
 11
262.0
 21
85.5
 31
0.0
100
AcDbText
  0
ENDBLK
  5
1F8
330
1F6
100
AcDbEntity
  8
0
100
AcDbBlockEnd
  0
BLOCK
  5
98
330
97
100
AcDbEntity
  8
0
100
AcDbBlockBegin
  2
*Paper_Space
 70
0
 10
0.0
 20
0.0
 30
0.0
  3
*Paper_Space
  1

  0
ENDBLK
  5
99
330
97
100
AcDbEntity
  8
0
100
AcDbBlockEnd
  0
ENDSEC
  0
SECTION
  2
ENTITIES
  0
VIEWPORT
  5
9B
330
97
100
AcDbEntity
 67
1
  8
VIEWPORTS
100
AcDbViewport
 10
210.0
 20
148.5
 30
0.0
 40
462.00000000000006
 41
326.70000000000005
 68
1
 69
1
 12
210.0
 22
148.5
 13
0.0
 23
0.0
 14
10.0
 24
10.0
 15
10.0
 25
10.0
 16
0.0
 26
0.0
 36
1.0
 17
0.0
 27
0.0
 37
0.0
 42
50.0
 43
0.0
 44
0.0
 45
326.70000000000005
 50
0.0
 51
0.0
 72
100
 90
557088
  1

281
0
 71
0
 74
0
110
0.0
120
0.0
130
0.0
111
1.0
121
0.0
131
0.0
112
0.0
122
1.0
132
0.0
 79
0
146
0.0
282
0
  0
LWPOLYLINE
  5
9C
330
97
100
AcDbEntity
 67
1
  8
TITLEBLOCK
100
AcDbPolyline
 90
4
 70
1
 10
20.0
 20
10.0
 10
410.0
 20
10.0
 10
410.0
 20
287.0
 10
20.0
 20
287.0
  0
LWPOLYLINE
  5
9D
330
97
100
AcDbEntity
 67
1
  8
TITLEBLOCK
100
AcDbPolyline
 90
4
 70
1
 10
230.0
 20
10.0
 10
410.0
 20
10.0
 10
410.0
 20
62.0
 10
230.0
 20
62.0
  0
LWPOLYLINE
  5
9E
330
97
100
AcDbEntity
 67
1
  8
TITLEBLOCK
100
AcDbPolyline
 90
2
 70
0
 10
230.0
 20
22.0
 10
410.0
 20
22.0
  0
LWPOLYLINE
  5
9F
330
97
100
AcDbEntity
 67
1
  8
TITLEBLOCK
100
AcDbPolyline
 90
2
 70
0
 10
230.0
 20
34.0
 10
410.0
 20
34.0
  0
LWPOLYLINE
  5
A0
330
97
100
AcDbEntity
 67
1
  8
TITLEBLOCK
100
AcDbPolyline
 90
2
 70
0
 10
230.0
 20
48.0
 10
410.0
 20
48.0
  0
LWPOLYLINE
  5
A1
330
97
100
AcDbEntity
 67
1
  8
TITLEBLOCK
100
AcDbPolyline
 90
2
 70
0
 10
350.0
 20
34.0
 10
350.0
 20
48.0
  0
TEXT
  5
A2
330
97
100
AcDbEntity
 67
1
  8
TEXT
100
AcDbText
 10
231.2
 20
19.8
 30
0.0
 40
1.8
  1
SCALE
  7
ISO
 11
231.2
 21
19.8
 31
0.0
100
AcDbText
  0
TEXT
  5
A3
330
97
100
AcDbEntity
 67
1
  8
TEXT
100
AcDbText
 10
244.0
 20
13.5
 30
0.0
 40
2.8
  1
NTS
  7
ISO
 72
1
 11
244.0
 21
13.5
 31
0.0
100
AcDbText
 73
2
  0
LWPOLYLINE
  5
A4
330
97
100
AcDbEntity
 67
1
  8
TITLEBLOCK
100
AcDbPolyline
 90
2
 70
0
 10
258.0
 20
10.0
 10
258.0
 20
22.0
  0
TEXT
  5
A5
330
97
100
AcDbEntity
 67
1
  8
TEXT
100
AcDbText
 10
259.2
 20
19.8
 30
0.0
 40
1.8
  1
SHEET
  7
ISO
 11
259.2
 21
19.8
 31
0.0
100
AcDbText
  0
TEXT
  5
A6
330
97
100
AcDbEntity
 67
1
  8
TEXT
100
AcDbText
 10
272.0
 20
13.5
 30
0.0
 40
2.8
  1
1 / 3
  7
ISO
 72
1
 11
272.0
 21
13.5
 31
0.0
100
AcDbText
 73
2
  0
LWPOLYLINE
  5
A7
330
97
100
AcDbEntity
 67
1
  8
TITLEBLOCK
100
AcDbPolyline
 90
2
 70
0
 10
286.0
 20
10.0
 10
286.0
 20
22.0
  0
TEXT
  5
A8
330
97
100
AcDbEntity
 67
1
  8
TEXT
100
AcDbText
 10
287.2
 20
19.8
 30
0.0
 40
1.8
  1
UNITS
  7
ISO
 11
287.2
 21
19.8
 31
0.0
100
AcDbText
  0
TEXT
  5
A9
330
97
100
AcDbEntity
 67
1
  8
TEXT
100
AcDbText
 10
298.0
 20
13.5
 30
0.0
 40
2.8
  1
-
  7
ISO
 72
1
 11
298.0
 21
13.5
 31
0.0
100
AcDbText
 73
2
  0
LWPOLYLINE
  5
AA
330
97
100
AcDbEntity
 67
1
  8
TITLEBLOCK
100
AcDbPolyline
 90
2
 70
0
 10
310.0
 20
10.0
 10
310.0
 20
22.0
  0
TEXT
  5
AB
330
97
100
AcDbEntity
 67
1
  8
TEXT
100
AcDbText
 10
311.2
 20
19.8
 30
0.0
 40
1.8
  1
TYPE
  7
ISO
 11
311.2
 21
19.8
 31
0.0
100
AcDbText
  0
TEXT
  5
AC
330
97
100
AcDbEntity
 67
1
  8
TEXT
100
AcDbText
 10
328.0
 20
13.5
 30
0.0
 40
2.8
  1
SCHEMATIC
  7
ISO
 72
1
 11
328.0
 21
13.5
 31
0.0
100
AcDbText
 73
2
  0
LWPOLYLINE
  5
AD
330
97
100
AcDbEntity
 67
1
  8
TITLEBLOCK
100
AcDbPolyline
 90
2
 70
0
 10
346.0
 20
10.0
 10
346.0
 20
22.0
  0
TEXT
  5
AE
330
97
100
AcDbEntity
 67
1
  8
TEXT
100
AcDbText
 10
347.2
 20
19.8
 30
0.0
 40
1.8
  1
DATE
  7
ISO
 11
347.2
 21
19.8
 31
0.0
100
AcDbText
  0
TEXT
  5
AF
330
97
100
AcDbEntity
 67
1
  8
TEXT
100
AcDbText
 10
361.0
 20
13.5
 30
0.0
 40
2.8
  1
29/09/2026
  7
ISO
 72
1
 11
361.0
 21
13.5
 31
0.0
100
AcDbText
 73
2
  0
LWPOLYLINE
  5
B0
330
97
100
AcDbEntity
 67
1
  8
TITLEBLOCK
100
AcDbPolyline
 90
2
 70
0
 10
376.0
 20
10.0
 10
376.0
 20
22.0
  0
TEXT
  5
B1
330
97
100
AcDbEntity
 67
1
  8
TEXT
100
AcDbText
 10
377.2
 20
19.8
 30
0.0
 40
1.8
  1
DRAWN
  7
ISO
 11
377.2
 21
19.8
 31
0.0
100
AcDbText
  0
TEXT
  5
B2
330
97
100
AcDbEntity
 67
1
  8
TEXT
100
AcDbText
 10
393.0
 20
13.5
 30
0.0
 40
2.8
  1

  7
ISO
 72
1
 11
393.0
 21
13.5
 31
0.0
100
AcDbText
 73
2
  0
TEXT
  5
B3
330
97
100
AcDbEntity
 67
1
  8
TEXT
100
AcDbText
 10
231.2
 20
59.5
 30
0.0
 40
1.8
  1
PROJECT
  7
ISO
 11
231.2
 21
59.5
 31
0.0
100
AcDbText
  0
TEXT
  5
B4
330
97
100
AcDbEntity
 67
1
  8
TEXT
100
AcDbText
 10
320.0
 20
53.5
 30
0.0
 40
4.2
  1
AUTONOMOUS CARGO ROBOT - DESIGN v2
  7
ISO
 72
1
 11
320.0
 21
53.5
 31
0.0
100
AcDbText
 73
2
  0
TEXT
  5
B5
330
97
100
AcDbEntity
 67
1
  8
TEXT
100
AcDbText
 10
231.2
 20
45.6
 30
0.0
 40
1.8
  1
TITLE
  7
ISO
 11
231.2
 21
45.6
 31
0.0
100
AcDbText
  0
TEXT
  5
B6
330
97
100
AcDbEntity
 67
1
  8
TEXT
100
AcDbText
 10
290.0
 20
39.5
 30
0.0
 40
3.8
  1
SYSTEM BLOCK DIAGRAM
  7
ISO
 72
1
 11
290.0
 21
39.5
 31
0.0
100
AcDbText
 73
2
  0
TEXT
  5
B7
330
97
100
AcDbEntity
 67
1
  8
TEXT
100
AcDbText
 10
351.2
 20
45.6
 30
0.0
 40
1.8
  1
DWG No.
  7
ISO
 11
351.2
 21
45.6
 31
0.0
100
AcDbText
  0
TEXT
  5
B8
330
97
100
AcDbEntity
 67
1
  8
TEXT
100
AcDbText
 10
380.0
 20
39.5
 30
0.0
 40
3.5
  1
CR-V2-E01
  7
ISO
 72
1
 11
380.0
 21
39.5
 31
0.0
100
AcDbText
 73
2
  0
TEXT
  5
B9
330
97
100
AcDbEntity
 67
1
  8
TEXT
100
AcDbText
 10
320.0
 20
28.0
 30
0.0
 40
2.0
  1
ARAB ACADEMY FOR SCIENCE, TECHNOLOGY & MARITIME TRANSPORT - GRADUATION PROJECT II
  7
ISO
 72
1
 11
320.0
 21
28.0
 31
0.0
100
AcDbText
 73
2
  0
LWPOLYLINE
  5
BA
330
97
100
AcDbEntity
 67
1
  8
SYMBOLS
100
AcDbPolyline
 90
4
 70
1
 10
28.0
 20
205.0
 10
78.0
 20
205.0
 10
78.0
 20
235.0
 10
28.0
 20
235.0
  0
TEXT
  5
BB
330
97
100
AcDbEntity
 67
1
  8
TEXT
100
AcDbText
 10
53.0
 20
232.5
 30
0.0
 40
2.6
  1
BATTERY
  7
ISO
 72
1
 11
53.0
 21
232.5
 31
0.0
100
AcDbText
 73
3
  0
TEXT
  5
BC
330
97
100
AcDbEntity
 67
1
  8
TEXT
100
AcDbText
 10
53.0
 20
225.49
 30
0.0
 40
2.08
  1
3S LiPo 11.1 V
  7
ISO
 72
1
 11
53.0
 21
225.49
 31
0.0
100
AcDbText
 73
1
  0
TEXT
  5
BD
330
97
100
AcDbEntity
 67
1
  8
TEXT
100
AcDbText
 10
53.0
 20
222.08
 30
0.0
 40
2.08
  1
5000 mAh, XT60
  7
ISO
 72
1
 11
53.0
 21
222.08
 31
0.0
100
AcDbText
 73
1
  0
LWPOLYLINE
  5
BE
330
97
100
AcDbEntity
 67
1
  8
SYMBOLS
100
AcDbPolyline
 90
4
 70
1
 10
100.0
 20
205.0
 10
150.0
 20
205.0
 10
150.0
 20
235.0
 10
100.0
 20
235.0
  0
TEXT
  5
BF
330
97
100
AcDbEntity
 67
1
  8
TEXT
100
AcDbText
 10
125.0
 20
232.5
 30
0.0
 40
2.6
  1
F1 + SW1
  7
ISO
 72
1
 11
125.0
 21
232.5
 31
0.0
100
AcDbText
 73
3
  0
TEXT
  5
C0
330
97
100
AcDbEntity
 67
1
  8
TEXT
100
AcDbText
 10
125.0
 20
225.49
 30
0.0
 40
2.08
  1
10 A fuse
  7
ISO
 72
1
 11
125.0
 21
225.49
 31
0.0
100
AcDbText
 73
1
  0
TEXT
  5
C1
330
97
100
AcDbEntity
 67
1
  8
TEXT
100
AcDbText
 10
125.0
 20
222.08
 30
0.0
 40
2.08
  1
master switch
  7
ISO
 72
1
 11
125.0
 21
222.08
 31
0.0
100
AcDbText
 73
1
  0
LWPOLYLINE
  5
C2
330
97
100
AcDbEntity
 67
1
  8
SYMBOLS
100
AcDbPolyline
 90
4
 70
1
 10
175.0
 20
240.0
 10
225.0
 20
240.0
 10
225.0
 20
268.0
 10
175.0
 20
268.0
  0
TEXT
  5
C3
330
97
100
AcDbEntity
 67
1
  8
TEXT
100
AcDbText
 10
200.0
 20
265.5
 30
0.0
 40
2.6
  1
S1 E-STOP
  7
ISO
 72
1
 11
200.0
 21
265.5
 31
0.0
100
AcDbText
 73
3
  0
TEXT
  5
C4
330
97
100
AcDbEntity
 67
1
  8
TEXT
100
AcDbText
 10
200.0
 20
258.48999999999995
 30
0.0
 40
2.08
  1
latching, NC
  7
ISO
 72
1
 11
200.0
 21
258.48999999999995
 31
0.0
100
AcDbText
 73
1
  0
TEXT
  5
C5
330
97
100
AcDbEntity
 67
1
  8
TEXT
100
AcDbText
 10
200.0
 20
255.07999999999998
 30
0.0
 40
2.08
  1
cuts motor 12 V
  7
ISO
 72
1
 11
200.0
 21
255.07999999999998
 31
0.0
100
AcDbText
 73
1
  0
LWPOLYLINE
  5
C6
330
97
100
AcDbEntity
 67
1
  8
SYMBOLS
100
AcDbPolyline
 90
4
 70
1
 10
175.0
 20
170.0
 10
225.0
 20
170.0
 10
225.0
 20
198.0
 10
175.0
 20
198.0
  0
TEXT
  5
C7
330
97
100
AcDbEntity
 67
1
  8
TEXT
100
AcDbText
 10
200.0
 20
195.5
 30
0.0
 40
2.6
  1
U1 BUCK
  7
ISO
 72
1
 11
200.0
 21
195.5
 31
0.0
100
AcDbText
 73
3
  0
TEXT
  5
C8
330
97
100
AcDbEntity
 67
1
  8
TEXT
100
AcDbText
 10
200.0
 20
188.49
 30
0.0
 40
2.08
  1
XL4015
  7
ISO
 72
1
 11
200.0
 21
188.49
 31
0.0
100
AcDbText
 73
1
  0
TEXT
  5
C9
330
97
100
AcDbEntity
 67
1
  8
TEXT
100
AcDbText
 10
200.0
 20
185.08
 30
0.0
 40
2.08
  1
12 V -> 5.1 V 5 A
  7
ISO
 72
1
 11
200.0
 21
185.08
 31
0.0
100
AcDbText
 73
1
  0
LWPOLYLINE
  5
CA
330
97
100
AcDbEntity
 67
1
  8
SYMBOLS
100
AcDbPolyline
 90
4
 70
1
 10
250.0
 20
140.0
 10
320.0
 20
140.0
 10
320.0
 20
230.0
 10
250.0
 20
230.0
  0
TEXT
  5
CB
330
97
100
AcDbEntity
 67
1
  8
TEXT
100
AcDbText
 10
285.0
 20
227.5
 30
0.0
 40
2.6
  1
RASPBERRY PI 5
  7
ISO
 72
1
 11
285.0
 21
227.5
 31
0.0
100
AcDbText
 73
3
  0
TEXT
  5
CC
330
97
100
AcDbEntity
 67
1
  8
TEXT
100
AcDbText
 10
285.0
 20
220.49
 30
0.0
 40
2.08
  1
8 GB, Ubuntu 24.04
  7
ISO
 72
1
 11
285.0
 21
220.49
 31
0.0
100
AcDbText
 73
1
  0
TEXT
  5
CD
330
97
100
AcDbEntity
 67
1
  8
TEXT
100
AcDbText
 10
285.0
 20
217.08
 30
0.0
 40
2.08
  1
ROS 2 Jazzy:
  7
ISO
 72
1
 11
285.0
 21
217.08
 31
0.0
100
AcDbText
 73
1
  0
TEXT
  5
CE
330
97
100
AcDbEntity
 67
1
  8
TEXT
100
AcDbText
 10
285.0
 20
213.67000000000002
 30
0.0
 40
2.08
  1
base_driver
  7
ISO
 72
1
 11
285.0
 21
213.67000000000002
 31
0.0
100
AcDbText
 73
1
  0
TEXT
  5
CF
330
97
100
AcDbEntity
 67
1
  8
TEXT
100
AcDbText
 10
285.0
 20
210.26
 30
0.0
 40
2.08
  1
payload_node
  7
ISO
 72
1
 11
285.0
 21
210.26
 31
0.0
100
AcDbText
 73
1
  0
TEXT
  5
D0
330
97
100
AcDbEntity
 67
1
  8
TEXT
100
AcDbText
 10
285.0
 20
206.85
 30
0.0
 40
2.08
  1
speed_limiter
  7
ISO
 72
1
 11
285.0
 21
206.85
 31
0.0
100
AcDbText
 73
1
  0
TEXT
  5
D1
330
97
100
AcDbEntity
 67
1
  8
TEXT
100
AcDbText
 10
285.0
 20
203.44
 30
0.0
 40
2.08
  1
vision_node
  7
ISO
 72
1
 11
285.0
 21
203.44
 31
0.0
100
AcDbText
 73
1
  0
TEXT
  5
D2
330
97
100
AcDbEntity
 67
1
  8
TEXT
100
AcDbText
 10
285.0
 20
200.03
 30
0.0
 40
2.08
  1
SLAM + Nav2
  7
ISO
 72
1
 11
285.0
 21
200.03
 31
0.0
100
AcDbText
 73
1
  0
LWPOLYLINE
  5
D3
330
97
100
AcDbEntity
 67
1
  8
SYMBOLS
100
AcDbPolyline
 90
4
 70
1
 10
250.0
 20
240.0
 10
320.0
 20
240.0
 10
320.0
 20
268.0
 10
250.0
 20
268.0
  0
TEXT
  5
D4
330
97
100
AcDbEntity
 67
1
  8
TEXT
100
AcDbText
 10
285.0
 20
265.5
 30
0.0
 40
2.6
  1
U2 + U3
  7
ISO
 72
1
 11
285.0
 21
265.5
 31
0.0
100
AcDbText
 73
3
  0
TEXT
  5
D5
330
97
100
AcDbEntity
 67
1
  8
TEXT
100
AcDbText
 10
285.0
 20
258.48999999999995
 30
0.0
 40
2.08
  1
2 x BTS7960
  7
ISO
 72
1
 11
285.0
 21
258.48999999999995
 31
0.0
100
AcDbText
 73
1
  0
TEXT
  5
D6
330
97
100
AcDbEntity
 67
1
  8
TEXT
100
AcDbText
 10
285.0
 20
255.07999999999998
 30
0.0
 40
2.08
  1
motor drivers
  7
ISO
 72
1
 11
285.0
 21
255.07999999999998
 31
0.0
100
AcDbText
 73
1
  0
LWPOLYLINE
  5
D7
330
97
100
AcDbEntity
 67
1
  8
SYMBOLS
100
AcDbPolyline
 90
4
 70
1
 10
345.0
 20
240.0
 10
405.0
 20
240.0
 10
405.0
 20
268.0
 10
345.0
 20
268.0
  0
TEXT
  5
D8
330
97
100
AcDbEntity
 67
1
  8
TEXT
100
AcDbText
 10
375.0
 20
265.5
 30
0.0
 40
2.6
  1
M1 + M2
  7
ISO
 72
1
 11
375.0
 21
265.5
 31
0.0
100
AcDbText
 73
3
  0
TEXT
  5
D9
330
97
100
AcDbEntity
 67
1
  8
TEXT
100
AcDbText
 10
375.0
 20
258.48999999999995
 30
0.0
 40
2.08
  1
JGB37-520 12 V
  7
ISO
 72
1
 11
375.0
 21
258.48999999999995
 31
0.0
100
AcDbText
 73
1
  0
TEXT
  5
DA
330
97
100
AcDbEntity
 67
1
  8
TEXT
100
AcDbText
 10
375.0
 20
255.07999999999998
 30
0.0
 40
2.08
  1
+ Hall encoders
  7
ISO
 72
1
 11
375.0
 21
255.07999999999998
 31
0.0
100
AcDbText
 73
1
  0
LWPOLYLINE
  5
DB
330
97
100
AcDbEntity
 67
1
  8
SYMBOLS
100
AcDbPolyline
 90
4
 70
1
 10
345.0
 20
185.0
 10
405.0
 20
185.0
 10
405.0
 20
213.0
 10
345.0
 20
213.0
  0
TEXT
  5
DC
330
97
100
AcDbEntity
 67
1
  8
TEXT
100
AcDbText
 10
375.0
 20
210.5
 30
0.0
 40
2.6
  1
4 x HX711
  7
ISO
 72
1
 11
375.0
 21
210.5
 31
0.0
100
AcDbText
 73
3
  0
TEXT
  5
DD
330
97
100
AcDbEntity
 67
1
  8
TEXT
100
AcDbText
 10
375.0
 20
203.49
 30
0.0
 40
2.08
  1
24-bit load-cell
  7
ISO
 72
1
 11
375.0
 21
203.49
 31
0.0
100
AcDbText
 73
1
  0
TEXT
  5
DE
330
97
100
AcDbEntity
 67
1
  8
TEXT
100
AcDbText
 10
375.0
 20
200.08
 30
0.0
 40
2.08
  1
amplifiers
  7
ISO
 72
1
 11
375.0
 21
200.08
 31
0.0
100
AcDbText
 73
1
  0
LWPOLYLINE
  5
DF
330
97
100
AcDbEntity
 67
1
  8
SYMBOLS
100
AcDbPolyline
 90
4
 70
1
 10
345.0
 20
150.0
 10
405.0
 20
150.0
 10
405.0
 20
176.0
 10
345.0
 20
176.0
  0
TEXT
  5
E0
330
97
100
AcDbEntity
 67
1
  8
TEXT
100
AcDbText
 10
375.0
 20
173.5
 30
0.0
 40
2.6
  1
4 x LOAD CELL
  7
ISO
 72
1
 11
375.0
 21
173.5
 31
0.0
100
AcDbText
 73
3
  0
TEXT
  5
E1
330
97
100
AcDbEntity
 67
1
  8
TEXT
100
AcDbText
 10
375.0
 20
166.49
 30
0.0
 40
2.08
  1
10 kg bar
  7
ISO
 72
1
 11
375.0
 21
166.49
 31
0.0
100
AcDbText
 73
1
  0
LWPOLYLINE
  5
E2
330
97
100
AcDbEntity
 67
1
  8
SYMBOLS
100
AcDbPolyline
 90
4
 70
1
 10
345.0
 20
110.0
 10
405.0
 20
110.0
 10
405.0
 20
136.0
 10
345.0
 20
136.0
  0
TEXT
  5
E3
330
97
100
AcDbEntity
 67
1
  8
TEXT
100
AcDbText
 10
375.0
 20
133.5
 30
0.0
 40
2.6
  1
RPLIDAR A1M8
  7
ISO
 72
1
 11
375.0
 21
133.5
 31
0.0
100
AcDbText
 73
3
  0
TEXT
  5
E4
330
97
100
AcDbEntity
 67
1
  8
TEXT
100
AcDbText
 10
375.0
 20
126.49000000000001
 30
0.0
 40
2.08
  1
360 deg 2D lidar
  7
ISO
 72
1
 11
375.0
 21
126.49000000000001
 31
0.0
100
AcDbText
 73
1
  0
LWPOLYLINE
  5
E5
330
97
100
AcDbEntity
 67
1
  8
SYMBOLS
100
AcDbPolyline
 90
4
 70
1
 10
345.0
 20
78.0
 10
405.0
 20
78.0
 10
405.0
 20
102.0
 10
345.0
 20
102.0
  0
TEXT
  5
E6
330
97
100
AcDbEntity
 67
1
  8
TEXT
100
AcDbText
 10
375.0
 20
99.5
 30
0.0
 40
2.6
  1
USB CAMERA
  7
ISO
 72
1
 11
375.0
 21
99.5
 31
0.0
100
AcDbText
 73
3
  0
TEXT
  5
E7
330
97
100
AcDbEntity
 67
1
  8
TEXT
100
AcDbText
 10
375.0
 20
92.49000000000001
 30
0.0
 40
2.08
  1
UVC wide-angle
  7
ISO
 72
1
 11
375.0
 21
92.49000000000001
 31
0.0
100
AcDbText
 73
1
  0
LWPOLYLINE
  5
E8
330
97
100
AcDbEntity
 67
1
  8
SYMBOLS
100
AcDbPolyline
 90
4
 70
1
 10
250.0
 20
78.0
 10
320.0
 20
78.0
 10
320.0
 20
104.0
 10
250.0
 20
104.0
  0
TEXT
  5
E9
330
97
100
AcDbEntity
 67
1
  8
TEXT
100
AcDbText
 10
285.0
 20
101.5
 30
0.0
 40
2.6
  1
LAPTOP
  7
ISO
 72
1
 11
285.0
 21
101.5
 31
0.0
100
AcDbText
 73
3
  0
TEXT
  5
EA
330
97
100
AcDbEntity
 67
1
  8
TEXT
100
AcDbText
 10
285.0
 20
94.49000000000001
 30
0.0
 40
2.08
  1
RViz, Nav2 goals
  7
ISO
 72
1
 11
285.0
 21
94.49000000000001
 31
0.0
100
AcDbText
 73
1
  0
TEXT
  5
EB
330
97
100
AcDbEntity
 67
1
  8
TEXT
100
AcDbText
 10
285.0
 20
91.08000000000001
 30
0.0
 40
2.08
  1
teleop
  7
ISO
 72
1
 11
285.0
 21
91.08000000000001
 31
0.0
100
AcDbText
 73
1
  0
LWPOLYLINE
  5
EC
330
97
100
AcDbEntity
 67
1
  8
NET-12V
100
AcDbPolyline
 90
2
 70
0
 10
78.0
 20
220.0
 10
100.0
 20
220.0
  0
SOLID
  5
ED
330
97
100
AcDbEntity
 67
1
  8
NET-12V
100
AcDbTrace
 10
100.0
 20
220.0
 30
0.0
 11
96.5
 21
221.3
 31
0.0
 12
96.5
 22
218.7
 32
0.0
 13
96.5
 23
218.7
 33
0.0
  0
TEXT
  5
EE
330
97
100
AcDbEntity
 67
1
  8
NET-12V
100
AcDbText
 10
89.0
 20
221.5
 30
0.0
 40
2.2
  1
12 V
  7
ISO
 72
1
 11
89.0
 21
221.5
 31
0.0
100
AcDbText
 73
1
  0
LWPOLYLINE
  5
EF
330
97
100
AcDbEntity
 67
1
  8
NET-12V
100
AcDbPolyline
 90
4
 70
0
 10
150.0
 20
220.0
 10
162.0
 20
220.0
 10
162.0
 20
254.0
 10
175.0
 20
254.0
  0
LWPOLYLINE
  5
F0
330
97
100
AcDbEntity
 67
1
  8
NET-12V
100
AcDbPolyline
 90
2
 70
0
 10
170.0
 20
254.0
 10
175.0
 20
254.0
  0
SOLID
  5
F1
330
97
100
AcDbEntity
 67
1
  8
NET-12V
100
AcDbTrace
 10
175.0
 20
254.0
 30
0.0
 11
171.5
 21
255.3
 31
0.0
 12
171.5
 22
252.7
 32
0.0
 13
171.5
 23
252.7
 33
0.0
  0
TEXT
  5
F2
330
97
100
AcDbEntity
 67
1
  8
NET-12V
100
AcDbText
 10
156.0
 20
238.0
 30
0.0
 40
2.2
  1
+12 V MAIN
 50
90.0
  7
ISO
 72
1
 11
156.0
 21
238.0
 31
0.0
100
AcDbText
 73
2
  0
LWPOLYLINE
  5
F3
330
97
100
AcDbEntity
 67
1
  8
NET-12V
100
AcDbPolyline
 90
3
 70
0
 10
162.0
 20
220.0
 10
162.0
 20
184.0
 10
175.0
 20
184.0
  0
LWPOLYLINE
  5
F4
330
97
100
AcDbEntity
 67
1
  8
NET-12V
100
AcDbPolyline
 90
2
 70
0
 10
170.0
 20
184.0
 10
175.0
 20
184.0
  0
SOLID
  5
F5
330
97
100
AcDbEntity
 67
1
  8
NET-12V
100
AcDbTrace
 10
175.0
 20
184.0
 30
0.0
 11
171.5
 21
185.3
 31
0.0
 12
171.5
 22
182.7
 32
0.0
 13
171.5
 23
182.7
 33
0.0
  0
LWPOLYLINE
  5
F6
330
97
100
AcDbEntity
 67
1
  8
NET-12V
100
AcDbPolyline
 90
2
 70
1
 43
1.2
 10
161.4
 20
220.0
 42
1.0
 10
162.6
 20
220.0
 42
1.0
  0
LWPOLYLINE
  5
F7
330
97
100
AcDbEntity
 67
1
  8
NET-12V-MOTOR
100
AcDbPolyline
 90
2
 70
0
 10
225.0
 20
254.0
 10
250.0
 20
254.0
  0
SOLID
  5
F8
330
97
100
AcDbEntity
 67
1
  8
NET-12V-MOTOR
100
AcDbTrace
 10
250.0
 20
254.0
 30
0.0
 11
246.5
 21
255.3
 31
0.0
 12
246.5
 22
252.7
 32
0.0
 13
246.5
 23
252.7
 33
0.0
  0
TEXT
  5
F9
330
97
100
AcDbEntity
 67
1
  8
NET-12V-MOTOR
100
AcDbText
 10
237.5
 20
255.5
 30
0.0
 40
2.2
  1
+12 V MOTOR
  7
ISO
 72
1
 11
237.5
 21
255.5
 31
0.0
100
AcDbText
 73
1
  0
LWPOLYLINE
  5
FA
330
97
100
AcDbEntity
 67
1
  8
NET-5V
100
AcDbPolyline
 90
2
 70
0
 10
225.0
 20
184.0
 10
250.0
 20
184.0
  0
SOLID
  5
FB
330
97
100
AcDbEntity
 67
1
  8
NET-5V
100
AcDbTrace
 10
250.0
 20
184.0
 30
0.0
 11
246.5
 21
185.3
 31
0.0
 12
246.5
 22
182.7
 32
0.0
 13
246.5
 23
182.7
 33
0.0
  0
TEXT
  5
FC
330
97
100
AcDbEntity
 67
1
  8
NET-5V
100
AcDbText
 10
237.5
 20
185.5
 30
0.0
 40
2.2
  1
5.1 V (USB-C)
  7
ISO
 72
1
 11
237.5
 21
185.5
 31
0.0
100
AcDbText
 73
1
  0
LWPOLYLINE
  5
FD
330
97
100
AcDbEntity
 67
1
  8
NET-12V-MOTOR
100
AcDbPolyline
 90
2
 70
0
 10
320.0
 20
254.0
 10
345.0
 20
254.0
  0
SOLID
  5
FE
330
97
100
AcDbEntity
 67
1
  8
NET-12V-MOTOR
100
AcDbTrace
 10
345.0
 20
254.0
 30
0.0
 11
341.5
 21
255.3
 31
0.0
 12
341.5
 22
252.7
 32
0.0
 13
341.5
 23
252.7
 33
0.0
  0
TEXT
  5
FF
330
97
100
AcDbEntity
 67
1
  8
NET-12V-MOTOR
100
AcDbText
 10
332.5
 20
255.5
 30
0.0
 40
2.2
  1
12 V PWM
  7
ISO
 72
1
 11
332.5
 21
255.5
 31
0.0
100
AcDbText
 73
1
  0
LWPOLYLINE
  5
100
330
97
100
AcDbEntity
 67
1
  8
NET-SIGNAL
100
AcDbPolyline
 90
2
 70
0
 10
285.0
 20
230.0
 10
285.0
 20
240.0
  0
SOLID
  5
101
330
97
100
AcDbEntity
 67
1
  8
NET-SIGNAL
100
AcDbTrace
 10
285.0
 20
240.0
 30
0.0
 11
283.7
 21
236.5
 31
0.0
 12
286.3
 22
236.5
 32
0.0
 13
286.3
 23
236.5
 33
0.0
  0
TEXT
  5
102
330
97
100
AcDbEntity
 67
1
  8
NET-SIGNAL
100
AcDbText
 10
288.0
 20
234.5
 30
0.0
 40
2.0
  1
PWM x4 + EN
  7
ISO
 11
288.0
 21
234.5
 31
0.0
100
AcDbText
 73
2
  0
LWPOLYLINE
  5
103
330
97
100
AcDbEntity
 67
1
  8
NET-SIGNAL
100
AcDbPolyline
 90
4
 70
0
 10
375.0
 20
240.0
 10
375.0
 20
234.0
 10
330.0
 20
234.0
 10
330.0
 20
225.0
  0
LWPOLYLINE
  5
104
330
97
100
AcDbEntity
 67
1
  8
NET-SIGNAL
100
AcDbPolyline
 90
2
 70
0
 10
330.0
 20
226.0
 10
320.0
 20
226.0
  0
SOLID
  5
105
330
97
100
AcDbEntity
 67
1
  8
NET-SIGNAL
100
AcDbTrace
 10
320.0
 20
226.0
 30
0.0
 11
323.5
 21
224.7
 31
0.0
 12
323.5
 22
227.3
 32
0.0
 13
323.5
 23
227.3
 33
0.0
  0
TEXT
  5
106
330
97
100
AcDbEntity
 67
1
  8
NET-SIGNAL
100
AcDbText
 10
352.0
 20
236.0
 30
0.0
 40
2.0
  1
encoders A/B x2
  7
ISO
 72
1
 11
352.0
 21
236.0
 31
0.0
100
AcDbText
 73
1
  0
LWPOLYLINE
  5
107
330
97
100
AcDbEntity
 67
1
  8
NET-SIGNAL
100
AcDbPolyline
 90
2
 70
0
 10
375.0
 20
176.0
 10
375.0
 20
185.0
  0
SOLID
  5
108
330
97
100
AcDbEntity
 67
1
  8
NET-SIGNAL
100
AcDbTrace
 10
375.0
 20
185.0
 30
0.0
 11
373.7
 21
181.5
 31
0.0
 12
376.3
 22
181.5
 32
0.0
 13
376.3
 23
181.5
 33
0.0
  0
TEXT
  5
109
330
97
100
AcDbEntity
 67
1
  8
NET-SIGNAL
100
AcDbText
 10
377.0
 20
180.5
 30
0.0
 40
1.9
  1
bridge mV
  7
ISO
 11
377.0
 21
180.5
 31
0.0
100
AcDbText
 73
2
  0
LWPOLYLINE
  5
10A
330
97
100
AcDbEntity
 67
1
  8
NET-SIGNAL
100
AcDbPolyline
 90
2
 70
0
 10
345.0
 20
199.0
 10
320.0
 20
199.0
  0
SOLID
  5
10B
330
97
100
AcDbEntity
 67
1
  8
NET-SIGNAL
100
AcDbTrace
 10
320.0
 20
199.0
 30
0.0
 11
323.5
 21
197.7
 31
0.0
 12
323.5
 22
200.3
 32
0.0
 13
323.5
 23
200.3
 33
0.0
  0
TEXT
  5
10C
330
97
100
AcDbEntity
 67
1
  8
NET-SIGNAL
100
AcDbText
 10
332.5
 20
200.5
 30
0.0
 40
2.2
  1
DT x4 + SCK
  7
ISO
 72
1
 11
332.5
 21
200.5
 31
0.0
100
AcDbText
 73
1
  0
LWPOLYLINE
  5
10D
330
97
100
AcDbEntity
 67
1
  8
NET-USB
100
AcDbPolyline
 90
2
 70
0
 10
345.0
 20
123.0
 10
320.0
 20
150.0
  0
SOLID
  5
10E
330
97
100
AcDbEntity
 67
1
  8
NET-USB
100
AcDbTrace
 10
320.0
 20
150.0
 30
0.0
 11
321.4240392340204
 21
146.54860719998862
 31
0.0
 12
323.3318169864677
 22
148.3150680818842
 32
0.0
 13
323.3318169864677
 23
148.3150680818842
 33
0.0
  0
TEXT
  5
10F
330
97
100
AcDbEntity
 67
1
  8
NET-USB
100
AcDbText
 10
337.0
 20
138.0
 30
0.0
 40
2.2
  1
USB
  7
ISO
 72
1
 11
337.0
 21
138.0
 31
0.0
100
AcDbText
 73
1
  0
LWPOLYLINE
  5
110
330
97
100
AcDbEntity
 67
1
  8
NET-USB
100
AcDbPolyline
 90
2
 70
0
 10
345.0
 20
90.0
 10
305.0
 20
140.0
  0
SOLID
  5
111
330
97
100
AcDbEntity
 67
1
  8
NET-USB
100
AcDbTrace
 10
305.0
 20
140.0
 30
0.0
 11
306.1713032141646
 21
136.45485560512864
 31
0.0
 12
308.2015621187164
 22
138.07906272877014
 32
0.0
 13
308.2015621187164
 23
138.07906272877014
 33
0.0
  0
TEXT
  5
112
330
97
100
AcDbEntity
 67
1
  8
NET-USB
100
AcDbText
 10
333.0
 20
111.0
 30
0.0
 40
2.2
  1
USB
  7
ISO
 72
1
 11
333.0
 21
111.0
 31
0.0
100
AcDbText
 73
1
  0
LWPOLYLINE
  5
113
330
97
100
AcDbEntity
 67
1
  8
NET-SIGNAL
100
AcDbPolyline
 90
2
 70
0
 10
285.0
 20
104.0
 10
285.0
 20
140.0
  0
SOLID
  5
114
330
97
100
AcDbEntity
 67
1
  8
NET-SIGNAL
100
AcDbTrace
 10
285.0
 20
140.0
 30
0.0
 11
283.7
 21
136.5
 31
0.0
 12
286.3
 22
136.5
 32
0.0
 13
286.3
 23
136.5
 33
0.0
  0
SOLID
  5
115
330
97
100
AcDbEntity
 67
1
  8
NET-SIGNAL
100
AcDbTrace
 10
285.0
 20
104.0
 30
0.0
 11
286.3
 21
107.5
 31
0.0
 12
283.7
 22
107.5
 32
0.0
 13
283.7
 23
107.5
 33
0.0
  0
TEXT
  5
116
330
97
100
AcDbEntity
 67
1
  8
NET-SIGNAL
100
AcDbText
 10
288.0
 20
121.0
 30
0.0
 40
2.0
  1
Wi-Fi (ROS 2)
  7
ISO
 11
288.0
 21
121.0
 31
0.0
100
AcDbText
 73
2
  0
LWPOLYLINE
  5
117
330
97
100
AcDbEntity
 67
1
  8
NET-SIGNAL
100
AcDbPolyline
 90
5
 70
0
 10
200.0
 20
240.0
 10
200.0
 20
232.0
 10
238.0
 20
232.0
 10
238.0
 20
215.0
 10
250.0
 20
215.0
  0
LWPOLYLINE
  5
118
330
97
100
AcDbEntity
 67
1
  8
NET-SIGNAL
100
AcDbPolyline
 90
2
 70
0
 10
245.0
 20
215.0
 10
250.0
 20
215.0
  0
SOLID
  5
119
330
97
100
AcDbEntity
 67
1
  8
NET-SIGNAL
100
AcDbTrace
 10
250.0
 20
215.0
 30
0.0
 11
246.5
 21
216.3
 31
0.0
 12
246.5
 22
213.7
 32
0.0
 13
246.5
 23
213.7
 33
0.0
  0
TEXT
  5
11A
330
97
100
AcDbEntity
 67
1
  8
NET-SIGNAL
100
AcDbText
 10
222.0
 20
229.0
 30
0.0
 40
1.9
  1
E-stop sense
  7
ISO
 72
1
 11
222.0
 21
229.0
 31
0.0
100
AcDbText
 73
3
  0
TEXT
  5
11B
330
97
100
AcDbEntity
 67
1
  8
NET-SIGNAL
100
AcDbText
 10
222.0
 20
225.5
 30
0.0
 40
1.7
  1
(GPIO26 via divider)
  7
ISO
 72
1
 11
222.0
 21
225.5
 31
0.0
100
AcDbText
 73
3
  0
TEXT
  5
11C
330
97
100
AcDbEntity
 67
1
  8
TEXT
100
AcDbText
 10
28.0
 20
150.0
 30
0.0
 40
2.4
  1
WIRE COLOURS IN THIS DRAWING
  7
ISO
 11
28.0
 21
150.0
 31
0.0
100
AcDbText
  0
LWPOLYLINE
  5
11D
330
97
100
AcDbEntity
 67
1
  8
NET-12V
100
AcDbPolyline
 90
2
 70
0
 10
28.0
 20
145.0
 10
38.0
 20
145.0
  0
TEXT
  5
11E
330
97
100
AcDbEntity
 67
1
  8
TEXT
100
AcDbText
 10
41.0
 20
145.0
 30
0.0
 40
2.1
  1
+12 V main (after fuse + switch)
  7
ISO
 11
41.0
 21
145.0
 31
0.0
100
AcDbText
 73
2
  0
LWPOLYLINE
  5
11F
330
97
100
AcDbEntity
 67
1
  8
NET-12V-MOTOR
100
AcDbPolyline
 90
2
 70
0
 10
28.0
 20
140.8
 10
38.0
 20
140.8
  0
TEXT
  5
120
330
97
100
AcDbEntity
 67
1
  8
TEXT
100
AcDbText
 10
41.0
 20
140.8
 30
0.0
 40
2.1
  1
+12 V motor (after E-stop), motor leads
  7
ISO
 11
41.0
 21
140.8
 31
0.0
100
AcDbText
 73
2
  0
LWPOLYLINE
  5
121
330
97
100
AcDbEntity
 67
1
  8
NET-5V
100
AcDbPolyline
 90
2
 70
0
 10
28.0
 20
136.6
 10
38.0
 20
136.6
  0
TEXT
  5
122
330
97
100
AcDbEntity
 67
1
  8
TEXT
100
AcDbText
 10
41.0
 20
136.6
 30
0.0
 40
2.1
  1
+5.1 V (buck output)
  7
ISO
 11
41.0
 21
136.6
 31
0.0
100
AcDbText
 73
2
  0
LWPOLYLINE
  5
123
330
97
100
AcDbEntity
 67
1
  8
NET-3V3
100
AcDbPolyline
 90
2
 70
0
 10
28.0
 20
132.4
 10
38.0
 20
132.4
  0
TEXT
  5
124
330
97
100
AcDbEntity
 67
1
  8
TEXT
100
AcDbText
 10
41.0
 20
132.4
 30
0.0
 40
2.1
  1
+3.3 V logic (from Pi pins 1 / 17)
  7
ISO
 11
41.0
 21
132.4
 31
0.0
100
AcDbText
 73
2
  0
LWPOLYLINE
  5
125
330
97
100
AcDbEntity
 67
1
  8
NET-GND
100
AcDbPolyline
 90
2
 70
0
 10
28.0
 20
128.2
 10
38.0
 20
128.2
  0
TEXT
  5
126
330
97
100
AcDbEntity
 67
1
  8
TEXT
100
AcDbText
 10
41.0
 20
128.2
 30
0.0
 40
2.1
  1
ground
  7
ISO
 11
41.0
 21
128.2
 31
0.0
100
AcDbText
 73
2
  0
LWPOLYLINE
  5
127
330
97
100
AcDbEntity
 67
1
  8
NET-SIGNAL
100
AcDbPolyline
 90
2
 70
0
 10
28.0
 20
124.0
 10
38.0
 20
124.0
  0
TEXT
  5
128
330
97
100
AcDbEntity
 67
1
  8
TEXT
100
AcDbText
 10
41.0
 20
124.0
 30
0.0
 40
2.1
  1
GPIO signals
  7
ISO
 11
41.0
 21
124.0
 31
0.0
100
AcDbText
 73
2
  0
LWPOLYLINE
  5
129
330
97
100
AcDbEntity
 67
1
  8
NET-USB
100
AcDbPolyline
 90
2
 70
0
 10
28.0
 20
119.8
 10
38.0
 20
119.8
  0
TEXT
  5
12A
330
97
100
AcDbEntity
 67
1
  8
TEXT
100
AcDbText
 10
41.0
 20
119.8
 30
0.0
 40
2.1
  1
USB
  7
ISO
 11
41.0
 21
119.8
 31
0.0
100
AcDbText
 73
2
  0
TEXT
  5
12B
330
97
100
AcDbEntity
 67
1
  8
TEXT
100
AcDbText
 10
28.0
 20
95.0
 30
0.0
 40
2.2
  1
Details: E02 power distribution, E03 control & sensor wiring. Pin numbers: cargo_bot/pins.py.
  7
ISO
 11
28.0
 21
95.0
 31
0.0
100
AcDbText
  0
ENDSEC
  0
SECTION
  2
OBJECTS
  0
DICTIONARY
  5
A
330
0
100
AcDbDictionary
281
1
  3
ACAD_COLOR
350
B
  3
ACAD_GROUP
350
C
  3
ACAD_LAYOUT
350
D
  3
ACAD_MATERIAL
350
E
  3
ACAD_MLEADERSTYLE
350
F
  3
ACAD_MLINESTYLE
350
10
  3
ACAD_PLOTSETTINGS
350
11
  3
ACAD_PLOTSTYLENAME
350
12
  3
ACAD_SCALELIST
350
14
  3
ACAD_TABLESTYLE
350
15
  3
ACAD_VISUALSTYLE
350
16
  3
EZDXF_META
350
2D
  0
DICTIONARY
  5
B
330
A
100
AcDbDictionary
281
1
  0
DICTIONARY
  5
C
330
A
100
AcDbDictionary
281
1
  0
DICTIONARY
  5
D
330
A
100
AcDbDictionary
281
1
  3
Model
350
1A
  3
E01 SYSTEM BLOCK DIAGRAM
350
9A
  3
E02 POWER DISTRIBUTION
350
12F
  3
E03 CONTROL & SENSOR WIRING
350
1F9
  0
DICTIONARY
  5
E
330
A
100
AcDbDictionary
281
1
  3
ByBlock
350
1F
  3
ByLayer
350
20
  3
Global
350
21
  0
DICTIONARY
  5
F
330
A
100
AcDbDictionary
281
1
  3
Standard
350
2C
  0
DICTIONARY
  5
10
330
A
100
AcDbDictionary
281
1
  3
Standard
350
22
  0
DICTIONARY
  5
11
330
A
100
AcDbDictionary
281
1
  0
ACDBDICTIONARYWDFLT
  5
12
330
A
100
AcDbDictionary
281
1
  3
Normal
350
13
100
AcDbDictionaryWithDefault
340
13
  0
ACDBPLACEHOLDER
  5
13
330
12
  0
DICTIONARY
  5
14
330
A
100
AcDbDictionary
281
1
  0
DICTIONARY
  5
15
330
A
100
AcDbDictionary
281
1
  0
DICTIONARY
  5
16
330
A
100
AcDbDictionary
281
1
  3
2dWireframe
350
5A
  3
Basic
350
5B
  3
Brighten
350
5C
  3
ColorChange
350
5D
  3
Conceptual
350
5E
  3
Dim
350
5F
  3
EdgeColorOff
350
60
  3
Facepattern
350
61
  3
Flat
350
62
  3
FlatWithEdges
350
63
  3
Gouraud
350
64
  3
GouraudWithEdges
350
65
  3
Hidden
350
66
  3
JitterOff
350
67
  3
Linepattern
350
68
  3
Modeling
350
69
  3
OverhangOff
350
6A
  3
Realistic
350
6B
  3
Shaded
350
6C
  3
Shaded with edges
350
6D
  3
Shades of Gray
350
6E
  3
Sketchy
350
6F
  3
Thicken
350
70
  3
Wireframe
350
71
  3
X-Ray
350
72
  0
LAYOUT
  5
1A
330
D
100
AcDbPlotSettings
  1

  4
A3
  6

 40
7.5
 41
20.0
 42
7.5
 43
20.0
 44
420.0
 45
297.0
 46
0.0
 47
0.0
 48
0.0
 49
0.0
140
0.0
141
0.0
142
1.0
143
1.0
 70
1024
 72
1
 73
0
 74
5
  7

 75
16
 76
0
 77
2
 78
300
147
1.0
148
0.0
149
0.0
100
AcDbLayout
  1
Model
 70
1
 71
0
 10
0.0
 20
0.0
 11
420.0
 21
297.0
 12
0.0
 22
0.0
 32
0.0
 14
1e+20
 24
1e+20
 34
1e+20
 15
-1e+20
 25
-1e+20
 35
-1e+20
146
0.0
 13
0.0
 23
0.0
 33
0.0
 16
1.0
 26
0.0
 36
0.0
 17
0.0
 27
1.0
 37
0.0
 76
1
330
17
  0
MATERIAL
  5
1F
102
{ACAD_REACTORS
330
E
102
}
330
E
100
AcDbMaterial
  1
ByBlock
  2

 70
0
 40
1.0
 71
1
 41
1.0
 91
-1023410177
 42
1.0
 72
1
  3

 73
1
 74
1
 75
1
 44
0.5
 73
0
 45
1.0
 46
1.0
 77
1
  4

 78
1
 79
1
170
1
 48
1.0
171
1
  6

172
1
173
1
174
1
140
1.0
141
1.0
175
1
  7

176
1
177
1
178
1
143
1.0
179
1
  8

270
1
271
1
272
1
145
1.0
146
1.0
273
1
  9

274
1
275
1
276
1
 42
1.0
 72
1
  3

 73
1
 74
1
 75
1
 94
63
  0
MATERIAL
  5
20
102
{ACAD_REACTORS
330
E
102
}
330
E
100
AcDbMaterial
  1
ByLayer
  2

 70
0
 40
1.0
 71
1
 41
1.0
 91
-1023410177
 42
1.0
 72
1
  3

 73
1
 74
1
 75
1
 44
0.5
 73
0
 45
1.0
 46
1.0
 77
1
  4

 78
1
 79
1
170
1
 48
1.0
171
1
  6

172
1
173
1
174
1
140
1.0
141
1.0
175
1
  7

176
1
177
1
178
1
143
1.0
179
1
  8

270
1
271
1
272
1
145
1.0
146
1.0
273
1
  9

274
1
275
1
276
1
 42
1.0
 72
1
  3

 73
1
 74
1
 75
1
 94
63
  0
MATERIAL
  5
21
102
{ACAD_REACTORS
330
E
102
}
330
E
100
AcDbMaterial
  1
Global
  2

 70
0
 40
1.0
 71
1
 41
1.0
 91
-1023410177
 42
1.0
 72
1
  3

 73
1
 74
1
 75
1
 44
0.5
 73
0
 45
1.0
 46
1.0
 77
1
  4

 78
1
 79
1
170
1
 48
1.0
171
1
  6

172
1
173
1
174
1
140
1.0
141
1.0
175
1
  7

176
1
177
1
178
1
143
1.0
179
1
  8

270
1
271
1
272
1
145
1.0
146
1.0
273
1
  9

274
1
275
1
276
1
 42
1.0
 72
1
  3

 73
1
 74
1
 75
1
 94
63
  0
MLINESTYLE
  5
22
102
{ACAD_REACTORS
330
10
102
}
330
10
100
AcDbMlineStyle
  2
Standard
 70
0
  3

 62
256
 51
90.0
 52
90.0
 71
2
 49
0.5
 62
256
  6
BYLAYER
 49
-0.5
 62
256
  6
BYLAYER
  0
MLEADERSTYLE
  5
2C
102
{ACAD_REACTORS
330
F
102
}
330
F
100
AcDbMLeaderStyle
179
2
170
2
171
1
172
0
 90
2
 40
0.0
 41
0.0
173
1
 91
-1056964608
 92
-2
290
1
 42
2.0
291
1
 43
8.0
  3
Standard
 44
4.0
300

342
29
174
1
175
1
176
0
178
1
 93
-1056964608
 45
4.0
292
0
297
0
 46
4.0
 94
-1056964608
 47
1.0
 49
1.0
140
1.0
294
1
141
0.0
177
0
142
1.0
295
0
296
0
143
3.75
271
0
272
9
273
9
  0
DICTIONARY
  5
2D
330
A
100
AcDbDictionary
280
1
281
1
  3
CREATED_BY_EZDXF
350
2E
  3
WRITTEN_BY_EZDXF
350
3A7
  0
DICTIONARYVAR
  5
2E
330
2D
100
DictionaryVariables
280
0
  1
1.4.4 @ 2026-09-29T16:41:18.875579+00:00
  0
VISUALSTYLE
  5
5A
102
{ACAD_REACTORS
330
16
102
}
330
16
100
AcDbVisualStyle
  2
2dWireframe
 70
4
177
3
291
0
 70
58
 90
2
176
1
 90
2
176
1
 90
0
176
1
 90
0
176
1
 40
0.6
176
1
 40
30.0
176
1
 62
7
420
16777215
176
1
 90
1
176
1
 90
4
176
1
 62
7
176
1
 62
257
176
1
 90
1
176
1
 90
1
176
1
 40
1.0
176
1
 90
8
176
1
 62
7
176
1
 40
1.0
176
1
 90
1
176
1
 90
6
176
1
 90
2
176
1
 62
7
176
1
 90
5
176
1
 90
0
176
1
 90
0
176
1
290
0
176
1
 90
1
176
1
 40
0.0
176
1
 90
0
176
1
290
1
176
1
290
1
176
1
290
0
176
1
290
0
176
1
290
0
176
1
290
0
176
1
290
0
176
1
290
0
176
1
290
0
176
1
 90
50
176
1
 40
0.0
176
1
 40
1.0
176
1
 90
0
176
1
 62
18
420
0
176
1
 90
50
176
1
 90
3
176
1
 62
5
420
255
176
1
290
0
176
1
 90
50
176
1
 90
50
176
1
 90
50
176
1
290
0
176
1
 90
50
176
1
 62
256
176
0
 40
1.0
176
0
 90
2
176
1
  1
strokes_ogs.tif
176
1
290
0
176
1
 40
1.0
176
1
 40
1.0
176
1
  0
VISUALSTYLE
  5
5B
102
{ACAD_REACTORS
330
16
102
}
330
16
100
AcDbVisualStyle
  2
Basic
 70
7
177
3
291
1
 70
58
 90
2
176
1
 90
2
176
1
 90
0
176
1
 90
1
176
1
 40
0.6
176
1
 40
30.0
176
1
 62
7
420
16777215
176
1
 90
1
176
1
 90
4
176
1
 62
7
176
1
 62
257
176
1
 90
1
176
1
 90
1
176
1
 40
1.0
176
1
 90
8
176
1
 62
7
176
1
 40
1.0
176
1
 90
1
176
1
 90
6
176
1
 90
2
176
1
 62
7
176
1
 90
5
176
1
 90
0
176
1
 90
0
176
1
290
0
176
1
 90
1
176
1
 40
0.0
176
1
 90
0
176
1
290
0
176
1
290
1
176
1
290
1
176
1
290
0
176
1
290
0
176
1
290
0
176
1
290
0
176
1
290
0
176
1
290
0
176
1
 90
50
176
1
 40
0.0
176
1
 40
1.0
176
1
 90
0
176
1
 62
18
420
0
176
1
 90
50
176
1
 90
3
176
1
 62
5
420
255
176
1
290
0
176
1
 90
50
176
1
 90
50
176
1
 90
50
176
1
290
0
176
1
 90
50
176
1
 62
256
176
0
 40
1.0
176
0
 90
2
176
1
  1
strokes_ogs.tif
176
1
290
0
176
1
 40
1.0
176
1
 40
1.0
176
1
  0
VISUALSTYLE
  5
5C
102
{ACAD_REACTORS
330
16
102
}
330
16
100
AcDbVisualStyle
  2
Brighten
 70
12
177
3
291
1
 70
58
 90
2
176
1
 90
2
176
1
 90
0
176
1
 90
2
176
1
 40
0.6
176
1
 40
30.0
176
1
 62
7
420
16777215
176
1
 90
1
176
1
 90
4
176
1
 62
7
176
1
 62
257
176
1
 90
1
176
1
 90
1
176
1
 40
1.0
176
1
 90
8
176
1
 62
7
176
1
 40
1.0
176
1
 90
1
176
1
 90
6
176
1
 90
2
176
1
 62
7
176
1
 90
5
176
1
 90
0
176
1
 90
0
176
1
290
0
176
1
 90
1
176
1
 40
0.0
176
1
 90
0
176
1
290
0
176
1
290
1
176
1
290
1
176
1
290
0
176
1
290
0
176
1
290
0
176
1
290
0
176
1
290
0
176
1
290
0
176
1
 90
50
176
1
 40
0.0
176
1
 40
1.0
176
1
 90
0
176
1
 62
18
420
0
176
1
 90
50
176
1
 90
3
176
1
 62
5
420
255
176
1
290
0
176
1
 90
50
176
1
 90
50
176
1
 90
50
176
1
290
0
176
1
 90
50
176
1
 62
256
176
0
 40
1.0
176
0
 90
2
176
1
  1
strokes_ogs.tif
176
1
290
0
176
1
 40
1.0
176
1
 40
1.0
176
1
  0
VISUALSTYLE
  5
5D
102
{ACAD_REACTORS
330
16
102
}
330
16
100
AcDbVisualStyle
  2
ColorChange
 70
16
177
3
291
1
 70
58
 90
2
176
1
 90
2
176
1
 90
0
176
1
 90
2
176
1
 40
0.6
176
1
 40
30.0
176
1
 62
7
420
16777215
176
1
 90
1
176
1
 90
4
176
1
 62
7
176
1
 62
257
176
1
 90
1
176
1
 90
1
176
1
 40
1.0
176
1
 90
8
176
1
 62
7
176
1
 40
1.0
176
1
 90
1
176
1
 90
6
176
1
 90
2
176
1
 62
7
176
1
 90
5
176
1
 90
0
176
1
 90
0
176
1
290
0
176
1
 90
1
176
1
 40
0.0
176
1
 90
0
176
1
290
0
176
1
290
1
176
1
290
1
176
1
290
0
176
1
290
0
176
1
290
0
176
1
290
0
176
1
290
0
176
1
290
0
176
1
 90
50
176
1
 40
0.0
176
1
 40
1.0
176
1
 90
0
176
1
 62
18
420
0
176
1
 90
50
176
1
 90
3
176
1
 62
5
420
255
176
1
290
0
176
1
 90
50
176
1
 90
50
176
1
 90
50
176
1
290
0
176
1
 90
50
176
1
 62
256
176
0
 40
1.0
176
0
 90
2
176
1
  1
strokes_ogs.tif
176
1
290
0
176
1
 40
1.0
176
1
 40
1.0
176
1
  0
VISUALSTYLE
  5
5E
102
{ACAD_REACTORS
330
16
102
}
330
16
100
AcDbVisualStyle
  2
Conceptual
 70
9
177
3
291
0
 70
58
 90
2
176
1
 90
2
176
1
 90
0
176
1
 90
3
176
1
 40
0.6
176
1
 40
30.0
176
1
 62
7
420
16777215
176
1
 90
1
176
1
 90
4
176
1
 62
7
176
1
 62
257
176
1
 90
1
176
1
 90
1
176
1
 40
1.0
176
1
 90
8
176
1
 62
7
176
1
 40
1.0
176
1
 90
1
176
1
 90
6
176
1
 90
2
176
1
 62
7
176
1
 90
5
176
1
 90
0
176
1
 90
0
176
1
290
0
176
1
 90
1
176
1
 40
0.0
176
1
 90
0
176
1
290
0
176
1
290
1
176
1
290
1
176
1
290
0
176
1
290
0
176
1
290
0
176
1
290
0
176
1
290
0
176
1
290
0
176
1
 90
50
176
1
 40
0.0
176
1
 40
1.0
176
1
 90
0
176
1
 62
18
420
0
176
1
 90
50
176
1
 90
3
176
1
 62
5
420
255
176
1
290
0
176
1
 90
50
176
1
 90
50
176
1
 90
50
176
1
290
0
176
1
 90
50
176
1
 62
256
176
0
 40
1.0
176
0
 90
2
176
1
  1
strokes_ogs.tif
176
1
290
0
176
1
 40
1.0
176
1
 40
1.0
176
1
  0
VISUALSTYLE
  5
5F
102
{ACAD_REACTORS
330
16
102
}
330
16
100
AcDbVisualStyle
  2
Dim
 70
11
177
3
291
1
 70
58
 90
2
176
1
 90
2
176
1
 90
0
176
1
 90
2
176
1
 40
0.6
176
1
 40
30.0
176
1
 62
7
420
16777215
176
1
 90
1
176
1
 90
4
176
1
 62
7
176
1
 62
257
176
1
 90
1
176
1
 90
1
176
1
 40
1.0
176
1
 90
8
176
1
 62
7
176
1
 40
1.0
176
1
 90
1
176
1
 90
6
176
1
 90
2
176
1
 62
7
176
1
 90
5
176
1
 90
0
176
1
 90
0
176
1
290
0
176
1
 90
1
176
1
 40
0.0
176
1
 90
0
176
1
290
0
176
1
290
1
176
1
290
1
176
1
290
0
176
1
290
0
176
1
290
0
176
1
290
0
176
1
290
0
176
1
290
0
176
1
 90
50
176
1
 40
0.0
176
1
 40
1.0
176
1
 90
0
176
1
 62
18
420
0
176
1
 90
50
176
1
 90
3
176
1
 62
5
420
255
176
1
290
0
176
1
 90
50
176
1
 90
50
176
1
 90
50
176
1
290
0
176
1
 90
50
176
1
 62
256
176
0
 40
1.0
176
0
 90
2
176
1
  1
strokes_ogs.tif
176
1
290
0
176
1
 40
1.0
176
1
 40
1.0
176
1
  0
VISUALSTYLE
  5
60
102
{ACAD_REACTORS
330
16
102
}
330
16
100
AcDbVisualStyle
  2
EdgeColorOff
 70
22
177
3
291
1
 70
58
 90
2
176
1
 90
2
176
1
 90
0
176
1
 90
2
176
1
 40
0.6
176
1
 40
30.0
176
1
 62
7
420
16777215
176
1
 90
1
176
1
 90
4
176
1
 62
7
176
1
 62
257
176
1
 90
1
176
1
 90
1
176
1
 40
1.0
176
1
 90
8
176
1
 62
7
176
1
 40
1.0
176
1
 90
1
176
1
 90
6
176
1
 90
2
176
1
 62
7
176
1
 90
5
176
1
 90
0
176
1
 90
0
176
1
290
0
176
1
 90
1
176
1
 40
0.0
176
1
 90
0
176
1
290
0
176
1
290
1
176
1
290
1
176
1
290
0
176
1
290
0
176
1
290
0
176
1
290
0
176
1
290
0
176
1
290
0
176
1
 90
50
176
1
 40
0.0
176
1
 40
1.0
176
1
 90
0
176
1
 62
18
420
0
176
1
 90
50
176
1
 90
3
176
1
 62
5
420
255
176
1
290
0
176
1
 90
50
176
1
 90
50
176
1
 90
50
176
1
290
0
176
1
 90
50
176
1
 62
256
176
0
 40
1.0
176
0
 90
2
176
1
  1
strokes_ogs.tif
176
1
290
0
176
1
 40
1.0
176
1
 40
1.0
176
1
  0
VISUALSTYLE
  5
61
102
{ACAD_REACTORS
330
16
102
}
330
16
100
AcDbVisualStyle
  2
Facepattern
 70
15
177
3
291
1
 70
58
 90
2
176
1
 90
2
176
1
 90
0
176
1
 90
2
176
1
 40
0.6
176
1
 40
30.0
176
1
 62
7
420
16777215
176
1
 90
1
176
1
 90
4
176
1
 62
7
176
1
 62
257
176
1
 90
1
176
1
 90
1
176
1
 40
1.0
176
1
 90
8
176
1
 62
7
176
1
 40
1.0
176
1
 90
1
176
1
 90
6
176
1
 90
2
176
1
 62
7
176
1
 90
5
176
1
 90
0
176
1
 90
0
176
1
290
0
176
1
 90
1
176
1
 40
0.0
176
1
 90
0
176
1
290
0
176
1
290
1
176
1
290
1
176
1
290
0
176
1
290
0
176
1
290
0
176
1
290
0
176
1
290
0
176
1
290
0
176
1
 90
50
176
1
 40
0.0
176
1
 40
1.0
176
1
 90
0
176
1
 62
18
420
0
176
1
 90
50
176
1
 90
3
176
1
 62
5
420
255
176
1
290
0
176
1
 90
50
176
1
 90
50
176
1
 90
50
176
1
290
0
176
1
 90
50
176
1
 62
256
176
0
 40
1.0
176
0
 90
2
176
1
  1
strokes_ogs.tif
176
1
290
0
176
1
 40
1.0
176
1
 40
1.0
176
1
  0
VISUALSTYLE
  5
62
102
{ACAD_REACTORS
330
16
102
}
330
16
100
AcDbVisualStyle
  2
Flat
 70
0
177
3
291
1
 70
58
 90
2
176
1
 90
2
176
1
 90
0
176
1
 90
2
176
1
 40
0.6
176
1
 40
30.0
176
1
 62
7
420
16777215
176
1
 90
1
176
1
 90
4
176
1
 62
7
176
1
 62
257
176
1
 90
1
176
1
 90
1
176
1
 40
1.0
176
1
 90
8
176
1
 62
7
176
1
 40
1.0
176
1
 90
1
176
1
 90
6
176
1
 90
2
176
1
 62
7
176
1
 90
5
176
1
 90
0
176
1
 90
0
176
1
290
0
176
1
 90
1
176
1
 40
0.0
176
1
 90
0
176
1
290
0
176
1
290
1
176
1
290
1
176
1
290
0
176
1
290
0
176
1
290
0
176
1
290
0
176
1
290
0
176
1
290
0
176
1
 90
50
176
1
 40
0.0
176
1
 40
1.0
176
1
 90
0
176
1
 62
18
420
0
176
1
 90
50
176
1
 90
3
176
1
 62
5
420
255
176
1
290
0
176
1
 90
50
176
1
 90
50
176
1
 90
50
176
1
290
0
176
1
 90
50
176
1
 62
256
176
0
 40
1.0
176
0
 90
2
176
1
  1
strokes_ogs.tif
176
1
290
0
176
1
 40
1.0
176
1
 40
1.0
176
1
  0
VISUALSTYLE
  5
63
102
{ACAD_REACTORS
330
16
102
}
330
16
100
AcDbVisualStyle
  2
FlatWithEdges
 70
1
177
3
291
1
 70
58
 90
2
176
1
 90
2
176
1
 90
0
176
1
 90
2
176
1
 40
0.6
176
1
 40
30.0
176
1
 62
7
420
16777215
176
1
 90
1
176
1
 90
4
176
1
 62
7
176
1
 62
257
176
1
 90
1
176
1
 90
1
176
1
 40
1.0
176
1
 90
8
176
1
 62
7
176
1
 40
1.0
176
1
 90
1
176
1
 90
6
176
1
 90
2
176
1
 62
7
176
1
 90
5
176
1
 90
0
176
1
 90
0
176
1
290
0
176
1
 90
1
176
1
 40
0.0
176
1
 90
0
176
1
290
0
176
1
290
1
176
1
290
1
176
1
290
0
176
1
290
0
176
1
290
0
176
1
290
0
176
1
290
0
176
1
290
0
176
1
 90
50
176
1
 40
0.0
176
1
 40
1.0
176
1
 90
0
176
1
 62
18
420
0
176
1
 90
50
176
1
 90
3
176
1
 62
5
420
255
176
1
290
0
176
1
 90
50
176
1
 90
50
176
1
 90
50
176
1
290
0
176
1
 90
50
176
1
 62
256
176
0
 40
1.0
176
0
 90
2
176
1
  1
strokes_ogs.tif
176
1
290
0
176
1
 40
1.0
176
1
 40
1.0
176
1
  0
VISUALSTYLE
  5
64
102
{ACAD_REACTORS
330
16
102
}
330
16
100
AcDbVisualStyle
  2
Gouraud
 70
2
177
3
291
1
 70
58
 90
2
176
1
 90
2
176
1
 90
0
176
1
 90
2
176
1
 40
0.6
176
1
 40
30.0
176
1
 62
7
420
16777215
176
1
 90
1
176
1
 90
4
176
1
 62
7
176
1
 62
257
176
1
 90
1
176
1
 90
1
176
1
 40
1.0
176
1
 90
8
176
1
 62
7
176
1
 40
1.0
176
1
 90
1
176
1
 90
6
176
1
 90
2
176
1
 62
7
176
1
 90
5
176
1
 90
0
176
1
 90
0
176
1
290
0
176
1
 90
1
176
1
 40
0.0
176
1
 90
0
176
1
290
0
176
1
290
1
176
1
290
1
176
1
290
0
176
1
290
0
176
1
290
0
176
1
290
0
176
1
290
0
176
1
290
0
176
1
 90
50
176
1
 40
0.0
176
1
 40
1.0
176
1
 90
0
176
1
 62
18
420
0
176
1
 90
50
176
1
 90
3
176
1
 62
5
420
255
176
1
290
0
176
1
 90
50
176
1
 90
50
176
1
 90
50
176
1
290
0
176
1
 90
50
176
1
 62
256
176
0
 40
1.0
176
0
 90
2
176
1
  1
strokes_ogs.tif
176
1
290
0
176
1
 40
1.0
176
1
 40
1.0
176
1
  0
VISUALSTYLE
  5
65
102
{ACAD_REACTORS
330
16
102
}
330
16
100
AcDbVisualStyle
  2
GouraudWithEdges
 70
3
177
3
291
1
 70
58
 90
2
176
1
 90
2
176
1
 90
0
176
1
 90
2
176
1
 40
0.6
176
1
 40
30.0
176
1
 62
7
420
16777215
176
1
 90
1
176
1
 90
4
176
1
 62
7
176
1
 62
257
176
1
 90
1
176
1
 90
1
176
1
 40
1.0
176
1
 90
8
176
1
 62
7
176
1
 40
1.0
176
1
 90
1
176
1
 90
6
176
1
 90
2
176
1
 62
7
176
1
 90
5
176
1
 90
0
176
1
 90
0
176
1
290
0
176
1
 90
1
176
1
 40
0.0
176
1
 90
0
176
1
290
0
176
1
290
1
176
1
290
1
176
1
290
0
176
1
290
0
176
1
290
0
176
1
290
0
176
1
290
0
176
1
290
0
176
1
 90
50
176
1
 40
0.0
176
1
 40
1.0
176
1
 90
0
176
1
 62
18
420
0
176
1
 90
50
176
1
 90
3
176
1
 62
5
420
255
176
1
290
0
176
1
 90
50
176
1
 90
50
176
1
 90
50
176
1
290
0
176
1
 90
50
176
1
 62
256
176
0
 40
1.0
176
0
 90
2
176
1
  1
strokes_ogs.tif
176
1
290
0
176
1
 40
1.0
176
1
 40
1.0
176
1
  0
VISUALSTYLE
  5
66
102
{ACAD_REACTORS
330
16
102
}
330
16
100
AcDbVisualStyle
  2
Hidden
 70
6
177
3
291
0
 70
58
 90
2
176
1
 90
2
176
1
 90
0
176
1
 90
1
176
1
 40
0.6
176
1
 40
30.0
176
1
 62
7
420
16777215
176
1
 90
1
176
1
 90
4
176
1
 62
7
176
1
 62
257
176
1
 90
1
176
1
 90
1
176
1
 40
1.0
176
1
 90
8
176
1
 62
7
176
1
 40
1.0
176
1
 90
1
176
1
 90
6
176
1
 90
2
176
1
 62
7
176
1
 90
5
176
1
 90
0
176
1
 90
0
176
1
290
0
176
1
 90
1
176
1
 40
0.0
176
1
 90
0
176
1
290
0
176
1
290
1
176
1
290
1
176
1
290
0
176
1
290
0
176
1
290
0
176
1
290
0
176
1
290
0
176
1
290
0
176
1
 90
50
176
1
 40
0.0
176
1
 40
1.0
176
1
 90
0
176
1
 62
18
420
0
176
1
 90
50
176
1
 90
3
176
1
 62
5
420
255
176
1
290
0
176
1
 90
50
176
1
 90
50
176
1
 90
50
176
1
290
0
176
1
 90
50
176
1
 62
256
176
0
 40
1.0
176
0
 90
2
176
1
  1
strokes_ogs.tif
176
1
290
0
176
1
 40
1.0
176
1
 40
1.0
176
1
  0
VISUALSTYLE
  5
67
102
{ACAD_REACTORS
330
16
102
}
330
16
100
AcDbVisualStyle
  2
JitterOff
 70
20
177
3
291
1
 70
58
 90
2
176
1
 90
2
176
1
 90
0
176
1
 90
2
176
1
 40
0.6
176
1
 40
30.0
176
1
 62
7
420
16777215
176
1
 90
1
176
1
 90
4
176
1
 62
7
176
1
 62
257
176
1
 90
1
176
1
 90
1
176
1
 40
1.0
176
1
 90
8
176
1
 62
7
176
1
 40
1.0
176
1
 90
1
176
1
 90
6
176
1
 90
2
176
1
 62
7
176
1
 90
5
176
1
 90
0
176
1
 90
0
176
1
290
0
176
1
 90
1
176
1
 40
0.0
176
1
 90
0
176
1
290
0
176
1
290
1
176
1
290
1
176
1
290
0
176
1
290
0
176
1
290
0
176
1
290
0
176
1
290
0
176
1
290
0
176
1
 90
50
176
1
 40
0.0
176
1
 40
1.0
176
1
 90
0
176
1
 62
18
420
0
176
1
 90
50
176
1
 90
3
176
1
 62
5
420
255
176
1
290
0
176
1
 90
50
176
1
 90
50
176
1
 90
50
176
1
290
0
176
1
 90
50
176
1
 62
256
176
0
 40
1.0
176
0
 90
2
176
1
  1
strokes_ogs.tif
176
1
290
0
176
1
 40
1.0
176
1
 40
1.0
176
1
  0
VISUALSTYLE
  5
68
102
{ACAD_REACTORS
330
16
102
}
330
16
100
AcDbVisualStyle
  2
Linepattern
 70
14
177
3
291
1
 70
58
 90
2
176
1
 90
2
176
1
 90
0
176
1
 90
2
176
1
 40
0.6
176
1
 40
30.0
176
1
 62
7
420
16777215
176
1
 90
1
176
1
 90
4
176
1
 62
7
176
1
 62
257
176
1
 90
1
176
1
 90
1
176
1
 40
1.0
176
1
 90
8
176
1
 62
7
176
1
 40
1.0
176
1
 90
1
176
1
 90
6
176
1
 90
2
176
1
 62
7
176
1
 90
5
176
1
 90
0
176
1
 90
0
176
1
290
0
176
1
 90
1
176
1
 40
0.0
176
1
 90
0
176
1
290
0
176
1
290
1
176
1
290
1
176
1
290
0
176
1
290
0
176
1
290
0
176
1
290
0
176
1
290
0
176
1
290
0
176
1
 90
50
176
1
 40
0.0
176
1
 40
1.0
176
1
 90
0
176
1
 62
18
420
0
176
1
 90
50
176
1
 90
3
176
1
 62
5
420
255
176
1
290
0
176
1
 90
50
176
1
 90
50
176
1
 90
50
176
1
290
0
176
1
 90
50
176
1
 62
256
176
0
 40
1.0
176
0
 90
2
176
1
  1
strokes_ogs.tif
176
1
290
0
176
1
 40
1.0
176
1
 40
1.0
176
1
  0
VISUALSTYLE
  5
69
102
{ACAD_REACTORS
330
16
102
}
330
16
100
AcDbVisualStyle
  2
Modeling
 70
10
177
3
291
0
 70
58
 90
2
176
1
 90
2
176
1
 90
0
176
1
 90
2
176
1
 40
0.6
176
1
 40
30.0
176
1
 62
7
420
16777215
176
1
 90
1
176
1
 90
4
176
1
 62
7
176
1
 62
257
176
1
 90
1
176
1
 90
1
176
1
 40
1.0
176
1
 90
8
176
1
 62
7
176
1
 40
1.0
176
1
 90
1
176
1
 90
6
176
1
 90
2
176
1
 62
7
176
1
 90
5
176
1
 90
0
176
1
 90
0
176
1
290
0
176
1
 90
1
176
1
 40
0.0
176
1
 90
0
176
1
290
0
176
1
290
1
176
1
290
1
176
1
290
0
176
1
290
0
176
1
290
0
176
1
290
0
176
1
290
0
176
1
290
0
176
1
 90
50
176
1
 40
0.0
176
1
 40
1.0
176
1
 90
0
176
1
 62
18
420
0
176
1
 90
50
176
1
 90
3
176
1
 62
5
420
255
176
1
290
0
176
1
 90
50
176
1
 90
50
176
1
 90
50
176
1
290
0
176
1
 90
50
176
1
 62
256
176
0
 40
1.0
176
0
 90
2
176
1
  1
strokes_ogs.tif
176
1
290
0
176
1
 40
1.0
176
1
 40
1.0
176
1
  0
VISUALSTYLE
  5
6A
102
{ACAD_REACTORS
330
16
102
}
330
16
100
AcDbVisualStyle
  2
OverhangOff
 70
21
177
3
291
1
 70
58
 90
2
176
1
 90
2
176
1
 90
0
176
1
 90
2
176
1
 40
0.6
176
1
 40
30.0
176
1
 62
7
420
16777215
176
1
 90
1
176
1
 90
4
176
1
 62
7
176
1
 62
257
176
1
 90
1
176
1
 90
1
176
1
 40
1.0
176
1
 90
8
176
1
 62
7
176
1
 40
1.0
176
1
 90
1
176
1
 90
6
176
1
 90
2
176
1
 62
7
176
1
 90
5
176
1
 90
0
176
1
 90
0
176
1
290
0
176
1
 90
1
176
1
 40
0.0
176
1
 90
0
176
1
290
0
176
1
290
1
176
1
290
1
176
1
290
0
176
1
290
0
176
1
290
0
176
1
290
0
176
1
290
0
176
1
290
0
176
1
 90
50
176
1
 40
0.0
176
1
 40
1.0
176
1
 90
0
176
1
 62
18
420
0
176
1
 90
50
176
1
 90
3
176
1
 62
5
420
255
176
1
290
0
176
1
 90
50
176
1
 90
50
176
1
 90
50
176
1
290
0
176
1
 90
50
176
1
 62
256
176
0
 40
1.0
176
0
 90
2
176
1
  1
strokes_ogs.tif
176
1
290
0
176
1
 40
1.0
176
1
 40
1.0
176
1
  0
VISUALSTYLE
  5
6B
102
{ACAD_REACTORS
330
16
102
}
330
16
100
AcDbVisualStyle
  2
Realistic
 70
8
177
3
291
0
 70
58
 90
2
176
1
 90
2
176
1
 90
0
176
1
 90
2
176
1
 40
0.6
176
1
 40
30.0
176
1
 62
7
420
16777215
176
1
 90
1
176
1
 90
4
176
1
 62
7
176
1
 62
257
176
1
 90
1
176
1
 90
1
176
1
 40
1.0
176
1
 90
8
176
1
 62
7
176
1
 40
1.0
176
1
 90
1
176
1
 90
6
176
1
 90
2
176
1
 62
7
176
1
 90
5
176
1
 90
0
176
1
 90
0
176
1
290
0
176
1
 90
1
176
1
 40
0.0
176
1
 90
0
176
1
290
0
176
1
290
1
176
1
290
1
176
1
290
0
176
1
290
0
176
1
290
0
176
1
290
0
176
1
290
0
176
1
290
0
176
1
 90
50
176
1
 40
0.0
176
1
 40
1.0
176
1
 90
0
176
1
 62
18
420
0
176
1
 90
50
176
1
 90
3
176
1
 62
5
420
255
176
1
290
0
176
1
 90
50
176
1
 90
50
176
1
 90
50
176
1
290
0
176
1
 90
50
176
1
 62
256
176
0
 40
1.0
176
0
 90
2
176
1
  1
strokes_ogs.tif
176
1
290
0
176
1
 40
1.0
176
1
 40
1.0
176
1
  0
VISUALSTYLE
  5
6C
102
{ACAD_REACTORS
330
16
102
}
330
16
100
AcDbVisualStyle
  2
Shaded
 70
27
177
3
291
0
 70
58
 90
2
176
1
 90
2
176
1
 90
0
176
1
 90
2
176
1
 40
0.6
176
1
 40
30.0
176
1
 62
7
420
16777215
176
1
 90
1
176
1
 90
4
176
1
 62
7
176
1
 62
257
176
1
 90
1
176
1
 90
1
176
1
 40
1.0
176
1
 90
8
176
1
 62
7
176
1
 40
1.0
176
1
 90
1
176
1
 90
6
176
1
 90
2
176
1
 62
7
176
1
 90
5
176
1
 90
0
176
1
 90
0
176
1
290
0
176
1
 90
1
176
1
 40
0.0
176
1
 90
0
176
1
290
0
176
1
290
1
176
1
290
1
176
1
290
0
176
1
290
0
176
1
290
0
176
1
290
0
176
1
290
0
176
1
290
0
176
1
 90
50
176
1
 40
0.0
176
1
 40
1.0
176
1
 90
0
176
1
 62
18
420
0
176
1
 90
50
176
1
 90
3
176
1
 62
5
420
255
176
1
290
0
176
1
 90
50
176
1
 90
50
176
1
 90
50
176
1
290
0
176
1
 90
50
176
1
 62
256
176
0
 40
1.0
176
0
 90
2
176
1
  1
strokes_ogs.tif
176
1
290
0
176
1
 40
1.0
176
1
 40
1.0
176
1
  0
VISUALSTYLE
  5
6D
102
{ACAD_REACTORS
330
16
102
}
330
16
100
AcDbVisualStyle
  2
Shaded with edges
 70
26
177
3
291
0
 70
58
 90
2
176
1
 90
2
176
1
 90
0
176
1
 90
2
176
1
 40
0.6
176
1
 40
30.0
176
1
 62
7
420
16777215
176
1
 90
1
176
1
 90
4
176
1
 62
7
176
1
 62
257
176
1
 90
1
176
1
 90
1
176
1
 40
1.0
176
1
 90
8
176
1
 62
7
176
1
 40
1.0
176
1
 90
1
176
1
 90
6
176
1
 90
2
176
1
 62
7
176
1
 90
5
176
1
 90
0
176
1
 90
0
176
1
290
0
176
1
 90
1
176
1
 40
0.0
176
1
 90
0
176
1
290
0
176
1
290
1
176
1
290
1
176
1
290
0
176
1
290
0
176
1
290
0
176
1
290
0
176
1
290
0
176
1
290
0
176
1
 90
50
176
1
 40
0.0
176
1
 40
1.0
176
1
 90
0
176
1
 62
18
420
0
176
1
 90
50
176
1
 90
3
176
1
 62
5
420
255
176
1
290
0
176
1
 90
50
176
1
 90
50
176
1
 90
50
176
1
290
0
176
1
 90
50
176
1
 62
256
176
0
 40
1.0
176
0
 90
2
176
1
  1
strokes_ogs.tif
176
1
290
0
176
1
 40
1.0
176
1
 40
1.0
176
1
  0
VISUALSTYLE
  5
6E
102
{ACAD_REACTORS
330
16
102
}
330
16
100
AcDbVisualStyle
  2
Shades of Gray
 70
23
177
3
291
0
 70
58
 90
2
176
1
 90
2
176
1
 90
0
176
1
 90
2
176
1
 40
0.6
176
1
 40
30.0
176
1
 62
7
420
16777215
176
1
 90
1
176
1
 90
4
176
1
 62
7
176
1
 62
257
176
1
 90
1
176
1
 90
1
176
1
 40
1.0
176
1
 90
8
176
1
 62
7
176
1
 40
1.0
176
1
 90
1
176
1
 90
6
176
1
 90
2
176
1
 62
7
176
1
 90
5
176
1
 90
0
176
1
 90
0
176
1
290
0
176
1
 90
1
176
1
 40
0.0
176
1
 90
0
176
1
290
0
176
1
290
1
176
1
290
1
176
1
290
0
176
1
290
0
176
1
290
0
176
1
290
0
176
1
290
0
176
1
290
0
176
1
 90
50
176
1
 40
0.0
176
1
 40
1.0
176
1
 90
0
176
1
 62
18
420
0
176
1
 90
50
176
1
 90
3
176
1
 62
5
420
255
176
1
290
0
176
1
 90
50
176
1
 90
50
176
1
 90
50
176
1
290
0
176
1
 90
50
176
1
 62
256
176
0
 40
1.0
176
0
 90
2
176
1
  1
strokes_ogs.tif
176
1
290
0
176
1
 40
1.0
176
1
 40
1.0
176
1
  0
VISUALSTYLE
  5
6F
102
{ACAD_REACTORS
330
16
102
}
330
16
100
AcDbVisualStyle
  2
Sketchy
 70
24
177
3
291
0
 70
58
 90
2
176
1
 90
2
176
1
 90
0
176
1
 90
1
176
1
 40
0.6
176
1
 40
30.0
176
1
 62
7
420
16777215
176
1
 90
1
176
1
 90
4
176
1
 62
7
176
1
 62
257
176
1
 90
1
176
1
 90
1
176
1
 40
1.0
176
1
 90
8
176
1
 62
7
176
1
 40
1.0
176
1
 90
1
176
1
 90
6
176
1
 90
2
176
1
 62
7
176
1
 90
5
176
1
 90
0
176
1
 90
0
176
1
290
0
176
1
 90
1
176
1
 40
0.0
176
1
 90
0
176
1
290
0
176
1
290
1
176
1
290
1
176
1
290
0
176
1
290
0
176
1
290
0
176
1
290
0
176
1
290
0
176
1
290
0
176
1
 90
50
176
1
 40
0.0
176
1
 40
1.0
176
1
 90
0
176
1
 62
18
420
0
176
1
 90
50
176
1
 90
3
176
1
 62
5
420
255
176
1
290
0
176
1
 90
50
176
1
 90
50
176
1
 90
50
176
1
290
0
176
1
 90
50
176
1
 62
256
176
0
 40
1.0
176
0
 90
2
176
1
  1
strokes_ogs.tif
176
1
290
0
176
1
 40
1.0
176
1
 40
1.0
176
1
  0
VISUALSTYLE
  5
70
102
{ACAD_REACTORS
330
16
102
}
330
16
100
AcDbVisualStyle
  2
Thicken
 70
13
177
3
291
1
 70
58
 90
2
176
1
 90
2
176
1
 90
0
176
1
 90
2
176
1
 40
0.6
176
1
 40
30.0
176
1
 62
7
420
16777215
176
1
 90
1
176
1
 90
4
176
1
 62
7
176
1
 62
257
176
1
 90
1
176
1
 90
1
176
1
 40
1.0
176
1
 90
8
176
1
 62
7
176
1
 40
1.0
176
1
 90
1
176
1
 90
6
176
1
 90
2
176
1
 62
7
176
1
 90
5
176
1
 90
0
176
1
 90
0
176
1
290
0
176
1
 90
1
176
1
 40
0.0
176
1
 90
0
176
1
290
0
176
1
290
1
176
1
290
1
176
1
290
0
176
1
290
0
176
1
290
0
176
1
290
0
176
1
290
0
176
1
290
0
176
1
 90
50
176
1
 40
0.0
176
1
 40
1.0
176
1
 90
0
176
1
 62
18
420
0
176
1
 90
50
176
1
 90
3
176
1
 62
5
420
255
176
1
290
0
176
1
 90
50
176
1
 90
50
176
1
 90
50
176
1
290
0
176
1
 90
50
176
1
 62
256
176
0
 40
1.0
176
0
 90
2
176
1
  1
strokes_ogs.tif
176
1
290
0
176
1
 40
1.0
176
1
 40
1.0
176
1
  0
VISUALSTYLE
  5
71
102
{ACAD_REACTORS
330
16
102
}
330
16
100
AcDbVisualStyle
  2
Wireframe
 70
5
177
3
291
0
 70
58
 90
2
176
1
 90
2
176
1
 90
0
176
1
 90
0
176
1
 40
0.6
176
1
 40
30.0
176
1
 62
7
420
16777215
176
1
 90
1
176
1
 90
4
176
1
 62
7
176
1
 62
257
176
1
 90
1
176
1
 90
1
176
1
 40
1.0
176
1
 90
8
176
1
 62
7
176
1
 40
1.0
176
1
 90
1
176
1
 90
6
176
1
 90
2
176
1
 62
7
176
1
 90
5
176
1
 90
0
176
1
 90
0
176
1
290
0
176
1
 90
1
176
1
 40
0.0
176
1
 90
0
176
1
290
0
176
1
290
1
176
1
290
1
176
1
290
0
176
1
290
0
176
1
290
0
176
1
290
0
176
1
290
0
176
1
290
0
176
1
 90
50
176
1
 40
0.0
176
1
 40
1.0
176
1
 90
0
176
1
 62
18
420
0
176
1
 90
50
176
1
 90
3
176
1
 62
5
420
255
176
1
290
0
176
1
 90
50
176
1
 90
50
176
1
 90
50
176
1
290
0
176
1
 90
50
176
1
 62
256
176
0
 40
1.0
176
0
 90
2
176
1
  1
strokes_ogs.tif
176
1
290
0
176
1
 40
1.0
176
1
 40
1.0
176
1
  0
VISUALSTYLE
  5
72
102
{ACAD_REACTORS
330
16
102
}
330
16
100
AcDbVisualStyle
  2
X-Ray
 70
25
177
3
291
0
 70
58
 90
2
176
1
 90
2
176
1
 90
0
176
1
 90
2
176
1
 40
0.5
176
1
 40
30.0
176
1
 62
7
420
16777215
176
1
 90
1
176
1
 90
4
176
1
 62
7
176
1
 62
257
176
1
 90
1
176
1
 90
1
176
1
 40
1.0
176
1
 90
8
176
1
 62
7
176
1
 40
1.0
176
1
 90
1
176
1
 90
6
176
1
 90
2
176
1
 62
7
176
1
 90
5
176
1
 90
0
176
1
 90
0
176
1
290
0
176
1
 90
1
176
1
 40
0.0
176
1
 90
0
176
1
290
0
176
1
290
1
176
1
290
1
176
1
290
0
176
1
290
0
176
1
290
0
176
1
290
0
176
1
290
0
176
1
290
0
176
1
 90
50
176
1
 40
0.0
176
1
 40
1.0
176
1
 90
0
176
1
 62
18
420
0
176
1
 90
50
176
1
 90
3
176
1
 62
5
420
255
176
1
290
0
176
1
 90
50
176
1
 90
50
176
1
 90
50
176
1
290
0
176
1
 90
50
176
1
 62
256
176
0
 40
1.0
176
0
 90
2
176
1
  1
strokes_ogs.tif
176
1
290
0
176
1
 40
1.0
176
1
 40
1.0
176
1
  0
LAYOUT
  5
9A
330
D
100
AcDbPlotSettings
  1

  2
DWG To PDF.pc3
  4
ISO_full_bleed_A3_(420.00_x_297.00_MM)_(420.00_x_297.00_MM)
  6

 40
0.0
 41
0.0
 42
0.0
 43
0.0
 44
420.0
 45
297.0
 46
0.0
 47
0.0
 48
0.0
 49
0.0
140
0.0
141
0.0
142
1.0
143
1.0
 70
672
 72
1
 73
0
 74
5
  7

 75
16
 76
0
 77
2
 78
300
147
1.0
148
0.0
149
0.0
100
AcDbLayout
  1
E01 SYSTEM BLOCK DIAGRAM
 70
1
 71
3
 10
-0.0
 20
-0.0
 11
420.0
 21
297.0
 12
0.0
 22
0.0
 32
0.0
 14
1e+20
 24
1e+20
 34
1e+20
 15
-1e+20
 25
-1e+20
 35
-1e+20
146
0.0
 13
0.0
 23
0.0
 33
0.0
 16
1.0
 26
0.0
 36
0.0
 17
0.0
 27
1.0
 37
0.0
 76
1
330
97
331
9B
  0
LAYOUT
  5
12F
330
D
100
AcDbPlotSettings
  1

  2
DWG To PDF.pc3
  4
ISO_full_bleed_A3_(420.00_x_297.00_MM)_(420.00_x_297.00_MM)
  6

 40
0.0
 41
0.0
 42
0.0
 43
0.0
 44
420.0
 45
297.0
 46
0.0
 47
0.0
 48
0.0
 49
0.0
140
0.0
141
0.0
142
1.0
143
1.0
 70
672
 72
1
 73
0
 74
5
  7

 75
16
 76
0
 77
2
 78
300
147
1.0
148
0.0
149
0.0
100
AcDbLayout
  1
E02 POWER DISTRIBUTION
 70
1
 71
4
 10
-0.0
 20
-0.0
 11
420.0
 21
297.0
 12
0.0
 22
0.0
 32
0.0
 14
1e+20
 24
1e+20
 34
1e+20
 15
-1e+20
 25
-1e+20
 35
-1e+20
146
0.0
 13
0.0
 23
0.0
 33
0.0
 16
1.0
 26
0.0
 36
0.0
 17
0.0
 27
1.0
 37
0.0
 76
1
330
12C
331
130
  0
LAYOUT
  5
1F9
330
D
100
AcDbPlotSettings
  1

  2
DWG To PDF.pc3
  4
ISO_full_bleed_A3_(420.00_x_297.00_MM)_(420.00_x_297.00_MM)
  6

 40
0.0
 41
0.0
 42
0.0
 43
0.0
 44
420.0
 45
297.0
 46
0.0
 47
0.0
 48
0.0
 49
0.0
140
0.0
141
0.0
142
1.0
143
1.0
 70
672
 72
1
 73
0
 74
5
  7

 75
16
 76
0
 77
2
 78
300
147
1.0
148
0.0
149
0.0
100
AcDbLayout
  1
E03 CONTROL & SENSOR WIRING
 70
1
 71
5
 10
-0.0
 20
-0.0
 11
420.0
 21
297.0
 12
0.0
 22
0.0
 32
0.0
 14
1e+20
 24
1e+20
 34
1e+20
 15
-1e+20
 25
-1e+20
 35
-1e+20
146
0.0
 13
0.0
 23
0.0
 33
0.0
 16
1.0
 26
0.0
 36
0.0
 17
0.0
 27
1.0
 37
0.0
 76
1
330
1F6
331
1FA
  0
DICTIONARYVAR
  5
3A7
330
2D
100
DictionaryVariables
280
0
  1
1.4.4 @ 2026-09-29T16:41:18.896169+00:00
  0
ENDSEC
  0
EOF
